SplineFontDB: 3.2
FontName: Readerly
FullName: Readerly
FamilyName: Readerly
Weight: Book
Copyright: Copyright 2020 The Newsreader Project Authors (http://github.com/productiontype/Newsreader)
Version: 1.003
ItalicAngle: 0
UnderlinePosition: -303
UnderlineWidth: 96
Ascent: 1470
Descent: 530
InvalidEm: 0
sfntRevision: 0x000100c5
LayerCount: 2
Layer: 0 1 "Back" 1
Layer: 1 1 "Fore" 0
XUID: [1021 301 -1444420827 15515039]
StyleMap: 0x0040
FSType: 0
OS2Version: 4
OS2_WeightWidthSlopeOnly: 0
OS2_UseTypoMetrics: 1
CreationTime: 1606394360
ModificationTime: 1772407998
PfmFamily: 17
TTFWeight: 400
TTFWidth: 5
LineGap: 0
VLineGap: 0
Panose: 2 0 5 0 0 0 0 2 0 0
OS2TypoAscent: 1470
OS2TypoAOffset: 0
OS2TypoDescent: -530
OS2TypoDOffset: 0
OS2TypoLinegap: 0
OS2WinAscent: 1670
OS2WinAOffset: 0
OS2WinDescent: 730
OS2WinDOffset: 0
HheadAscent: 1670
HheadAOffset: 0
HheadDescent: -730
HheadDOffset: 0
OS2SubXSize: 1300
OS2SubYSize: 1200
OS2SubXOff: 0
OS2SubYOff: 150
OS2SupXSize: 1300
OS2SupYSize: 1200
OS2SupXOff: 0
OS2SupYOff: 700
OS2StrikeYSize: 130
OS2StrikeYPos: 501
OS2CapHeight: 1340
OS2XHeight: 852
OS2Vendor: 'PROD'
OS2CodePages: 20000193.00000000
OS2UnicodeRanges: 00000047.00000001.00000000.00000000
Lookup: 1 0 0 "'locl' Localized Forms in Latin lookup 0" { "'locl' Localized Forms in Latin lookup 0 subtable"  } ['locl' ('latn' <'MOL ' > ) ]
Lookup: 1 0 0 "'locl' Localized Forms in Latin lookup 1" { "'locl' Localized Forms in Latin lookup 1 subtable"  } ['locl' ('latn' <'ROM ' > ) ]
Lookup: 6 0 0 "'ordn' Ordinals in Latin lookup 2" { "'ordn' Ordinals in Latin lookup 2 contextual 0"  "'ordn' Ordinals in Latin lookup 2 contextual 1"  } ['ordn' ('DFLT' <'dflt' > 'latn' <'MOL ' 'ROM ' 'dflt' > ) ]
Lookup: 1 0 0 "Single Substitution lookup 3" { "Single Substitution lookup 3 subtable"  } []
Lookup: 4 0 0 "'ordn' Ordinals in Latin lookup 4" { "'ordn' Ordinals in Latin lookup 4 subtable"  } ['ordn' ('DFLT' <'dflt' > 'latn' <'MOL ' 'ROM ' 'dflt' > ) ]

StartChar: .notdef
Encoding: 65536 -1 0
Width: 1000
GlyphClass: 1
Flags: W
LayerCount: 2
Fore
SplineSet
100 -481 m 1,0,-1
 100 1519 l 1,1,-1
 900 1519 l 1,2,-1
 900 -481 l 1,3,-1
 100 -481 l 1,0,-1
200 -381 m 1,4,-1
 800 -381 l 1,5,-1
 800 1419 l 1,6,-1
 200 1419 l 1,7,-1
 200 -381 l 1,4,-1
EndSplineSet
EndChar

StartChar: A
Encoding: 65 65 5
Width: 1581
GlyphClass: 2
Flags: W
AnchorPoint: "Anchor-4" 766 0 basechar 0
AnchorPoint: "Anchor-3" 1442 0 basechar 0
LayerCount: 2
Fore
SplineSet
419 477 m 1,0,-1
 419 617 l 1,1,-1
 1123 617 l 1,2,-1
 1123 477 l 1,3,-1
 419 477 l 1,0,-1
1403 137 m 1,4,-1
 1579 89 l 1,5,-1
 1579 0 l 1,6,-1
 995 0 l 1,7,-1
 995 89 l 1,8,-1
 1177 136 l 1,9,-1
 711 1301 l 1,10,-1
 764 1301 l 1,11,-1
 341 136 l 1,12,-1
 521 89 l 1,13,-1
 521 0 l 1,14,-1
 15 0 l 1,15,-1
 15 89 l 1,16,-1
 179 136 l 1,17,-1
 671 1416 l 1,18,-1
 880 1416 l 1,19,-1
 1403 137 l 1,4,-1
EndSplineSet
Substitution2: "Single Substitution lookup 3 subtable" ordfeminine
EndChar

StartChar: B
Encoding: 66 66 6
Width: 1416
GlyphClass: 2
Flags: W
AnchorPoint: "Anchor-4" 745 0 basechar 0
LayerCount: 2
Fore
SplineSet
407 1255 m 1,0,-1
 407 1396 l 1,1,-1
 805 1396 l 2,2,3
 964 1396 964 1396 1058.5 1354.5 c 128,-1,4
 1153 1313 1153 1313 1195.5 1239 c 128,-1,5
 1238 1165 1238 1165 1238 1067 c 0,6,7
 1238 929 1238 929 1158 844 c 128,-1,8
 1078 759 1078 759 928 746 c 1,9,-1
 928 764 l 1,10,11
 1109 754 1109 754 1207 661.5 c 128,-1,12
 1305 569 1305 569 1305 421 c 0,13,14
 1305 292 1305 292 1254 197.5 c 128,-1,15
 1203 103 1203 103 1091 51.5 c 128,-1,16
 979 0 979 0 794 0 c 2,17,-1
 407 0 l 1,18,-1
 407 141 l 1,19,-1
 789 141 l 2,20,21
 892 141 892 141 960.5 166.5 c 128,-1,22
 1029 192 1029 192 1063 252.5 c 128,-1,23
 1097 313 1097 313 1097 415 c 0,24,25
 1097 494 1097 494 1067 551.5 c 128,-1,26
 1037 609 1037 609 971 640.5 c 128,-1,27
 905 672 905 672 797 672 c 2,28,-1
 403 672 l 1,29,-1
 409 812 l 1,30,-1
 795 812 l 2,31,32
 912 812 912 812 975.5 866 c 128,-1,33
 1039 920 1039 920 1039 1042 c 0,34,35
 1039 1111 1039 1111 1012.5 1158.5 c 128,-1,36
 986 1206 986 1206 927.5 1230.5 c 128,-1,37
 869 1255 869 1255 773 1255 c 2,38,-1
 407 1255 l 1,0,-1
110 0 m 1,39,-1
 110 89 l 1,40,-1
 289 136 l 1,41,-1
 289 1260 l 1,42,-1
 110 1306 l 1,43,-1
 110 1396 l 1,44,-1
 492 1396 l 1,45,-1
 492 0 l 1,46,-1
 110 0 l 1,39,-1
EndSplineSet
EndChar

StartChar: C
Encoding: 67 67 7
Width: 1510
GlyphClass: 2
Flags: W
AnchorPoint: "Anchor-4" 827 0 basechar 0
AnchorPoint: "Anchor-3" 1370 0 basechar 0
LayerCount: 2
Fore
SplineSet
911 123 m 0,0,1
 1000 123 1000 123 1092 140 c 128,-1,2
 1184 157 1184 157 1265 188 c 1,3,-1
 1148 90 l 1,4,-1
 1285 422 l 1,5,-1
 1400 422 l 1,6,-1
 1361 63 l 1,7,8
 1287 27 1287 27 1164 3.5 c 128,-1,9
 1041 -20 1041 -20 903 -20 c 0,10,11
 714 -20 714 -20 567 25.5 c 128,-1,12
 420 71 420 71 318.5 160.5 c 128,-1,13
 217 250 217 250 165 383 c 128,-1,14
 113 516 113 516 114 690 c 0,15,16
 117 921 117 921 211 1083 c 128,-1,17
 305 1245 305 1245 482 1330.5 c 128,-1,18
 659 1416 659 1416 910 1416 c 0,19,20
 1007 1416 1007 1416 1086.5 1401 c 128,-1,21
 1166 1386 1166 1386 1249 1362 c 1,22,-1
 1185 1357 l 1,23,-1
 1279 1463 l 1,24,-1
 1372 1463 l 1,25,-1
 1386 955 l 1,26,-1
 1259 953 l 1,27,-1
 1160 1265 l 1,28,-1
 1211 1193 l 1,29,30
 1124 1237 1124 1237 1052.5 1253 c 128,-1,31
 981 1269 981 1269 892 1269 c 0,32,33
 747 1269 747 1269 641.5 1235 c 128,-1,34
 536 1201 536 1201 467.5 1133.5 c 128,-1,35
 399 1066 399 1066 365 967 c 128,-1,36
 331 868 331 868 327 739 c 0,37,38
 324 587 324 587 364 472 c 128,-1,39
 404 357 404 357 481.5 279 c 128,-1,40
 559 201 559 201 668.5 162 c 128,-1,41
 778 123 778 123 911 123 c 0,0,1
EndSplineSet
EndChar

StartChar: D
Encoding: 68 68 8
Width: 1635
GlyphClass: 2
Flags: W
AnchorPoint: "Anchor-4" 829 0 basechar 0
LayerCount: 2
Fore
SplineSet
1306 715 m 0,0,1
 1306 990 1306 990 1156 1122.5 c 128,-1,2
 1006 1255 1006 1255 699 1255 c 2,3,-1
 375 1255 l 1,4,-1
 375 1396 l 1,5,-1
 762 1396 l 2,6,7
 1014 1396 1014 1396 1182 1320.5 c 128,-1,8
 1350 1245 1350 1245 1434.5 1096.5 c 128,-1,9
 1519 948 1519 948 1519 730 c 0,10,11
 1519 494 1519 494 1423 331 c 128,-1,12
 1327 168 1327 168 1155.5 84 c 128,-1,13
 984 0 984 0 756 0 c 2,14,-1
 375 0 l 1,15,-1
 375 141 l 1,16,-1
 744 141 l 2,17,18
 924 141 924 141 1049.5 200 c 128,-1,19
 1175 259 1175 259 1240.5 385.5 c 128,-1,20
 1306 512 1306 512 1306 715 c 0,0,1
104 0 m 1,21,-1
 104 89 l 1,22,-1
 290 136 l 1,23,-1
 290 1260 l 1,24,-1
 104 1306 l 1,25,-1
 104 1396 l 1,26,-1
 494 1396 l 1,27,-1
 494 0 l 1,28,-1
 104 0 l 1,21,-1
EndSplineSet
EndChar

StartChar: E
Encoding: 69 69 9
Width: 1426
GlyphClass: 2
Flags: W
AnchorPoint: "Anchor-4" 717 0 basechar 0
AnchorPoint: "Anchor-3" 1189 0 basechar 0
LayerCount: 2
Fore
SplineSet
1003 984 m 1,0,-1
 1003 727 l 1,1,-1
 1003 470 l 1,2,-1
 886 470 l 1,3,-1
 868 658 l 1,4,-1
 375 658 l 1,5,-1
 375 799 l 1,6,-1
 868 799 l 1,7,-1
 886 984 l 1,8,-1
 1003 984 l 1,0,-1
1294 1022 m 1,9,-1
 1177 1020 l 1,10,-1
 1075 1323 l 1,11,-1
 1148 1255 l 1,12,-1
 375 1255 l 1,13,-1
 375 1396 l 1,14,-1
 1105 1396 l 1,15,-1
 1190 1460 l 1,16,-1
 1278 1460 l 1,17,-1
 1294 1022 l 1,9,-1
1071 71 m 1,18,-1
 1230 419 l 1,19,-1
 1341 417 l 1,20,-1
 1266 -69 l 1,21,-1
 1166 -69 l 1,22,-1
 1106 0 l 1,23,-1
 375 0 l 1,24,-1
 375 141 l 1,25,-1
 1134 141 l 1,26,-1
 1071 71 l 1,18,-1
104 0 m 1,27,-1
 104 89 l 1,28,-1
 290 136 l 1,29,-1
 290 1260 l 1,30,-1
 104 1306 l 1,31,-1
 104 1396 l 1,32,-1
 494 1396 l 1,33,-1
 494 0 l 1,34,-1
 104 0 l 1,27,-1
EndSplineSet
EndChar

StartChar: F
Encoding: 70 70 10
Width: 1332
GlyphClass: 2
Flags: W
AnchorPoint: "Anchor-4" 392 0 basechar 0
LayerCount: 2
Fore
SplineSet
997 927 m 1,0,-1
 997 662 l 1,1,-1
 997 398 l 1,2,-1
 880 398 l 1,3,-1
 862 594 l 1,4,-1
 377 594 l 1,5,-1
 377 734 l 1,6,-1
 862 734 l 1,7,-1
 880 927 l 1,8,-1
 997 927 l 1,0,-1
1160 1460 m 1,9,-1
 1247 1460 l 1,10,-1
 1263 1003 l 1,11,-1
 1146 1000 l 1,12,-1
 1044 1323 l 1,13,-1
 1137 1255 l 1,14,-1
 368 1255 l 1,15,-1
 368 1396 l 1,16,-1
 1075 1396 l 1,17,-1
 1160 1460 l 1,9,-1
494 1396 m 1,18,-1
 494 136 l 1,19,-1
 680 89 l 1,20,-1
 680 0 l 1,21,-1
 104 0 l 1,22,-1
 104 89 l 1,23,-1
 290 136 l 1,24,-1
 290 1260 l 1,25,-1
 104 1306 l 1,26,-1
 104 1396 l 1,27,-1
 494 1396 l 1,18,-1
EndSplineSet
EndChar

StartChar: G
Encoding: 71 71 11
Width: 1637
GlyphClass: 2
Flags: W
AnchorPoint: "Anchor-4" 891 0 basechar 0
LayerCount: 2
Fore
SplineSet
1401 206 m 1,0,-1
 1510 182 l 1,1,-1
 1510 109 l 1,2,3
 1433 69 1433 69 1330.5 40 c 128,-1,4
 1228 11 1228 11 1117.5 -4.5 c 128,-1,5
 1007 -20 1007 -20 903 -20 c 0,6,7
 715 -20 715 -20 567.5 25.5 c 128,-1,8
 420 71 420 71 318.5 160.5 c 128,-1,9
 217 250 217 250 165 383 c 128,-1,10
 113 516 113 516 114 690 c 0,11,12
 117 921 117 921 211.5 1083.5 c 128,-1,13
 306 1246 306 1246 484 1331 c 128,-1,14
 662 1416 662 1416 914 1416 c 0,15,16
 1013 1416 1013 1416 1093 1401 c 128,-1,17
 1173 1386 1173 1386 1255 1361 c 1,18,-1
 1188 1357 l 1,19,-1
 1283 1463 l 1,20,-1
 1375 1463 l 1,21,-1
 1390 970 l 1,22,-1
 1263 968 l 1,23,-1
 1161 1270 l 1,24,-1
 1226 1185 l 1,25,26
 1140 1232 1140 1232 1065 1250.5 c 128,-1,27
 990 1269 990 1269 895 1269 c 0,28,29
 749 1269 749 1269 643.5 1235 c 128,-1,30
 538 1201 538 1201 469 1133.5 c 128,-1,31
 400 1066 400 1066 365.5 967.5 c 128,-1,32
 331 869 331 869 327 739 c 0,33,34
 322 537 322 537 393.5 399.5 c 128,-1,35
 465 262 465 262 597.5 192.5 c 128,-1,36
 730 123 730 123 907 123 c 0,37,38
 971 123 971 123 1038.5 132.5 c 128,-1,39
 1106 142 1106 142 1167 163.5 c 128,-1,40
 1228 185 1228 185 1273 218 c 1,41,-1
 1197 47 l 1,42,-1
 1197 520 l 1,43,-1
 973 568 l 1,44,-1
 973 658 l 1,45,-1
 1550 658 l 1,46,-1
 1550 568 l 1,47,-1
 1401 522 l 1,48,-1
 1401 206 l 1,0,-1
EndSplineSet
EndChar

StartChar: H
Encoding: 72 72 12
Width: 1742
GlyphClass: 2
Flags: W
AnchorPoint: "Anchor-4" 871 0 basechar 0
LayerCount: 2
Fore
SplineSet
494 136 m 1,0,-1
 680 89 l 1,1,-1
 680 0 l 1,2,-1
 104 0 l 1,3,-1
 104 89 l 1,4,-1
 290 136 l 1,5,-1
 290 1260 l 1,6,-1
 104 1306 l 1,7,-1
 104 1396 l 1,8,-1
 680 1396 l 1,9,-1
 680 1306 l 1,10,-1
 494 1260 l 1,11,-1
 494 136 l 1,0,-1
1452 136 m 1,12,-1
 1638 89 l 1,13,-1
 1638 0 l 1,14,-1
 1062 0 l 1,15,-1
 1062 89 l 1,16,-1
 1248 136 l 1,17,-1
 1248 1260 l 1,18,-1
 1062 1306 l 1,19,-1
 1062 1396 l 1,20,-1
 1638 1396 l 1,21,-1
 1638 1306 l 1,22,-1
 1452 1260 l 1,23,-1
 1452 136 l 1,12,-1
375 641 m 1,24,-1
 375 781 l 1,25,-1
 1368 781 l 1,26,-1
 1368 641 l 1,27,-1
 375 641 l 1,24,-1
EndSplineSet
EndChar

StartChar: I
Encoding: 73 73 13
Width: 784
GlyphClass: 2
Flags: W
AnchorPoint: "Anchor-4" 392 0 basechar 0
AnchorPoint: "Anchor-3" 542 0 basechar 0
LayerCount: 2
Fore
SplineSet
680 89 m 1,0,-1
 680 0 l 1,1,-1
 104 0 l 1,2,-1
 104 89 l 1,3,-1
 290 136 l 1,4,-1
 290 1260 l 1,5,-1
 104 1306 l 1,6,-1
 104 1396 l 1,7,-1
 680 1396 l 1,8,-1
 680 1306 l 1,9,-1
 494 1260 l 1,10,-1
 494 136 l 1,11,-1
 680 89 l 1,0,-1
EndSplineSet
EndChar

StartChar: J
Encoding: 74 74 14
Width: 1057
GlyphClass: 2
Flags: W
AnchorPoint: "Anchor-4" 452 0 basechar 0
LayerCount: 2
Fore
SplineSet
793 398 m 2,0,1
 793 301 793 301 764.5 223.5 c 128,-1,2
 736 146 736 146 677 92.5 c 128,-1,3
 618 39 618 39 528.5 11 c 128,-1,4
 439 -17 439 -17 318 -17 c 0,5,6
 210 -17 210 -17 147 3 c 128,-1,7
 84 23 84 23 57 58.5 c 128,-1,8
 30 94 30 94 30 138 c 0,9,10
 30 186 30 186 57 216.5 c 128,-1,11
 84 247 84 247 133 247 c 0,12,13
 150 247 150 247 169.5 229.5 c 128,-1,14
 189 212 189 212 215 188.5 c 128,-1,15
 241 165 241 165 279 147 c 128,-1,16
 317 129 317 129 371 129 c 0,17,18
 476 129 476 129 532.5 181.5 c 128,-1,19
 589 234 589 234 589 364 c 2,20,-1
 589 1260 l 1,21,-1
 403 1306 l 1,22,-1
 403 1396 l 1,23,-1
 979 1396 l 1,24,-1
 979 1306 l 1,25,-1
 793 1260 l 1,26,-1
 793 398 l 2,0,1
EndSplineSet
EndChar

StartChar: K
Encoding: 75 75 15
Width: 1612
GlyphClass: 2
Flags: W
AnchorPoint: "Anchor-4" 870 0 basechar 0
LayerCount: 2
Fore
SplineSet
1435 127 m 1,0,-1
 1591 89 l 1,1,-1
 1591 0 l 1,2,-1
 1143 0 l 1,3,-1
 1143 59 l 1,4,-1
 1181 103 l 1,5,-1
 666 652 l 1,6,-1
 430 652 l 1,7,-1
 430 791 l 1,8,-1
 681 791 l 1,9,-1
 1153 1265 l 1,10,-1
 994 1306 l 1,11,-1
 994 1396 l 1,12,-1
 1498 1396 l 1,13,-1
 1498 1306 l 1,14,-1
 1334 1260 l 1,15,-1
 770 707 l 1,16,-1
 795 798 l 1,17,-1
 1435 127 l 1,0,-1
494 1260 m 1,18,-1
 494 136 l 1,19,-1
 680 89 l 1,20,-1
 680 0 l 1,21,-1
 104 0 l 1,22,-1
 104 89 l 1,23,-1
 290 136 l 1,24,-1
 290 1260 l 1,25,-1
 104 1306 l 1,26,-1
 104 1396 l 1,27,-1
 680 1396 l 1,28,-1
 680 1306 l 1,29,-1
 494 1260 l 1,18,-1
EndSplineSet
EndChar

StartChar: L
Encoding: 76 76 16
Width: 1333
GlyphClass: 2
Flags: W
AnchorPoint: "Anchor-4" 668 0 basechar 0
AnchorPoint: "Anchor-3" 758 1395 basechar 0
LayerCount: 2
Fore
SplineSet
1198 -69 m 1,0,-1
 1098 -69 l 1,1,-1
 1036 0 l 1,2,-1
 375 0 l 1,3,-1
 375 141 l 1,4,-1
 1088 141 l 1,5,-1
 997 70 l 1,6,-1
 1168 470 l 1,7,-1
 1279 467 l 1,8,-1
 1198 -69 l 1,0,-1
494 1260 m 1,9,-1
 494 0 l 1,10,-1
 104 0 l 1,11,-1
 104 89 l 1,12,-1
 290 136 l 1,13,-1
 290 1260 l 1,14,-1
 104 1306 l 1,15,-1
 104 1396 l 1,16,-1
 680 1396 l 1,17,-1
 680 1306 l 1,18,-1
 494 1260 l 1,9,-1
EndSplineSet
EndChar

StartChar: M
Encoding: 77 77 17
Width: 2125
GlyphClass: 2
Flags: W
AnchorPoint: "Anchor-4" 1044 0 basechar 0
LayerCount: 2
Fore
SplineSet
1866 136 m 1,0,-1
 2045 89 l 1,1,-1
 2045 0 l 1,2,-1
 1485 0 l 1,3,-1
 1485 89 l 1,4,-1
 1664 136 l 1,5,-1
 1586 1250 l 1,6,-1
 1598 1248 l 1,7,-1
 1124 -5 l 1,8,-1
 930 -5 l 1,9,-1
 462 1238 l 1,10,-1
 475 1241 l 1,11,-1
 399 136 l 1,12,-1
 578 89 l 1,13,-1
 578 0 l 1,14,-1
 87 0 l 1,15,-1
 87 89 l 1,16,-1
 252 136 l 1,17,-1
 335 1247 l 1,18,-1
 143 1306 l 1,19,-1
 143 1396 l 1,20,-1
 622 1396 l 1,21,-1
 1075 162 l 1,22,-1
 1055 162 l 1,23,-1
 1511 1396 l 1,24,-1
 1972 1396 l 1,25,-1
 1972 1306 l 1,26,-1
 1787 1252 l 1,27,-1
 1866 136 l 1,0,-1
EndSplineSet
EndChar

StartChar: N
Encoding: 78 78 18
Width: 1684
GlyphClass: 2
Flags: W
AnchorPoint: "Anchor-4" 873 0 basechar 0
LayerCount: 2
Fore
SplineSet
289 136 m 1,0,-1
 289 1256 l 1,1,-1
 108 1306 l 1,2,-1
 108 1396 l 1,3,-1
 555 1396 l 1,4,-1
 1329 130 l 1,5,-1
 1264 83 l 1,6,-1
 1264 1260 l 1,7,-1
 1067 1306 l 1,8,-1
 1067 1396 l 1,9,-1
 1596 1396 l 1,10,-1
 1596 1306 l 1,11,-1
 1416 1260 l 1,12,-1
 1416 -5 l 1,13,-1
 1189 -5 l 1,14,-1
 403 1272 l 1,15,-1
 441 1281 l 1,16,-1
 441 136 l 1,17,-1
 638 89 l 1,18,-1
 638 0 l 1,19,-1
 109 0 l 1,20,-1
 109 89 l 1,21,-1
 289 136 l 1,0,-1
EndSplineSet
EndChar

StartChar: O
Encoding: 79 79 19
Width: 1652
GlyphClass: 2
Flags: W
AnchorPoint: "Anchor-4" 826 0 basechar 0
AnchorPoint: "Anchor-3" 1018 0 basechar 0
AnchorPoint: "Anchor-2" 1139 1396 basechar 0
LayerCount: 2
Fore
SplineSet
824 1416 m 0,0,1
 987 1416 987 1416 1118.5 1363.5 c 128,-1,2
 1250 1311 1250 1311 1344.5 1215.5 c 128,-1,3
 1439 1120 1439 1120 1489 989 c 128,-1,4
 1539 858 1539 858 1539 700 c 0,5,6
 1539 541 1539 541 1489 409.5 c 128,-1,7
 1439 278 1439 278 1345.5 181.5 c 128,-1,8
 1252 85 1252 85 1121 32.5 c 128,-1,9
 990 -20 990 -20 828 -20 c 0,10,11
 665 -20 665 -20 533.5 32.5 c 128,-1,12
 402 85 402 85 307.5 180.5 c 128,-1,13
 213 276 213 276 163 407 c 128,-1,14
 113 538 113 538 113 696 c 0,15,16
 113 855 113 855 163 986.5 c 128,-1,17
 213 1118 213 1118 306.5 1214.5 c 128,-1,18
 400 1311 400 1311 531 1363.5 c 128,-1,19
 662 1416 662 1416 824 1416 c 0,0,1
835 128 m 0,20,21
 995 128 995 128 1104 193 c 128,-1,22
 1213 258 1213 258 1269.5 379 c 128,-1,23
 1326 500 1326 500 1326 666 c 0,24,25
 1326 856 1326 856 1267 990.5 c 128,-1,26
 1208 1125 1208 1125 1094.5 1196 c 128,-1,27
 981 1267 981 1267 817 1267 c 0,28,29
 657 1267 657 1267 548 1202 c 128,-1,30
 439 1137 439 1137 382.5 1017 c 128,-1,31
 326 897 326 897 326 729 c 0,32,33
 326 541 326 541 385 406 c 128,-1,34
 444 271 444 271 558 199.5 c 128,-1,35
 672 128 672 128 835 128 c 0,20,21
EndSplineSet
Substitution2: "Single Substitution lookup 3 subtable" ordmasculine
EndChar

StartChar: P
Encoding: 80 80 20
Width: 1352
GlyphClass: 2
Flags: W
AnchorPoint: "Anchor-4" 392 0 basechar 0
LayerCount: 2
Fore
SplineSet
1068 984 m 0,0,1
 1068 1074 1068 1074 1033.5 1134.5 c 128,-1,2
 999 1195 999 1195 914.5 1225 c 128,-1,3
 830 1255 830 1255 679 1255 c 2,4,-1
 334 1255 l 1,5,-1
 337 1396 l 1,6,-1
 749 1396 l 2,7,8
 945 1396 945 1396 1060.5 1345 c 128,-1,9
 1176 1294 1176 1294 1227 1203 c 128,-1,10
 1278 1112 1278 1112 1278 990 c 0,11,12
 1278 869 1278 869 1227.5 773.5 c 128,-1,13
 1177 678 1177 678 1066.5 623 c 128,-1,14
 956 568 956 568 775 568 c 2,15,-1
 337 568 l 1,16,-1
 334 709 l 1,17,-1
 773 709 l 2,18,19
 864 709 864 709 930 738 c 128,-1,20
 996 767 996 767 1032 828 c 128,-1,21
 1068 889 1068 889 1068 984 c 0,0,1
494 1396 m 1,22,-1
 494 136 l 1,23,-1
 680 89 l 1,24,-1
 680 0 l 1,25,-1
 104 0 l 1,26,-1
 104 89 l 1,27,-1
 290 136 l 1,28,-1
 290 1260 l 1,29,-1
 104 1306 l 1,30,-1
 104 1396 l 1,31,-1
 494 1396 l 1,22,-1
EndSplineSet
EndChar

StartChar: Q
Encoding: 81 81 21
Width: 1652
GlyphClass: 2
Flags: W
AnchorPoint: "Anchor-4" 826 -377 basechar 0
LayerCount: 2
Fore
SplineSet
806 -265 m 2,0,-1
 377 115 l 2,1,2
 289 192 289 192 230 280.5 c 128,-1,3
 171 369 171 369 142 472 c 128,-1,4
 113 575 113 575 113 696 c 0,5,6
 113 855 113 855 163 986.5 c 128,-1,7
 213 1118 213 1118 306.5 1214.5 c 128,-1,8
 400 1311 400 1311 531 1363.5 c 128,-1,9
 662 1416 662 1416 824 1416 c 0,10,11
 987 1416 987 1416 1118.5 1363.5 c 128,-1,12
 1250 1311 1250 1311 1344.5 1215.5 c 128,-1,13
 1439 1120 1439 1120 1489 989 c 128,-1,14
 1539 858 1539 858 1539 700 c 0,15,16
 1539 515 1539 515 1465 369 c 128,-1,17
 1391 223 1391 223 1260 132.5 c 128,-1,18
 1129 42 1129 42 958.5 22.5 c 128,-1,19
 788 3 788 3 596 71 c 1,20,-1
 641 103 l 1,21,-1
 1020 -178 l 2,22,23
 1088 -228 1088 -228 1137.5 -258.5 c 128,-1,24
 1187 -289 1187 -289 1231 -304.5 c 128,-1,25
 1275 -320 1275 -320 1325.5 -322.5 c 128,-1,26
 1376 -325 1376 -325 1445 -320 c 1,27,-1
 1445 -421 l 1,28,29
 1411 -428 1411 -428 1377.5 -434 c 128,-1,30
 1344 -440 1344 -440 1305 -443.5 c 128,-1,31
 1266 -447 1266 -447 1215 -447 c 0,32,33
 1153 -447 1153 -447 1103 -437.5 c 128,-1,34
 1053 -428 1053 -428 1006.5 -406.5 c 128,-1,35
 960 -385 960 -385 911.5 -350.5 c 128,-1,36
 863 -316 863 -316 806 -265 c 2,0,-1
835 128 m 0,37,38
 995 128 995 128 1104 193 c 128,-1,39
 1213 258 1213 258 1269.5 379 c 128,-1,40
 1326 500 1326 500 1326 666 c 0,41,42
 1326 856 1326 856 1267 990.5 c 128,-1,43
 1208 1125 1208 1125 1094.5 1196 c 128,-1,44
 981 1267 981 1267 817 1267 c 0,45,46
 657 1267 657 1267 548 1202 c 128,-1,47
 439 1137 439 1137 382.5 1017 c 128,-1,48
 326 897 326 897 326 729 c 0,49,50
 326 541 326 541 385 406 c 128,-1,51
 444 271 444 271 558 199.5 c 128,-1,52
 672 128 672 128 835 128 c 0,37,38
EndSplineSet
EndChar

StartChar: R
Encoding: 82 82 22
Width: 1466
GlyphClass: 2
Flags: W
AnchorPoint: "Anchor-4" 806 0 basechar 0
LayerCount: 2
Fore
SplineSet
775 770 m 2,0,1
 905 770 905 770 980 828.5 c 128,-1,2
 1055 887 1055 887 1055 1014 c 0,3,4
 1055 1094 1055 1094 1022.5 1147.5 c 128,-1,5
 990 1201 990 1201 910 1228 c 128,-1,6
 830 1255 830 1255 688 1255 c 2,7,-1
 383 1255 l 1,8,-1
 384 1396 l 1,9,-1
 780 1396 l 2,10,11
 958 1396 958 1396 1064 1352 c 128,-1,12
 1170 1308 1170 1308 1216.5 1228.5 c 128,-1,13
 1263 1149 1263 1149 1263 1045 c 0,14,15
 1263 952 1263 952 1228.5 880 c 128,-1,16
 1194 808 1194 808 1123.5 761.5 c 128,-1,17
 1053 715 1053 715 944 696 c 1,18,-1
 944 705 l 1,19,20
 1019 700 1019 700 1066 675.5 c 128,-1,21
 1113 651 1113 651 1141 606.5 c 128,-1,22
 1169 562 1169 562 1186 494 c 2,23,-1
 1248 244 l 2,24,25
 1264 180 1264 180 1282 149.5 c 128,-1,26
 1300 119 1300 119 1330.5 110 c 128,-1,27
 1361 101 1361 101 1414 101 c 1,28,-1
 1414 0 l 1,29,30
 1307 -4 1307 -4 1241.5 1 c 128,-1,31
 1176 6 1176 6 1138.5 26 c 128,-1,32
 1101 46 1101 46 1081 87.5 c 128,-1,33
 1061 129 1061 129 1045 198 c 2,34,-1
 990 424 l 2,35,36
 971 504 971 504 948 548.5 c 128,-1,37
 925 593 925 593 882.5 611.5 c 128,-1,38
 840 630 840 630 762 630 c 2,39,-1
 384 630 l 1,40,-1
 383 770 l 1,41,-1
 775 770 l 2,0,1
494 1396 m 1,42,-1
 494 136 l 1,43,-1
 680 89 l 1,44,-1
 680 0 l 1,45,-1
 104 0 l 1,46,-1
 104 89 l 1,47,-1
 290 136 l 1,48,-1
 290 1260 l 1,49,-1
 104 1306 l 1,50,-1
 104 1396 l 1,51,-1
 494 1396 l 1,42,-1
EndSplineSet
EndChar

StartChar: S
Encoding: 83 83 23
Width: 1255
GlyphClass: 2
Flags: W
AnchorPoint: "Anchor-4" 632 0 basechar 0
LayerCount: 2
Fore
SplineSet
1024 1330 m 1,0,-1
 879 1357 l 1,1,-1
 974 1463 l 1,2,-1
 1069 1463 l 1,3,-1
 1084 977 l 1,4,-1
 955 975 l 1,5,-1
 851 1272 l 1,6,-1
 908 1209 l 1,7,8
 846 1251 846 1251 782 1267.5 c 128,-1,9
 718 1284 718 1284 643 1284 c 0,10,11
 500 1284 500 1284 418 1234 c 128,-1,12
 336 1184 336 1184 336 1071 c 0,13,14
 336 1004 336 1004 364.5 961.5 c 128,-1,15
 393 919 393 919 443 892 c 128,-1,16
 493 865 493 865 558.5 847.5 c 128,-1,17
 624 830 624 830 698 812 c 0,18,19
 772 795 772 795 848 772 c 128,-1,20
 924 749 924 749 988.5 706 c 128,-1,21
 1053 663 1053 663 1092.5 589.5 c 128,-1,22
 1132 516 1132 516 1132 399 c 0,23,24
 1132 252 1132 252 1063 159.5 c 128,-1,25
 994 67 994 67 867 23.5 c 128,-1,26
 740 -20 740 -20 565 -20 c 0,27,28
 451 -20 451 -20 361 -9 c 128,-1,29
 271 2 271 2 179 34 c 1,30,-1
 112 430 l 1,31,-1
 244 430 l 1,32,-1
 427 43 l 1,33,-1
 227 194 l 1,34,35
 314 152 314 152 387.5 134 c 128,-1,36
 461 116 461 116 561 116 c 0,37,38
 686 116 686 116 770 141 c 128,-1,39
 854 166 854 166 895.5 221 c 128,-1,40
 937 276 937 276 937 365 c 0,41,42
 937 440 937 440 903 487 c 128,-1,43
 869 534 869 534 811 562.5 c 128,-1,44
 753 591 753 591 682 610 c 128,-1,45
 611 629 611 629 537 648 c 256,46,47
 463 667 463 667 393 692.5 c 128,-1,48
 323 718 323 718 267.5 760.5 c 128,-1,49
 212 803 212 803 179 870 c 128,-1,50
 146 937 146 937 146 1038 c 0,51,52
 146 1162 146 1162 206 1246 c 128,-1,53
 266 1330 266 1330 380.5 1373 c 128,-1,54
 495 1416 495 1416 657 1416 c 0,55,56
 760 1416 760 1416 847 1396 c 128,-1,57
 934 1376 934 1376 1024 1330 c 1,0,-1
EndSplineSet
EndChar

StartChar: T
Encoding: 84 84 24
Width: 1487
GlyphClass: 2
Flags: W
AnchorPoint: "Anchor-4" 744 0 basechar 0
LayerCount: 2
Fore
SplineSet
642 1332 m 1,0,-1
 845 1332 l 1,1,-1
 845 136 l 1,2,-1
 1047 89 l 1,3,-1
 1047 0 l 1,4,-1
 440 0 l 1,5,-1
 440 89 l 1,6,-1
 642 136 l 1,7,-1
 642 1332 l 1,0,-1
1245 1255 m 1,8,-1
 242 1255 l 1,9,-1
 307 1288 l 1,10,-1
 181 957 l 1,11,-1
 57 960 l 1,12,-1
 124 1480 l 1,13,-1
 213 1480 l 1,14,-1
 308 1374 l 1,15,-1
 192 1396 l 1,16,-1
 1295 1396 l 1,17,-1
 1179 1374 l 1,18,-1
 1274 1480 l 1,19,-1
 1363 1480 l 1,20,-1
 1430 960 l 1,21,-1
 1307 957 l 1,22,-1
 1180 1288 l 1,23,-1
 1245 1255 l 1,8,-1
EndSplineSet
EndChar

StartChar: U
Encoding: 85 85 25
Width: 1664
GlyphClass: 2
Flags: W
AnchorPoint: "Anchor-4" 838 0 basechar 0
AnchorPoint: "Anchor-3" 1035 0 basechar 0
AnchorPoint: "Anchor-2" 1465 1396 basechar 0
LayerCount: 2
Fore
SplineSet
1258 499 m 2,0,-1
 1258 1260 l 1,1,-1
 1071 1306 l 1,2,-1
 1071 1396 l 1,3,-1
 1596 1396 l 1,4,-1
 1596 1306 l 1,5,-1
 1409 1260 l 1,6,-1
 1409 511 l 2,7,8
 1409 338 1409 338 1343.5 219.5 c 128,-1,9
 1278 101 1278 101 1153 40.5 c 128,-1,10
 1028 -20 1028 -20 850 -20 c 0,11,12
 653 -20 653 -20 520.5 39.5 c 128,-1,13
 388 99 388 99 320.5 220.5 c 128,-1,14
 253 342 253 342 253 527 c 2,15,-1
 253 1260 l 1,16,-1
 67 1306 l 1,17,-1
 67 1396 l 1,18,-1
 643 1396 l 1,19,-1
 643 1306 l 1,20,-1
 457 1260 l 1,21,-1
 457 525 l 2,22,23
 457 393 457 393 502 308 c 128,-1,24
 547 223 547 223 637.5 182.5 c 128,-1,25
 728 142 728 142 864 142 c 0,26,27
 993 142 993 142 1080.5 179.5 c 128,-1,28
 1168 217 1168 217 1213 296 c 128,-1,29
 1258 375 1258 375 1258 499 c 2,0,-1
EndSplineSet
EndChar

StartChar: V
Encoding: 86 86 26
Width: 1553
GlyphClass: 2
Flags: W
AnchorPoint: "Anchor-4" 796 0 basechar 0
LayerCount: 2
Fore
SplineSet
174 1259 m 1,0,-1
 -2 1306 l 1,1,-1
 -2 1396 l 1,2,-1
 582 1396 l 1,3,-1
 582 1306 l 1,4,-1
 399 1260 l 1,5,-1
 863 95 l 1,6,-1
 810 95 l 1,7,-1
 1213 1260 l 1,8,-1
 1032 1306 l 1,9,-1
 1032 1396 l 1,10,-1
 1537 1396 l 1,11,-1
 1537 1306 l 1,12,-1
 1373 1260 l 1,13,-1
 903 -20 l 1,14,-1
 694 -20 l 1,15,-1
 174 1259 l 1,0,-1
EndSplineSet
EndChar

StartChar: W
Encoding: 87 87 27
Width: 2150
GlyphClass: 2
Flags: W
AnchorPoint: "Anchor-4" 1103 0 basechar 0
LayerCount: 2
Fore
SplineSet
1097 1204 m 1,0,-1
 697 -5 l 1,1,-1
 463 -5 l 1,2,-1
 190 1259 l 1,3,-1
 15 1306 l 1,4,-1
 15 1396 l 1,5,-1
 595 1396 l 1,6,-1
 595 1306 l 1,7,-1
 412 1260 l 1,8,-1
 647 130 l 1,9,-1
 607 130 l 1,10,-1
 1009 1401 l 1,11,-1
 1220 1401 l 1,12,-1
 1645 95 l 1,13,-1
 1577 86 l 1,14,-1
 1816 1260 l 1,15,-1
 1634 1306 l 1,16,-1
 1634 1396 l 1,17,-1
 2131 1396 l 1,18,-1
 2131 1306 l 1,19,-1
 1968 1260 l 1,20,-1
 1688 -5 l 1,21,-1
 1464 -5 l 1,22,-1
 1069 1195 l 1,23,-1
 1097 1204 l 1,0,-1
EndSplineSet
EndChar

StartChar: X
Encoding: 88 88 28
Width: 1614
GlyphClass: 2
Flags: W
AnchorPoint: "Anchor-4" 792 0 basechar 0
LayerCount: 2
Fore
SplineSet
824 663 m 1,0,-1
 381 136 l 1,1,-1
 550 89 l 1,2,-1
 550 0 l 1,3,-1
 43 0 l 1,4,-1
 43 89 l 1,5,-1
 207 136 l 1,6,-1
 743 754 l 1,7,-1
 792 797 l 1,8,-1
 1176 1260 l 1,9,-1
 1007 1306 l 1,10,-1
 1007 1396 l 1,11,-1
 1514 1396 l 1,12,-1
 1514 1306 l 1,13,-1
 1349 1260 l 1,14,-1
 867 700 l 1,15,-1
 824 663 l 1,0,-1
1148 136 m 1,16,-1
 742 639 l 1,17,-1
 716 669 l 1,18,-1
 233 1259 l 1,19,-1
 72 1306 l 1,20,-1
 72 1396 l 1,21,-1
 694 1396 l 1,22,-1
 694 1306 l 1,23,-1
 511 1260 l 1,24,-1
 864 819 l 1,25,-1
 886 794 l 1,26,-1
 1425 137 l 1,27,-1
 1587 89 l 1,28,-1
 1587 0 l 1,29,-1
 965 0 l 1,30,-1
 965 89 l 1,31,-1
 1148 136 l 1,16,-1
EndSplineSet
EndChar

StartChar: Y
Encoding: 89 89 29
Width: 1508
GlyphClass: 2
Flags: W
AnchorPoint: "Anchor-4" 775 0 basechar 0
LayerCount: 2
Fore
SplineSet
166 1259 m 1,0,-1
 5 1306 l 1,1,-1
 5 1396 l 1,2,-1
 607 1396 l 1,3,-1
 607 1306 l 1,4,-1
 426 1260 l 1,5,-1
 839 695 l 1,6,-1
 797 694 l 1,7,-1
 1165 1260 l 1,8,-1
 978 1306 l 1,9,-1
 978 1396 l 1,10,-1
 1480 1396 l 1,11,-1
 1480 1306 l 1,12,-1
 1331 1260 l 1,13,-1
 877 590 l 1,14,-1
 877 136 l 1,15,-1
 1064 89 l 1,16,-1
 1064 0 l 1,17,-1
 487 0 l 1,18,-1
 487 89 l 1,19,-1
 674 136 l 1,20,-1
 674 581 l 1,21,-1
 166 1259 l 1,0,-1
EndSplineSet
EndChar

StartChar: Z
Encoding: 90 90 30
Width: 1353
GlyphClass: 2
Flags: W
AnchorPoint: "Anchor-4" 664 0 basechar 0
LayerCount: 2
Fore
SplineSet
1212 1396 m 1,0,-1
 1212 1289 l 1,1,-1
 356 117 l 1,2,-1
 307 141 l 1,3,-1
 1037 141 l 1,4,-1
 1158 412 l 1,5,-1
 1270 410 l 1,6,-1
 1198 -66 l 1,7,-1
 1098 -66 l 1,8,-1
 1039 0 l 1,9,-1
 120 0 l 1,10,-1
 120 107 l 1,11,-1
 975 1278 l 1,12,-1
 1023 1255 l 1,13,-1
 321 1255 l 1,14,-1
 234 991 l 1,15,-1
 118 994 l 1,16,-1
 137 1463 l 1,17,-1
 225 1463 l 1,18,-1
 313 1396 l 1,19,-1
 1212 1396 l 1,0,-1
EndSplineSet
EndChar

StartChar: Aogonek
Encoding: 260 260 39
Width: 1581
GlyphClass: 1
Flags: W
LayerCount: 2
Fore
SplineSet
419 477 m 1,0,-1
 419 617 l 1,1,-1
 1123 617 l 1,2,-1
 1123 477 l 1,3,-1
 419 477 l 1,0,-1
1403 137 m 1,4,-1
 1579 89 l 1,5,-1
 1579 0 l 1,6,-1
 995 0 l 1,7,-1
 995 89 l 1,8,-1
 1177 136 l 1,9,-1
 711 1301 l 1,10,-1
 764 1301 l 1,11,-1
 341 136 l 1,12,-1
 521 89 l 1,13,-1
 521 0 l 1,14,-1
 15 0 l 1,15,-1
 15 89 l 1,16,-1
 179 136 l 1,17,-1
 671 1416 l 1,18,-1
 880 1416 l 1,19,-1
 1403 137 l 1,4,-1
1287 -91 m 2,20,21
 1254 -160 1254 -160 1243 -200.5 c 128,-1,22
 1232 -241 1232 -241 1232 -277 c 0,23,24
 1232 -322 1232 -322 1257 -346.5 c 128,-1,25
 1282 -371 1282 -371 1325 -371 c 0,26,27
 1355 -371 1355 -371 1381.5 -362 c 128,-1,28
 1408 -353 1408 -353 1450 -325 c 1,29,-1
 1457 -384 l 1,30,31
 1420 -420 1420 -420 1388.5 -441.5 c 128,-1,32
 1357 -463 1357 -463 1326 -472 c 128,-1,33
 1295 -481 1295 -481 1256 -481 c 0,34,35
 1170 -481 1170 -481 1128 -438.5 c 128,-1,36
 1086 -396 1086 -396 1086 -326 c 0,37,38
 1086 -294 1086 -294 1093.5 -262 c 128,-1,39
 1101 -230 1101 -230 1122 -189 c 128,-1,40
 1143 -148 1143 -148 1184 -89 c 2,41,-1
 1279 45 l 1,42,-1
 1354 45 l 1,43,-1
 1287 -91 l 2,20,21
EndSplineSet
EndChar

StartChar: AE
Encoding: 198 198 55
Width: 2231
GlyphClass: 2
Flags: W
AnchorPoint: "Anchor-4" 1198 0 basechar 0
LayerCount: 2
Fore
SplineSet
520 492 m 1,0,-1
 520 632 l 1,1,-1
 1177 632 l 1,2,-1
 1177 492 l 1,3,-1
 520 492 l 1,0,-1
1028 1396 m 1,4,-1
 1150 1396 l 1,5,-1
 1150 1327 l 1,6,-1
 335 136 l 1,7,-1
 515 89 l 1,8,-1
 515 0 l 1,9,-1
 -2 0 l 1,10,-1
 -2 89 l 1,11,-1
 162 136 l 1,12,-1
 1028 1396 l 1,4,-1
736 1306 m 1,13,-1
 736 1396 l 1,14,-1
 1052 1396 l 1,15,-1
 1002 1241 l 1,16,-1
 736 1306 l 1,13,-1
1808 984 m 1,17,-1
 1808 727 l 1,18,-1
 1808 470 l 1,19,-1
 1691 470 l 1,20,-1
 1673 658 l 1,21,-1
 1180 658 l 1,22,-1
 1180 799 l 1,23,-1
 1673 799 l 1,24,-1
 1691 984 l 1,25,-1
 1808 984 l 1,17,-1
2099 1022 m 1,26,-1
 1982 1020 l 1,27,-1
 1880 1323 l 1,28,-1
 1953 1255 l 1,29,-1
 1180 1255 l 1,30,-1
 1180 1396 l 1,31,-1
 1910 1396 l 1,32,-1
 1995 1460 l 1,33,-1
 2083 1460 l 1,34,-1
 2099 1022 l 1,26,-1
1876 71 m 1,35,-1
 2035 419 l 1,36,-1
 2146 417 l 1,37,-1
 2071 -69 l 1,38,-1
 1971 -69 l 1,39,-1
 1911 0 l 1,40,-1
 1180 0 l 1,41,-1
 1180 141 l 1,42,-1
 1939 141 l 1,43,-1
 1876 71 l 1,35,-1
909 0 m 1,44,-1
 909 89 l 1,45,-1
 1095 136 l 1,46,-1
 1095 1396 l 1,47,-1
 1299 1396 l 1,48,-1
 1299 0 l 1,49,-1
 909 0 l 1,44,-1
EndSplineSet
EndChar

StartChar: Ccedilla
Encoding: 199 199 57
Width: 1510
GlyphClass: 1
Flags: W
LayerCount: 2
Fore
SplineSet
911 123 m 0,0,1
 1000 123 1000 123 1092 140 c 128,-1,2
 1184 157 1184 157 1265 188 c 1,3,-1
 1148 90 l 1,4,-1
 1285 422 l 1,5,-1
 1400 422 l 1,6,-1
 1361 63 l 1,7,8
 1287 27 1287 27 1164 3.5 c 128,-1,9
 1041 -20 1041 -20 903 -20 c 0,10,11
 714 -20 714 -20 567 25.5 c 128,-1,12
 420 71 420 71 318.5 160.5 c 128,-1,13
 217 250 217 250 165 383 c 128,-1,14
 113 516 113 516 114 690 c 0,15,16
 117 921 117 921 211 1083 c 128,-1,17
 305 1245 305 1245 482 1330.5 c 128,-1,18
 659 1416 659 1416 910 1416 c 0,19,20
 1007 1416 1007 1416 1086.5 1401 c 128,-1,21
 1166 1386 1166 1386 1249 1362 c 1,22,-1
 1185 1357 l 1,23,-1
 1279 1463 l 1,24,-1
 1372 1463 l 1,25,-1
 1386 955 l 1,26,-1
 1259 953 l 1,27,-1
 1160 1265 l 1,28,-1
 1211 1193 l 1,29,30
 1124 1237 1124 1237 1052.5 1253 c 128,-1,31
 981 1269 981 1269 892 1269 c 0,32,33
 747 1269 747 1269 641.5 1235 c 128,-1,34
 536 1201 536 1201 467.5 1133.5 c 128,-1,35
 399 1066 399 1066 365 967 c 128,-1,36
 331 868 331 868 327 739 c 0,37,38
 324 587 324 587 364 472 c 128,-1,39
 404 357 404 357 481.5 279 c 128,-1,40
 559 201 559 201 668.5 162 c 128,-1,41
 778 123 778 123 911 123 c 0,0,1
741 -481 m 0,42,43
 652 -481 652 -481 618.5 -458 c 128,-1,44
 585 -435 585 -435 585 -397 c 0,45,46
 585 -368 585 -368 604 -351.5 c 128,-1,47
 623 -335 623 -335 643 -335 c 0,48,49
 656 -335 656 -335 674 -352 c 128,-1,50
 692 -369 692 -369 716 -386 c 128,-1,51
 740 -403 740 -403 772 -403 c 0,52,53
 824 -403 824 -403 849 -383 c 128,-1,54
 874 -363 874 -363 874 -325 c 0,55,56
 874 -298 874 -298 857.5 -279.5 c 128,-1,57
 841 -261 841 -261 794 -246 c 128,-1,58
 747 -231 747 -231 654 -216 c 1,59,-1
 654 -195 l 1,60,-1
 826 30 l 1,61,-1
 926 30 l 1,62,-1
 760 -183 l 1,63,-1
 752 -103 l 1,64,65
 855 -122 855 -122 909.5 -150 c 128,-1,66
 964 -178 964 -178 983.5 -213 c 128,-1,67
 1003 -248 1003 -248 1003 -289 c 0,68,69
 1003 -351 1003 -351 969.5 -394 c 128,-1,70
 936 -437 936 -437 877 -459 c 128,-1,71
 818 -481 818 -481 741 -481 c 0,42,43
EndSplineSet
EndChar

StartChar: Dcroat
Encoding: 272 272 63
Width: 1638
GlyphClass: 1
Flags: W
LayerCount: 2
Fore
SplineSet
107 642 m 1,0,-1
 107 763 l 1,1,-1
 820 763 l 1,2,-1
 820 642 l 1,3,-1
 107 642 l 1,0,-1
1310 715 m 0,4,5
 1310 990 1310 990 1159.5 1122.5 c 128,-1,6
 1009 1255 1009 1255 703 1255 c 2,7,-1
 379 1255 l 1,8,-1
 379 1396 l 1,9,-1
 766 1396 l 2,10,11
 1017 1396 1017 1396 1185.5 1320.5 c 128,-1,12
 1354 1245 1354 1245 1438.5 1096.5 c 128,-1,13
 1523 948 1523 948 1523 730 c 0,14,15
 1523 494 1523 494 1427 331 c 128,-1,16
 1331 168 1331 168 1159.5 84 c 128,-1,17
 988 0 988 0 760 0 c 2,18,-1
 379 0 l 1,19,-1
 379 141 l 1,20,-1
 748 141 l 2,21,22
 927 141 927 141 1053 200 c 128,-1,23
 1179 259 1179 259 1244.5 385.5 c 128,-1,24
 1310 512 1310 512 1310 715 c 0,4,5
107 0 m 1,25,-1
 107 89 l 1,26,-1
 294 136 l 1,27,-1
 294 1260 l 1,28,-1
 107 1306 l 1,29,-1
 107 1396 l 1,30,-1
 497 1396 l 1,31,-1
 497 0 l 1,32,-1
 107 0 l 1,25,-1
EndSplineSet
EndChar

StartChar: Eogonek
Encoding: 280 280 71
Width: 1426
GlyphClass: 1
Flags: W
LayerCount: 2
Fore
SplineSet
1003 984 m 1,0,-1
 1003 727 l 1,1,-1
 1003 470 l 1,2,-1
 886 470 l 1,3,-1
 868 658 l 1,4,-1
 375 658 l 1,5,-1
 375 799 l 1,6,-1
 868 799 l 1,7,-1
 886 984 l 1,8,-1
 1003 984 l 1,0,-1
1294 1022 m 1,9,-1
 1177 1020 l 1,10,-1
 1075 1323 l 1,11,-1
 1148 1255 l 1,12,-1
 375 1255 l 1,13,-1
 375 1396 l 1,14,-1
 1105 1396 l 1,15,-1
 1190 1460 l 1,16,-1
 1278 1460 l 1,17,-1
 1294 1022 l 1,9,-1
1071 71 m 1,18,-1
 1230 419 l 1,19,-1
 1341 417 l 1,20,-1
 1266 -69 l 1,21,-1
 1166 -69 l 1,22,-1
 1106 0 l 1,23,-1
 375 0 l 1,24,-1
 375 141 l 1,25,-1
 1134 141 l 1,26,-1
 1071 71 l 1,18,-1
104 0 m 1,27,-1
 104 89 l 1,28,-1
 290 136 l 1,29,-1
 290 1260 l 1,30,-1
 104 1306 l 1,31,-1
 104 1396 l 1,32,-1
 494 1396 l 1,33,-1
 494 0 l 1,34,-1
 104 0 l 1,27,-1
1056 -92 m 2,35,36
 1026 -137 1026 -137 1009.5 -169.5 c 128,-1,37
 993 -202 993 -202 986 -227.5 c 128,-1,38
 979 -253 979 -253 979 -277 c 0,39,40
 979 -322 979 -322 1004 -346.5 c 128,-1,41
 1029 -371 1029 -371 1072 -371 c 0,42,43
 1102 -371 1102 -371 1128.5 -362 c 128,-1,44
 1155 -353 1155 -353 1197 -325 c 1,45,-1
 1204 -384 l 1,46,47
 1167 -420 1167 -420 1135.5 -441.5 c 128,-1,48
 1104 -463 1104 -463 1073 -472 c 128,-1,49
 1042 -481 1042 -481 1003 -481 c 0,50,51
 917 -481 917 -481 875 -438.5 c 128,-1,52
 833 -396 833 -396 833 -326 c 0,53,54
 833 -294 833 -294 842 -262 c 128,-1,55
 851 -230 851 -230 877 -189 c 128,-1,56
 903 -148 903 -148 953 -91 c 2,57,-1
 1070 45 l 1,58,-1
 1144 45 l 1,59,-1
 1056 -92 l 2,35,36
EndSplineSet
EndChar

StartChar: Hbar
Encoding: 294 294 89
Width: 1747
GlyphClass: 1
Flags: W
LayerCount: 2
Fore
SplineSet
496 136 m 1,0,-1
 683 89 l 1,1,-1
 683 0 l 1,2,-1
 106 0 l 1,3,-1
 106 89 l 1,4,-1
 293 136 l 1,5,-1
 293 1260 l 1,6,-1
 106 1306 l 1,7,-1
 106 1396 l 1,8,-1
 683 1396 l 1,9,-1
 683 1306 l 1,10,-1
 496 1260 l 1,11,-1
 496 136 l 1,0,-1
1454 136 m 1,12,-1
 1641 89 l 1,13,-1
 1641 0 l 1,14,-1
 1064 0 l 1,15,-1
 1064 89 l 1,16,-1
 1251 136 l 1,17,-1
 1251 1260 l 1,18,-1
 1064 1306 l 1,19,-1
 1064 1396 l 1,20,-1
 1641 1396 l 1,21,-1
 1641 1306 l 1,22,-1
 1454 1260 l 1,23,-1
 1454 136 l 1,12,-1
106 985 m 1,24,-1
 106 1106 l 1,25,-1
 1641 1106 l 1,26,-1
 1641 985 l 1,27,-1
 106 985 l 1,24,-1
378 641 m 1,28,-1
 378 781 l 1,29,-1
 1370 781 l 1,30,-1
 1370 641 l 1,31,-1
 378 641 l 1,28,-1
EndSplineSet
EndChar

StartChar: Iogonek
Encoding: 302 302 97
Width: 784
GlyphClass: 1
Flags: W
LayerCount: 2
Fore
SplineSet
680 89 m 1,0,-1
 680 0 l 1,1,-1
 104 0 l 1,2,-1
 104 89 l 1,3,-1
 290 136 l 1,4,-1
 290 1260 l 1,5,-1
 104 1306 l 1,6,-1
 104 1396 l 1,7,-1
 680 1396 l 1,8,-1
 680 1306 l 1,9,-1
 494 1260 l 1,10,-1
 494 136 l 1,11,-1
 680 89 l 1,0,-1
389 -88 m 2,12,13
 366 -133 366 -133 353.5 -167 c 128,-1,14
 341 -201 341 -201 336.5 -227 c 128,-1,15
 332 -253 332 -253 332 -277 c 0,16,17
 332 -322 332 -322 357 -346.5 c 128,-1,18
 382 -371 382 -371 425 -371 c 0,19,20
 455 -371 455 -371 481.5 -362 c 128,-1,21
 508 -353 508 -353 550 -325 c 1,22,-1
 557 -384 l 1,23,24
 520 -420 520 -420 488.5 -441.5 c 128,-1,25
 457 -463 457 -463 426 -472 c 128,-1,26
 395 -481 395 -481 356 -481 c 0,27,28
 270 -481 270 -481 228 -438.5 c 128,-1,29
 186 -396 186 -396 186 -326 c 0,30,31
 186 -294 186 -294 193.5 -261.5 c 128,-1,32
 201 -229 201 -229 222.5 -187.5 c 128,-1,33
 244 -146 244 -146 285 -88 c 2,34,-1
 381 45 l 1,35,-1
 456 45 l 1,36,-1
 389 -88 l 2,12,13
EndSplineSet
EndChar

StartChar: Lslash
Encoding: 321 321 107
Width: 1364
GlyphClass: 1
Flags: W
LayerCount: 2
Fore
SplineSet
371 590 m 1,0,-1
 121 454 l 1,1,-1
 121 586 l 1,2,-1
 371 722 l 1,3,-1
 464 755 l 1,4,-1
 864 972 l 1,5,-1
 864 840 l 1,6,-1
 464 622 l 1,7,-1
 371 590 l 1,0,-1
1229 -69 m 1,8,-1
 1129 -69 l 1,9,-1
 1067 0 l 1,10,-1
 406 0 l 1,11,-1
 406 141 l 1,12,-1
 1119 141 l 1,13,-1
 1028 70 l 1,14,-1
 1199 470 l 1,15,-1
 1310 467 l 1,16,-1
 1229 -69 l 1,8,-1
525 1260 m 1,17,-1
 525 0 l 1,18,-1
 135 0 l 1,19,-1
 135 89 l 1,20,-1
 321 136 l 1,21,-1
 321 1260 l 1,22,-1
 135 1306 l 1,23,-1
 135 1396 l 1,24,-1
 711 1396 l 1,25,-1
 711 1306 l 1,26,-1
 525 1260 l 1,17,-1
EndSplineSet
EndChar

StartChar: Eng
Encoding: 330 330 114
Width: 1684
GlyphClass: 1
Flags: W
LayerCount: 2
Fore
SplineSet
1309 277 m 1,0,-1
 1301 -72 l 1,1,-1
 403 1272 l 1,2,-1
 441 1281 l 1,3,-1
 441 136 l 1,4,-1
 638 89 l 1,5,-1
 638 0 l 1,6,-1
 109 0 l 1,7,-1
 109 89 l 1,8,-1
 289 136 l 1,9,-1
 289 1256 l 1,10,-1
 108 1306 l 1,11,-1
 108 1396 l 1,12,-1
 560 1396 l 1,13,-1
 1309 277 l 1,0,-1
1416 -90 m 2,14,15
 1416 -226 1416 -226 1372 -312.5 c 128,-1,16
 1328 -399 1328 -399 1244.5 -440 c 128,-1,17
 1161 -481 1161 -481 1040 -481 c 0,18,19
 909 -481 909 -481 853 -442.5 c 128,-1,20
 797 -404 797 -404 797 -349 c 0,21,22
 797 -310 797 -310 819.5 -279.5 c 128,-1,23
 842 -249 842 -249 880 -249 c 0,24,25
 892 -249 892 -249 911.5 -261.5 c 128,-1,26
 931 -274 931 -274 956 -290 c 128,-1,27
 981 -306 981 -306 1010 -318.5 c 128,-1,28
 1039 -331 1039 -331 1070 -331 c 0,29,30
 1133 -331 1133 -331 1176 -310 c 128,-1,31
 1219 -289 1219 -289 1241.5 -236.5 c 128,-1,32
 1264 -184 1264 -184 1264 -92 c 2,33,-1
 1264 1260 l 1,34,-1
 1067 1306 l 1,35,-1
 1067 1396 l 1,36,-1
 1596 1396 l 1,37,-1
 1596 1306 l 1,38,-1
 1416 1260 l 1,39,-1
 1416 -90 l 2,14,15
EndSplineSet
EndChar

StartChar: Ohorn
Encoding: 416 416 123
Width: 1657
GlyphClass: 2
Flags: W
AnchorPoint: "Anchor-4" 826 0 basechar 0
LayerCount: 2
Fore
SplineSet
835 128 m 0,0,1
 995 128 995 128 1104 193 c 128,-1,2
 1213 258 1213 258 1269.5 379 c 128,-1,3
 1326 500 1326 500 1326 666 c 0,4,5
 1326 856 1326 856 1267 990.5 c 128,-1,6
 1208 1125 1208 1125 1094.5 1196 c 128,-1,7
 981 1267 981 1267 817 1267 c 0,8,9
 657 1267 657 1267 548 1202 c 128,-1,10
 439 1137 439 1137 382.5 1017 c 128,-1,11
 326 897 326 897 326 729 c 0,12,13
 326 541 326 541 385 406 c 128,-1,14
 444 271 444 271 558 199.5 c 128,-1,15
 672 128 672 128 835 128 c 0,0,1
824 1416 m 0,16,17
 895 1416 895 1416 950.5 1410 c 128,-1,18
 1006 1404 1006 1404 1057.5 1397.5 c 128,-1,19
 1109 1391 1109 1391 1164 1391 c 0,20,21
 1256 1391 1256 1391 1296.5 1419.5 c 128,-1,22
 1337 1448 1337 1448 1337 1493 c 0,23,24
 1337 1523 1337 1523 1328 1545 c 128,-1,25
 1319 1567 1319 1567 1310 1582.5 c 128,-1,26
 1301 1598 1301 1598 1301 1607 c 0,27,28
 1301 1636 1301 1636 1329 1656 c 128,-1,29
 1357 1676 1357 1676 1395 1676 c 0,30,31
 1444 1676 1444 1676 1478 1646 c 128,-1,32
 1512 1616 1512 1616 1512 1548 c 0,33,34
 1512 1434 1512 1434 1436.5 1371 c 128,-1,35
 1361 1308 1361 1308 1204 1307 c 1,36,-1
 1204 1321 l 1,37,38
 1313 1261 1313 1261 1387.5 1166.5 c 128,-1,39
 1462 1072 1462 1072 1500.5 952.5 c 128,-1,40
 1539 833 1539 833 1539 700 c 0,41,42
 1539 541 1539 541 1489 409.5 c 128,-1,43
 1439 278 1439 278 1345.5 181.5 c 128,-1,44
 1252 85 1252 85 1121 32.5 c 128,-1,45
 990 -20 990 -20 828 -20 c 0,46,47
 665 -20 665 -20 533.5 32.5 c 128,-1,48
 402 85 402 85 307.5 180.5 c 128,-1,49
 213 276 213 276 163 407 c 128,-1,50
 113 538 113 538 113 696 c 0,51,52
 113 855 113 855 163 986.5 c 128,-1,53
 213 1118 213 1118 306.5 1214.5 c 128,-1,54
 400 1311 400 1311 531 1363.5 c 128,-1,55
 662 1416 662 1416 824 1416 c 0,16,17
EndSplineSet
EndChar

StartChar: uni01EA
Encoding: 490 490 124
Width: 1652
GlyphClass: 1
Flags: W
LayerCount: 2
Fore
SplineSet
824 1416 m 0,0,1
 987 1416 987 1416 1118.5 1363.5 c 128,-1,2
 1250 1311 1250 1311 1344.5 1215.5 c 128,-1,3
 1439 1120 1439 1120 1489 989 c 128,-1,4
 1539 858 1539 858 1539 700 c 0,5,6
 1539 541 1539 541 1489 409.5 c 128,-1,7
 1439 278 1439 278 1345.5 181.5 c 128,-1,8
 1252 85 1252 85 1121 32.5 c 128,-1,9
 990 -20 990 -20 828 -20 c 0,10,11
 665 -20 665 -20 533.5 32.5 c 128,-1,12
 402 85 402 85 307.5 180.5 c 128,-1,13
 213 276 213 276 163 407 c 128,-1,14
 113 538 113 538 113 696 c 0,15,16
 113 855 113 855 163 986.5 c 128,-1,17
 213 1118 213 1118 306.5 1214.5 c 128,-1,18
 400 1311 400 1311 531 1363.5 c 128,-1,19
 662 1416 662 1416 824 1416 c 0,0,1
835 128 m 0,20,21
 995 128 995 128 1104 193 c 128,-1,22
 1213 258 1213 258 1269.5 379 c 128,-1,23
 1326 500 1326 500 1326 666 c 0,24,25
 1326 856 1326 856 1267 990.5 c 128,-1,26
 1208 1125 1208 1125 1094.5 1196 c 128,-1,27
 981 1267 981 1267 817 1267 c 0,28,29
 657 1267 657 1267 548 1202 c 128,-1,30
 439 1137 439 1137 382.5 1017 c 128,-1,31
 326 897 326 897 326 729 c 0,32,33
 326 541 326 541 385 406 c 128,-1,34
 444 271 444 271 558 199.5 c 128,-1,35
 672 128 672 128 835 128 c 0,20,21
866 -91 m 2,36,37
 842 -136 842 -136 829.5 -168.5 c 128,-1,38
 817 -201 817 -201 812.5 -227 c 128,-1,39
 808 -253 808 -253 808 -277 c 0,40,41
 808 -322 808 -322 832.5 -346.5 c 128,-1,42
 857 -371 857 -371 901 -371 c 0,43,44
 930 -371 930 -371 956.5 -362 c 128,-1,45
 983 -353 983 -353 1025 -325 c 1,46,-1
 1033 -384 l 1,47,48
 995 -420 995 -420 964 -441.5 c 128,-1,49
 933 -463 933 -463 901.5 -472 c 128,-1,50
 870 -481 870 -481 832 -481 c 0,51,52
 746 -481 746 -481 704 -438.5 c 128,-1,53
 662 -396 662 -396 662 -326 c 0,54,55
 662 -294 662 -294 669 -261.5 c 128,-1,56
 676 -229 676 -229 697.5 -188 c 128,-1,57
 719 -147 719 -147 763 -89 c 2,58,-1
 864 45 l 1,59,-1
 939 45 l 1,60,-1
 866 -91 l 2,36,37
EndSplineSet
EndChar

StartChar: Oslash
Encoding: 216 216 142
Width: 1689
GlyphClass: 2
Flags: W
AnchorPoint: "Anchor-4" 844 0 basechar 0
LayerCount: 2
Fore
SplineSet
406 298 m 1,0,-1
 1206 1189 l 1,1,-1
 1247 1239 l 1,2,-1
 1388 1396 l 1,3,-1
 1558 1396 l 1,4,-1
 1339 1152 l 1,5,-1
 1286 1098 l 1,6,-1
 485 206 l 1,7,-1
 444 157 l 1,8,-1
 303 0 l 1,9,-1
 134 0 l 1,10,-1
 353 244 l 1,11,-1
 406 298 l 1,0,-1
843 1416 m 0,12,13
 1005 1416 1005 1416 1137 1363.5 c 128,-1,14
 1269 1311 1269 1311 1363 1215.5 c 128,-1,15
 1457 1120 1457 1120 1507.5 989 c 128,-1,16
 1558 858 1558 858 1558 700 c 0,17,18
 1558 541 1558 541 1507.5 409.5 c 128,-1,19
 1457 278 1457 278 1364 181.5 c 128,-1,20
 1271 85 1271 85 1140 32.5 c 128,-1,21
 1009 -20 1009 -20 846 -20 c 0,22,23
 684 -20 684 -20 552 32.5 c 128,-1,24
 420 85 420 85 326 180.5 c 128,-1,25
 232 276 232 276 181.5 407 c 128,-1,26
 131 538 131 538 131 696 c 0,27,28
 131 855 131 855 181.5 986.5 c 128,-1,29
 232 1118 232 1118 325 1214.5 c 128,-1,30
 418 1311 418 1311 549 1363.5 c 128,-1,31
 680 1416 680 1416 843 1416 c 0,12,13
853 128 m 0,32,33
 1013 128 1013 128 1122.5 193 c 128,-1,34
 1232 258 1232 258 1288.5 379 c 128,-1,35
 1345 500 1345 500 1345 666 c 0,36,37
 1345 856 1345 856 1285.5 990.5 c 128,-1,38
 1226 1125 1226 1125 1112.5 1196 c 128,-1,39
 999 1267 999 1267 836 1267 c 0,40,41
 676 1267 676 1267 566.5 1202 c 128,-1,42
 457 1137 457 1137 400.5 1017 c 128,-1,43
 344 897 344 897 344 729 c 0,44,45
 344 541 344 541 403.5 406 c 128,-1,46
 463 271 463 271 576.5 199.5 c 128,-1,47
 690 128 690 128 853 128 c 0,32,33
EndSplineSet
EndChar

StartChar: OE
Encoding: 338 338 144
Width: 2269
GlyphClass: 1
Flags: W
LayerCount: 2
Fore
SplineSet
1846 984 m 1,0,-1
 1846 727 l 1,1,-1
 1846 470 l 1,2,-1
 1729 470 l 1,3,-1
 1711 658 l 1,4,-1
 1218 658 l 1,5,-1
 1218 799 l 1,6,-1
 1711 799 l 1,7,-1
 1729 984 l 1,8,-1
 1846 984 l 1,0,-1
1133 1396 m 1,9,-1
 1337 1396 l 1,10,-1
 1337 0 l 1,11,-1
 1133 0 l 1,12,-1
 1133 1396 l 1,9,-1
875 0 m 2,13,14
 625 0 625 0 456 76.5 c 128,-1,15
 287 153 287 153 201 302.5 c 128,-1,16
 115 452 115 452 115 670 c 0,17,18
 115 847 115 847 170.5 982.5 c 128,-1,19
 226 1118 226 1118 328.5 1210 c 128,-1,20
 431 1302 431 1302 571 1349 c 128,-1,21
 711 1396 711 1396 881 1396 c 2,22,-1
 1948 1396 l 1,23,-1
 2033 1460 l 1,24,-1
 2121 1460 l 1,25,-1
 2137 1022 l 1,26,-1
 2020 1020 l 1,27,-1
 1918 1323 l 1,28,-1
 1991 1255 l 1,29,-1
 893 1255 l 2,30,31
 715 1255 715 1255 588.5 1195.5 c 128,-1,32
 462 1136 462 1136 395 1009.5 c 128,-1,33
 328 883 328 883 328 680 c 0,34,35
 328 496 328 496 396 376.5 c 128,-1,36
 464 257 464 257 600 199 c 128,-1,37
 736 141 736 141 938 141 c 2,38,-1
 1977 141 l 1,39,-1
 1914 71 l 1,40,-1
 2073 419 l 1,41,-1
 2184 417 l 1,42,-1
 2109 -69 l 1,43,-1
 2009 -69 l 1,44,-1
 1949 0 l 1,45,-1
 875 0 l 2,13,14
EndSplineSet
EndChar

StartChar: Scedilla
Encoding: 350 350 152
Width: 1255
GlyphClass: 1
Flags: W
LayerCount: 2
Fore
SplineSet
1024 1330 m 1,0,-1
 879 1357 l 1,1,-1
 974 1463 l 1,2,-1
 1069 1463 l 1,3,-1
 1084 977 l 1,4,-1
 955 975 l 1,5,-1
 851 1272 l 1,6,-1
 908 1209 l 1,7,8
 846 1251 846 1251 782 1267.5 c 128,-1,9
 718 1284 718 1284 643 1284 c 0,10,11
 500 1284 500 1284 418 1234 c 128,-1,12
 336 1184 336 1184 336 1071 c 0,13,14
 336 1004 336 1004 364.5 961.5 c 128,-1,15
 393 919 393 919 443 892 c 128,-1,16
 493 865 493 865 558.5 847.5 c 128,-1,17
 624 830 624 830 698 812 c 0,18,19
 772 795 772 795 848 772 c 128,-1,20
 924 749 924 749 988.5 706 c 128,-1,21
 1053 663 1053 663 1092.5 589.5 c 128,-1,22
 1132 516 1132 516 1132 399 c 0,23,24
 1132 252 1132 252 1063 159.5 c 128,-1,25
 994 67 994 67 867 23.5 c 128,-1,26
 740 -20 740 -20 565 -20 c 0,27,28
 451 -20 451 -20 361 -9 c 128,-1,29
 271 2 271 2 179 34 c 1,30,-1
 112 430 l 1,31,-1
 244 430 l 1,32,-1
 427 43 l 1,33,-1
 227 194 l 1,34,35
 314 152 314 152 387.5 134 c 128,-1,36
 461 116 461 116 561 116 c 0,37,38
 686 116 686 116 770 141 c 128,-1,39
 854 166 854 166 895.5 221 c 128,-1,40
 937 276 937 276 937 365 c 0,41,42
 937 440 937 440 903 487 c 128,-1,43
 869 534 869 534 811 562.5 c 128,-1,44
 753 591 753 591 682 610 c 128,-1,45
 611 629 611 629 537 648 c 256,46,47
 463 667 463 667 393 692.5 c 128,-1,48
 323 718 323 718 267.5 760.5 c 128,-1,49
 212 803 212 803 179 870 c 128,-1,50
 146 937 146 937 146 1038 c 0,51,52
 146 1162 146 1162 206 1246 c 128,-1,53
 266 1330 266 1330 380.5 1373 c 128,-1,54
 495 1416 495 1416 657 1416 c 0,55,56
 760 1416 760 1416 847 1396 c 128,-1,57
 934 1376 934 1376 1024 1330 c 1,0,-1
546 -481 m 0,58,59
 457 -481 457 -481 424 -458 c 128,-1,60
 391 -435 391 -435 391 -397 c 0,61,62
 391 -368 391 -368 409.5 -351.5 c 128,-1,63
 428 -335 428 -335 448 -335 c 0,64,65
 461 -335 461 -335 479 -352 c 128,-1,66
 497 -369 497 -369 521.5 -386 c 128,-1,67
 546 -403 546 -403 577 -403 c 0,68,69
 629 -403 629 -403 654.5 -383 c 128,-1,70
 680 -363 680 -363 680 -325 c 0,71,72
 680 -298 680 -298 663.5 -279.5 c 128,-1,73
 647 -261 647 -261 599.5 -246 c 128,-1,74
 552 -231 552 -231 459 -216 c 1,75,-1
 459 -195 l 1,76,-1
 631 30 l 1,77,-1
 731 30 l 1,78,-1
 565 -183 l 1,79,-1
 557 -103 l 1,80,81
 660 -122 660 -122 714.5 -150 c 128,-1,82
 769 -178 769 -178 789 -213 c 128,-1,83
 809 -248 809 -248 809 -289 c 0,84,85
 809 -351 809 -351 775.5 -394 c 128,-1,86
 742 -437 742 -437 682.5 -459 c 128,-1,87
 623 -481 623 -481 546 -481 c 0,58,59
EndSplineSet
Substitution2: "'locl' Localized Forms in Latin lookup 1 subtable" uni0218
Substitution2: "'locl' Localized Forms in Latin lookup 0 subtable" uni0218
EndChar

StartChar: uni0162
Encoding: 354 354 156
Width: 1487
GlyphClass: 1
Flags: W
LayerCount: 2
Fore
SplineSet
642 1332 m 1,0,-1
 845 1332 l 1,1,-1
 845 136 l 1,2,-1
 1047 89 l 1,3,-1
 1047 0 l 1,4,-1
 440 0 l 1,5,-1
 440 89 l 1,6,-1
 642 136 l 1,7,-1
 642 1332 l 1,0,-1
1245 1255 m 1,8,-1
 242 1255 l 1,9,-1
 307 1288 l 1,10,-1
 181 957 l 1,11,-1
 57 960 l 1,12,-1
 124 1480 l 1,13,-1
 213 1480 l 1,14,-1
 308 1374 l 1,15,-1
 192 1396 l 1,16,-1
 1295 1396 l 1,17,-1
 1179 1374 l 1,18,-1
 1274 1480 l 1,19,-1
 1363 1480 l 1,20,-1
 1430 960 l 1,21,-1
 1307 957 l 1,22,-1
 1180 1288 l 1,23,-1
 1245 1255 l 1,8,-1
658 -481 m 0,24,25
 569 -481 569 -481 535.5 -458 c 128,-1,26
 502 -435 502 -435 502 -397 c 0,27,28
 502 -368 502 -368 521 -351.5 c 128,-1,29
 540 -335 540 -335 560 -335 c 0,30,31
 573 -335 573 -335 591 -352 c 128,-1,32
 609 -369 609 -369 633 -386 c 128,-1,33
 657 -403 657 -403 689 -403 c 0,34,35
 740 -403 740 -403 765.5 -383 c 128,-1,36
 791 -363 791 -363 791 -325 c 0,37,38
 791 -298 791 -298 774.5 -279.5 c 128,-1,39
 758 -261 758 -261 711 -246 c 128,-1,40
 664 -231 664 -231 571 -216 c 1,41,-1
 571 -195 l 1,42,-1
 743 30 l 1,43,-1
 842 30 l 1,44,-1
 677 -183 l 1,45,-1
 669 -103 l 1,46,47
 772 -122 772 -122 826 -150 c 128,-1,48
 880 -178 880 -178 900 -213 c 128,-1,49
 920 -248 920 -248 920 -289 c 0,50,51
 920 -351 920 -351 886.5 -394 c 128,-1,52
 853 -437 853 -437 793.5 -459 c 128,-1,53
 734 -481 734 -481 658 -481 c 0,24,25
EndSplineSet
EndChar

StartChar: Tbar
Encoding: 358 358 158
Width: 1488
GlyphClass: 1
Flags: W
LayerCount: 2
Fore
SplineSet
354 651 m 1,0,-1
 354 772 l 1,1,-1
 1134 772 l 1,2,-1
 1134 651 l 1,3,-1
 354 651 l 1,0,-1
642 1332 m 1,4,-1
 846 1332 l 1,5,-1
 846 136 l 1,6,-1
 1047 89 l 1,7,-1
 1047 0 l 1,8,-1
 441 0 l 1,9,-1
 441 89 l 1,10,-1
 642 136 l 1,11,-1
 642 1332 l 1,4,-1
1245 1255 m 1,12,-1
 243 1255 l 1,13,-1
 308 1288 l 1,14,-1
 181 957 l 1,15,-1
 58 960 l 1,16,-1
 125 1480 l 1,17,-1
 213 1480 l 1,18,-1
 309 1374 l 1,19,-1
 192 1396 l 1,20,-1
 1296 1396 l 1,21,-1
 1180 1374 l 1,22,-1
 1275 1480 l 1,23,-1
 1363 1480 l 1,24,-1
 1430 960 l 1,25,-1
 1307 957 l 1,26,-1
 1180 1288 l 1,27,-1
 1245 1255 l 1,12,-1
EndSplineSet
EndChar

StartChar: Uogonek
Encoding: 370 370 169
Width: 1664
GlyphClass: 1
Flags: W
LayerCount: 2
Fore
SplineSet
1258 499 m 2,0,-1
 1258 1260 l 1,1,-1
 1071 1306 l 1,2,-1
 1071 1396 l 1,3,-1
 1596 1396 l 1,4,-1
 1596 1306 l 1,5,-1
 1409 1260 l 1,6,-1
 1409 511 l 2,7,8
 1409 338 1409 338 1343.5 219.5 c 128,-1,9
 1278 101 1278 101 1153 40.5 c 128,-1,10
 1028 -20 1028 -20 850 -20 c 0,11,12
 653 -20 653 -20 520.5 39.5 c 128,-1,13
 388 99 388 99 320.5 220.5 c 128,-1,14
 253 342 253 342 253 527 c 2,15,-1
 253 1260 l 1,16,-1
 67 1306 l 1,17,-1
 67 1396 l 1,18,-1
 643 1396 l 1,19,-1
 643 1306 l 1,20,-1
 457 1260 l 1,21,-1
 457 525 l 2,22,23
 457 393 457 393 502 308 c 128,-1,24
 547 223 547 223 637.5 182.5 c 128,-1,25
 728 142 728 142 864 142 c 0,26,27
 993 142 993 142 1080.5 179.5 c 128,-1,28
 1168 217 1168 217 1213 296 c 128,-1,29
 1258 375 1258 375 1258 499 c 2,0,-1
883 -92 m 2,30,31
 861 -137 861 -137 848.5 -170 c 128,-1,32
 836 -203 836 -203 830.5 -228 c 128,-1,33
 825 -253 825 -253 825 -277 c 0,34,35
 825 -322 825 -322 850 -346.5 c 128,-1,36
 875 -371 875 -371 918 -371 c 0,37,38
 948 -371 948 -371 974.5 -362 c 128,-1,39
 1001 -353 1001 -353 1043 -325 c 1,40,-1
 1050 -384 l 1,41,42
 1013 -420 1013 -420 981.5 -441.5 c 128,-1,43
 950 -463 950 -463 919 -472 c 128,-1,44
 888 -481 888 -481 850 -481 c 0,45,46
 763 -481 763 -481 721.5 -438.5 c 128,-1,47
 680 -396 680 -396 680 -326 c 0,48,49
 680 -294 680 -294 688 -262.5 c 128,-1,50
 696 -231 696 -231 718 -190.5 c 128,-1,51
 740 -150 740 -150 781 -90 c 2,52,-1
 874 45 l 1,53,-1
 949 45 l 1,54,-1
 883 -92 l 2,30,31
EndSplineSet
EndChar

StartChar: Uhorn
Encoding: 431 431 170
Width: 1695
GlyphClass: 2
Flags: W
AnchorPoint: "Anchor-4" 838 0 basechar 0
LayerCount: 2
Fore
SplineSet
1634 1493 m 0,0,1
 1634 1523 1634 1523 1625 1544.5 c 128,-1,2
 1616 1566 1616 1566 1606.5 1581.5 c 128,-1,3
 1597 1597 1597 1597 1597 1607 c 0,4,5
 1597 1636 1597 1636 1625.5 1656 c 128,-1,6
 1654 1676 1654 1676 1692 1676 c 0,7,8
 1741 1676 1741 1676 1774.5 1646 c 128,-1,9
 1808 1616 1808 1616 1808 1548 c 0,10,11
 1808 1473 1808 1473 1770 1414.5 c 128,-1,12
 1732 1356 1732 1356 1644.5 1318.5 c 128,-1,13
 1557 1281 1557 1281 1409 1269 c 1,14,-1
 1409 511 l 2,15,16
 1409 338 1409 338 1343.5 219.5 c 128,-1,17
 1278 101 1278 101 1153 40.5 c 128,-1,18
 1028 -20 1028 -20 850 -20 c 0,19,20
 653 -20 653 -20 520.5 39.5 c 128,-1,21
 388 99 388 99 320.5 220.5 c 128,-1,22
 253 342 253 342 253 527 c 2,23,-1
 253 1260 l 1,24,-1
 67 1306 l 1,25,-1
 67 1396 l 1,26,-1
 643 1396 l 1,27,-1
 643 1306 l 1,28,-1
 457 1260 l 1,29,-1
 457 525 l 2,30,31
 457 393 457 393 502 308 c 128,-1,32
 547 223 547 223 637.5 182.5 c 128,-1,33
 728 142 728 142 864 142 c 0,34,35
 993 142 993 142 1080.5 179.5 c 128,-1,36
 1168 217 1168 217 1213 296 c 128,-1,37
 1258 375 1258 375 1258 499 c 2,38,-1
 1258 1260 l 1,39,-1
 1071 1306 l 1,40,-1
 1071 1396 l 1,41,-1
 1494 1396 l 2,42,43
 1546 1396 1546 1396 1576.5 1408 c 128,-1,44
 1607 1420 1607 1420 1620.5 1442 c 128,-1,45
 1634 1464 1634 1464 1634 1493 c 0,0,1
EndSplineSet
EndChar

StartChar: Thorn
Encoding: 222 222 195
Width: 1377
GlyphClass: 1
Flags: W
LayerCount: 2
Fore
SplineSet
1068 706 m 0,0,1
 1068 796 1068 796 1033.5 856 c 128,-1,2
 999 916 999 916 914.5 946.5 c 128,-1,3
 830 977 830 977 679 977 c 2,4,-1
 379 977 l 1,5,-1
 382 1117 l 1,6,-1
 749 1117 l 2,7,8
 945 1117 945 1117 1060.5 1066.5 c 128,-1,9
 1176 1016 1176 1016 1227 924.5 c 128,-1,10
 1278 833 1278 833 1278 712 c 256,11,12
 1278 591 1278 591 1227.5 495.5 c 128,-1,13
 1177 400 1177 400 1066.5 345 c 128,-1,14
 956 290 956 290 775 290 c 2,15,-1
 382 290 l 1,16,-1
 379 430 l 1,17,-1
 773 430 l 2,18,19
 864 430 864 430 930 459.5 c 128,-1,20
 996 489 996 489 1032 549.5 c 128,-1,21
 1068 610 1068 610 1068 706 c 0,0,1
680 89 m 1,22,-1
 680 0 l 1,23,-1
 104 0 l 1,24,-1
 104 89 l 1,25,-1
 290 136 l 1,26,-1
 290 1260 l 1,27,-1
 104 1306 l 1,28,-1
 104 1396 l 1,29,-1
 680 1396 l 1,30,-1
 680 1306 l 1,31,-1
 494 1260 l 1,32,-1
 494 136 l 1,33,-1
 680 89 l 1,22,-1
EndSplineSet
EndChar

StartChar: uni018F
Encoding: 399 399 197
Width: 1483
GlyphClass: 1
Flags: W
LayerCount: 2
Fore
SplineSet
300 547 m 1,0,-1
 337 596 l 1,1,2
 341 431 341 431 387.5 328 c 128,-1,3
 434 225 434 225 515.5 176.5 c 128,-1,4
 597 128 597 128 710 128 c 0,5,6
 813 128 813 128 895.5 159.5 c 128,-1,7
 978 191 978 191 1036.5 254 c 128,-1,8
 1095 317 1095 317 1126 413.5 c 128,-1,9
 1157 510 1157 510 1157 639 c 0,10,11
 1157 846 1157 846 1095.5 977.5 c 128,-1,12
 1034 1109 1034 1109 911 1171 c 128,-1,13
 788 1233 788 1233 603 1233 c 0,14,15
 511 1233 511 1233 429 1217.5 c 128,-1,16
 347 1202 347 1202 274 1176 c 128,-1,17
 201 1150 201 1150 135 1118 c 1,18,-1
 124 1223 l 1,19,20
 215 1287 215 1287 313 1329.5 c 128,-1,21
 411 1372 411 1372 508.5 1394 c 128,-1,22
 606 1416 606 1416 693 1416 c 0,23,24
 899 1416 899 1416 1050.5 1333 c 128,-1,25
 1202 1250 1202 1250 1285.5 1093.5 c 128,-1,26
 1369 937 1369 937 1369 716 c 0,27,28
 1369 552 1369 552 1322 417 c 128,-1,29
 1275 282 1275 282 1187.5 184 c 128,-1,30
 1100 86 1100 86 978 33 c 128,-1,31
 856 -20 856 -20 707 -20 c 0,32,33
 499 -20 499 -20 370.5 62 c 128,-1,34
 242 144 242 144 180.5 302 c 128,-1,35
 119 460 119 460 114 687 c 1,36,-1
 1258 687 l 1,37,-1
 1258 547 l 1,38,-1
 300 547 l 1,0,-1
EndSplineSet
EndChar

StartChar: a
Encoding: 97 97 204
Width: 1111
GlyphClass: 2
Flags: W
AnchorPoint: "Anchor-4" 555 0 basechar 0
AnchorPoint: "Anchor-3" 1103 0 basechar 0
AnchorPoint: "Anchor-0" 523 981 basechar 0
LayerCount: 2
Fore
SplineSet
826 631 m 1,0,-1
 795 514 l 1,1,2
 637 491 637 491 541.5 466.5 c 128,-1,3
 446 442 446 442 396 414 c 128,-1,4
 346 386 346 386 329 352.5 c 128,-1,5
 312 319 312 319 312 276 c 0,6,7
 312 204 312 204 356 167 c 128,-1,8
 400 130 400 130 485 130 c 0,9,10
 548 130 548 130 599.5 154 c 128,-1,11
 651 178 651 178 681 218.5 c 128,-1,12
 711 259 711 259 711 309 c 2,13,-1
 711 670 l 2,14,15
 711 774 711 774 665.5 823.5 c 128,-1,16
 620 873 620 873 503 873 c 0,17,18
 447 873 447 873 399 866.5 c 128,-1,19
 351 860 351 860 308 848 c 1,20,-1
 378 914 l 1,21,22
 370 876 370 876 362 845.5 c 128,-1,23
 354 815 354 815 345 790.5 c 128,-1,24
 336 766 336 766 325 744 c 0,25,26
 308 710 308 710 281.5 700.5 c 128,-1,27
 255 691 255 691 219 691 c 0,28,29
 165 691 165 691 136.5 712.5 c 128,-1,30
 108 734 108 734 108 764 c 0,31,32
 108 798 108 798 142.5 838 c 128,-1,33
 177 878 177 878 238 915 c 128,-1,34
 299 952 299 952 382 975.5 c 128,-1,35
 465 999 465 999 562 999 c 0,36,37
 685 999 685 999 758 964 c 128,-1,38
 831 929 831 929 863.5 864 c 128,-1,39
 896 799 896 799 896 710 c 2,40,-1
 896 240 l 2,41,42
 896 203 896 203 908 179.5 c 128,-1,43
 920 156 920 156 943.5 145 c 128,-1,44
 967 134 967 134 1001 134 c 0,45,46
 1024 134 1024 134 1050 139 c 128,-1,47
 1076 144 1076 144 1103 152 c 1,48,-1
 1103 73 l 1,49,50
 1057 28 1057 28 1003.5 6 c 128,-1,51
 950 -16 950 -16 902 -16 c 0,52,53
 843 -16 843 -16 801 12.5 c 128,-1,54
 759 41 759 41 736.5 98.5 c 128,-1,55
 714 156 714 156 711 244 c 1,56,-1
 719 247 l 1,57,58
 706 166 706 166 665 106 c 128,-1,59
 624 46 624 46 558.5 13 c 128,-1,60
 493 -20 493 -20 407 -20 c 0,61,62
 266 -20 266 -20 187.5 48 c 128,-1,63
 109 116 109 116 109 241 c 0,64,65
 109 313 109 313 137.5 370.5 c 128,-1,66
 166 428 166 428 242.5 474.5 c 128,-1,67
 319 521 319 521 460 559 c 128,-1,68
 601 597 601 597 826 631 c 1,0,-1
EndSplineSet
Substitution2: "Single Substitution lookup 3 subtable" ordfeminine
EndChar

StartChar: b
Encoding: 98 98 205
Width: 1255
GlyphClass: 2
Flags: W
AnchorPoint: "Anchor-4" 613 0 basechar 0
LayerCount: 2
Fore
SplineSet
305 189 m 1,0,-1
 379 189 l 1,1,-1
 233 -4 l 1,2,-1
 124 -1 l 1,3,-1
 181 276 l 1,4,-1
 181 1247 l 1,5,6
 168 1255 168 1255 135 1269 c 128,-1,7
 102 1283 102 1283 60 1299.5 c 128,-1,8
 18 1316 18 1316 -21 1330 c 1,9,-1
 -21 1394 l 1,10,-1
 347 1468 l 1,11,-1
 384 1468 l 1,12,-1
 366 1273 l 1,13,-1
 366 361 l 2,14,15
 366 277 366 277 397.5 220.5 c 128,-1,16
 429 164 429 164 490 135 c 128,-1,17
 551 106 551 106 640 106 c 0,18,19
 738 106 738 106 808.5 151.5 c 128,-1,20
 879 197 879 197 916.5 285 c 128,-1,21
 954 373 954 373 954 502 c 0,22,23
 954 613 954 613 916.5 688.5 c 128,-1,24
 879 764 879 764 806 802 c 128,-1,25
 733 840 733 840 628 840 c 0,26,27
 566 840 566 840 507 830 c 128,-1,28
 448 820 448 820 392 800.5 c 128,-1,29
 336 781 336 781 284 753 c 1,30,-1
 284 851 l 1,31,32
 367 893 367 893 432 922 c 128,-1,33
 497 951 497 951 547 968.5 c 128,-1,34
 597 986 597 986 636.5 993.5 c 128,-1,35
 676 1001 676 1001 707 1001 c 0,36,37
 851 1001 851 1001 951.5 944 c 128,-1,38
 1052 887 1052 887 1105 782 c 128,-1,39
 1158 677 1158 677 1158 532 c 0,40,41
 1158 403 1158 403 1122 300.5 c 128,-1,42
 1086 198 1086 198 1020 126 c 128,-1,43
 954 54 954 54 862.5 16 c 128,-1,44
 771 -22 771 -22 660 -22 c 0,45,46
 578 -22 578 -22 512 0.5 c 128,-1,47
 446 23 446 23 394.5 69.5 c 128,-1,48
 343 116 343 116 305 189 c 1,0,-1
EndSplineSet
EndChar

StartChar: c
Encoding: 99 99 206
Width: 1029
GlyphClass: 2
Flags: W
AnchorPoint: "Anchor-4" 543 0 basechar 0
AnchorPoint: "Anchor-3" 941 0 basechar 0
AnchorPoint: "Anchor-0" 568 981 basechar 0
LayerCount: 2
Fore
SplineSet
662 1001 m 0,0,1
 776 1001 776 1001 840.5 976 c 128,-1,2
 905 951 905 951 932 915 c 128,-1,3
 959 879 959 879 959 844 c 0,4,5
 959 810 959 810 943 780 c 128,-1,6
 927 750 927 750 899.5 732.5 c 128,-1,7
 872 715 872 715 835 715 c 0,8,9
 823 715 823 715 799 731 c 128,-1,10
 775 747 775 747 746 770.5 c 128,-1,11
 717 794 717 794 686 817.5 c 128,-1,12
 655 841 655 841 626 856.5 c 128,-1,13
 597 872 597 872 575 872 c 0,14,15
 487 872 487 872 420.5 835 c 128,-1,16
 354 798 354 798 316.5 723 c 128,-1,17
 279 648 279 648 279 535 c 0,18,19
 279 407 279 407 320.5 319 c 128,-1,20
 362 231 362 231 442 186 c 128,-1,21
 522 141 522 141 636 141 c 0,22,23
 707 141 707 141 781.5 161 c 128,-1,24
 856 181 856 181 935 220 c 1,25,-1
 941 134 l 1,26,27
 880 85 880 85 815.5 50.5 c 128,-1,28
 751 16 751 16 686.5 -2 c 128,-1,29
 622 -20 622 -20 561 -20 c 0,30,31
 423 -20 423 -20 318 38.5 c 128,-1,32
 213 97 213 97 154 207.5 c 128,-1,33
 95 318 95 318 95 474 c 0,34,35
 95 598 95 598 134 695 c 128,-1,36
 173 792 173 792 246 860.5 c 128,-1,37
 319 929 319 929 424 965 c 128,-1,38
 529 1001 529 1001 662 1001 c 0,0,1
EndSplineSet
EndChar

StartChar: d
Encoding: 100 100 207
Width: 1285
GlyphClass: 2
Flags: W
AnchorPoint: "Anchor-4" 655 0 basechar 0
AnchorPoint: "Anchor-3" 1073 1448 basechar 0
AnchorPoint: "Anchor-1" 916 1146 basechar 0
LayerCount: 2
Fore
SplineSet
888 650 m 2,0,1
 888 755 888 755 829.5 816 c 128,-1,2
 771 877 771 877 630 877 c 0,3,4
 523 877 523 877 449.5 830.5 c 128,-1,5
 376 784 376 784 338 698.5 c 128,-1,6
 300 613 300 613 300 493 c 0,7,8
 300 375 300 375 338 296.5 c 128,-1,9
 376 218 376 218 449 179.5 c 128,-1,10
 522 141 522 141 626 141 c 0,11,12
 715 141 715 141 799 165.5 c 128,-1,13
 883 190 883 190 968 238 c 1,14,-1
 968 195 l 1,15,16
 866 123 866 123 797.5 80 c 128,-1,17
 729 37 729 37 683 15.5 c 128,-1,18
 637 -6 637 -6 604 -13 c 128,-1,19
 571 -20 571 -20 539 -20 c 0,20,21
 393 -20 393 -20 294.5 37.5 c 128,-1,22
 196 95 196 95 146 200.5 c 128,-1,23
 96 306 96 306 96 450 c 0,24,25
 96 577 96 577 138 678.5 c 128,-1,26
 180 780 180 780 254 852 c 128,-1,27
 328 924 328 924 427.5 962.5 c 128,-1,28
 527 1001 527 1001 643 1001 c 0,29,30
 709 1001 709 1001 765.5 991 c 128,-1,31
 822 981 822 981 878 959.5 c 128,-1,32
 934 938 934 938 996 901 c 1,33,-1
 888 851 l 1,34,-1
 888 1254 l 1,35,36
 876 1261 876 1261 840 1275.5 c 128,-1,37
 804 1290 804 1290 762.5 1306 c 128,-1,38
 721 1322 721 1322 692 1332 c 1,39,-1
 692 1396 l 1,40,-1
 1054 1468 l 1,41,-1
 1090 1468 l 1,42,-1
 1073 1273 l 1,43,-1
 1073 214 l 1,44,45
 1082 209 1082 209 1103.5 197.5 c 128,-1,46
 1125 186 1125 186 1151 173 c 128,-1,47
 1177 160 1177 160 1202 148.5 c 128,-1,48
 1227 137 1227 137 1243 131 c 1,49,-1
 1243 92 l 1,50,-1
 981 -19 l 1,51,-1
 948 -19 l 1,52,-1
 888 183 l 1,53,-1
 888 650 l 2,0,1
EndSplineSet
EndChar

StartChar: e
Encoding: 101 101 208
Width: 1078
GlyphClass: 2
Flags: W
AnchorPoint: "Anchor-4" 586 0 basechar 0
AnchorPoint: "Anchor-3" 977 0 basechar 0
AnchorPoint: "Anchor-0" 555 981 basechar 0
LayerCount: 2
Fore
SplineSet
564 1001 m 0,0,1
 710 1001 710 1001 800.5 941.5 c 128,-1,2
 891 882 891 882 934.5 768 c 128,-1,3
 978 654 978 654 981 489 c 1,4,-1
 251 489 l 1,5,-1
 247 608 l 1,6,-1
 847 614 l 1,7,-1
 787 588 l 1,8,9
 783 689 783 689 755.5 752.5 c 128,-1,10
 728 816 728 816 678 846 c 128,-1,11
 628 876 628 876 557 876 c 0,12,13
 470 876 470 876 408 839 c 128,-1,14
 346 802 346 802 313 726 c 128,-1,15
 280 650 280 650 280 530 c 0,16,17
 280 397 280 397 323.5 310.5 c 128,-1,18
 367 224 367 224 452.5 182.5 c 128,-1,19
 538 141 538 141 665 141 c 0,20,21
 724 141 724 141 777.5 152 c 128,-1,22
 831 163 831 163 879 181 c 128,-1,23
 927 199 927 199 970 220 c 1,24,-1
 977 134 l 1,25,26
 915 86 915 86 846.5 51.5 c 128,-1,27
 778 17 778 17 710 -1.5 c 128,-1,28
 642 -20 642 -20 580 -20 c 0,29,30
 434 -20 434 -20 325.5 39 c 128,-1,31
 217 98 217 98 156.5 209 c 128,-1,32
 96 320 96 320 96 477 c 256,33,34
 96 634 96 634 154 752 c 128,-1,35
 212 870 212 870 317 935.5 c 128,-1,36
 422 1001 422 1001 564 1001 c 0,0,1
EndSplineSet
EndChar

StartChar: f
Encoding: 102 102 209
Width: 836
GlyphClass: 2
Flags: W
AnchorPoint: "Anchor-4" 346 0 basechar 0
LayerCount: 2
Fore
SplineSet
296 842 m 1,0,-1
 251 818 l 1,1,-1
 63 873 l 1,2,-1
 63 929 l 1,3,-1
 267 999 l 1,4,-1
 302 981 l 1,5,-1
 795 981 l 1,6,-1
 791 842 l 1,7,-1
 296 842 l 1,0,-1
436 123 m 1,8,-1
 620 81 l 1,9,-1
 620 0 l 1,10,-1
 88 0 l 1,11,-1
 88 81 l 1,12,-1
 251 123 l 1,13,-1
 251 1042 l 2,14,15
 251 1149 251 1149 286.5 1229 c 128,-1,16
 322 1309 322 1309 387 1362 c 128,-1,17
 452 1415 452 1415 540.5 1441.5 c 128,-1,18
 629 1468 629 1468 734 1468 c 0,19,20
 818 1468 818 1468 875.5 1457.5 c 128,-1,21
 933 1447 933 1447 967.5 1427.5 c 128,-1,22
 1002 1408 1002 1408 1017.5 1381.5 c 128,-1,23
 1033 1355 1033 1355 1033 1323 c 0,24,25
 1033 1271 1033 1271 999.5 1241 c 128,-1,26
 966 1211 966 1211 915 1211 c 0,27,28
 896 1211 896 1211 877.5 1231 c 128,-1,29
 859 1251 859 1251 834 1277.5 c 128,-1,30
 809 1304 809 1304 771.5 1324 c 128,-1,31
 734 1344 734 1344 679 1344 c 0,32,33
 600 1344 600 1344 546 1319.5 c 128,-1,34
 492 1295 492 1295 464 1244 c 128,-1,35
 436 1193 436 1193 436 1113 c 2,36,-1
 436 123 l 1,8,-1
EndSplineSet
EndChar

StartChar: g
Encoding: 103 103 210
Width: 1136
GlyphClass: 2
Flags: W
AnchorPoint: "Anchor-4" 544 -466 basechar 0
AnchorPoint: "Anchor-0" 529 981 basechar 0
LayerCount: 2
Fore
SplineSet
521 -481 m 0,0,1
 392 -481 392 -481 299.5 -464 c 128,-1,2
 207 -447 207 -447 148 -415 c 128,-1,3
 89 -383 89 -383 61.5 -337 c 128,-1,4
 34 -291 34 -291 34 -233 c 0,5,6
 34 -192 34 -192 55 -153.5 c 128,-1,7
 76 -115 76 -115 123 -84.5 c 128,-1,8
 170 -54 170 -54 244 -34 c 128,-1,9
 318 -14 318 -14 424 -9 c 1,10,-1
 499 -9 l 1,11,-1
 499 -29 l 1,12,13
 397 -35 397 -35 339.5 -58 c 128,-1,14
 282 -81 282 -81 259 -117.5 c 128,-1,15
 236 -154 236 -154 236 -200 c 0,16,17
 236 -255 236 -255 265.5 -291.5 c 128,-1,18
 295 -328 295 -328 359.5 -345 c 128,-1,19
 424 -362 424 -362 529 -362 c 0,20,21
 655 -362 655 -362 736.5 -341.5 c 128,-1,22
 818 -321 818 -321 857.5 -281.5 c 128,-1,23
 897 -242 897 -242 897 -186 c 0,24,25
 897 -149 897 -149 883.5 -122 c 128,-1,26
 870 -95 870 -95 831.5 -77 c 128,-1,27
 793 -59 793 -59 719.5 -49.5 c 128,-1,28
 646 -40 646 -40 526 -39 c 0,29,30
 406 -37 406 -37 327 -22 c 128,-1,31
 248 -7 248 -7 203 19 c 128,-1,32
 158 45 158 45 139.5 81 c 128,-1,33
 121 117 121 117 121 161 c 0,34,35
 121 227 121 227 186.5 275.5 c 128,-1,36
 252 324 252 324 399 340 c 1,37,-1
 410 317 l 1,38,39
 353 311 353 311 325.5 291.5 c 128,-1,40
 298 272 298 272 298 231 c 0,41,42
 298 206 298 206 308 187.5 c 128,-1,43
 318 169 318 169 351 157 c 128,-1,44
 384 145 384 145 452 138.5 c 128,-1,45
 520 132 520 132 635 130 c 0,46,47
 751 128 751 128 835.5 112.5 c 128,-1,48
 920 97 920 97 974.5 65 c 128,-1,49
 1029 33 1029 33 1055.5 -18 c 128,-1,50
 1082 -69 1082 -69 1082 -143 c 0,51,52
 1082 -243 1082 -243 1017.5 -319.5 c 128,-1,53
 953 -396 953 -396 827.5 -438.5 c 128,-1,54
 702 -481 702 -481 521 -481 c 0,0,1
515 302 m 256,55,56
 389 302 389 302 296 344.5 c 128,-1,57
 203 387 203 387 153 465.5 c 128,-1,58
 103 544 103 544 103 651 c 0,59,60
 103 760 103 760 153 838.5 c 128,-1,61
 203 917 203 917 296 959 c 128,-1,62
 389 1001 389 1001 515 1001 c 0,63,64
 610 1001 610 1001 685 977 c 128,-1,65
 760 953 760 953 813 907.5 c 128,-1,66
 866 862 866 862 894.5 797.5 c 128,-1,67
 923 733 923 733 923 651 c 0,68,69
 923 544 923 544 873.5 465 c 128,-1,70
 824 386 824 386 732.5 344 c 128,-1,71
 641 302 641 302 515 302 c 256,55,56
523 420 m 0,72,73
 618 420 618 420 680.5 474.5 c 128,-1,74
 743 529 743 529 743 644 c 0,75,76
 743 763 743 763 686.5 823.5 c 128,-1,77
 630 884 630 884 512 884 c 0,78,79
 416 884 416 884 351 829.5 c 128,-1,80
 286 775 286 775 286 659 c 0,81,82
 286 541 286 541 344.5 480.5 c 128,-1,83
 403 420 403 420 523 420 c 0,72,73
680 890 m 1,84,-1
 627 983 l 1,85,86
 695 980 695 980 763 982.5 c 128,-1,87
 831 985 831 985 891.5 989.5 c 128,-1,88
 952 994 952 994 999 997.5 c 128,-1,89
 1046 1001 1046 1001 1073 1001 c 0,90,91
 1092 1001 1092 1001 1102 984.5 c 128,-1,92
 1112 968 1112 968 1112 931 c 0,93,94
 1112 886 1112 886 1099 856.5 c 128,-1,95
 1086 827 1086 827 1069 827 c 0,96,97
 1050 827 1050 827 1025 833 c 128,-1,98
 1000 839 1000 839 959 848 c 128,-1,99
 918 857 918 857 851 868 c 128,-1,100
 784 879 784 879 680 890 c 1,84,-1
EndSplineSet
EndChar

StartChar: h
Encoding: 104 104 211
Width: 1294
GlyphClass: 2
Flags: W
AnchorPoint: "Anchor-4" 650 0 basechar 0
AnchorPoint: "Anchor-1" 376 1146 basechar 0
LayerCount: 2
Fore
SplineSet
745 81 m 1,0,-1
 903 123 l 1,1,-1
 903 631 l 2,2,3
 903 697 903 697 879.5 739 c 128,-1,4
 856 781 856 781 805.5 801.5 c 128,-1,5
 755 822 755 822 673 822 c 0,6,7
 599 822 599 822 525.5 804.5 c 128,-1,8
 452 787 452 787 399 760 c 1,9,-1
 377 797 l 1,10,11
 461 865 461 865 516.5 905.5 c 128,-1,12
 572 946 572 946 613 966.5 c 128,-1,13
 654 987 654 987 692.5 994 c 128,-1,14
 731 1001 731 1001 780 1001 c 0,15,16
 939 1001 939 1001 1013.5 920 c 128,-1,17
 1088 839 1088 839 1088 675 c 2,18,-1
 1088 123 l 1,19,-1
 1252 81 l 1,20,-1
 1252 0 l 1,21,-1
 745 0 l 1,22,-1
 745 81 l 1,0,-1
561 0 m 1,23,-1
 56 0 l 1,24,-1
 56 81 l 1,25,-1
 219 123 l 1,26,-1
 219 1247 l 1,27,28
 206 1255 206 1255 173 1269 c 128,-1,29
 140 1283 140 1283 98 1299.5 c 128,-1,30
 56 1316 56 1316 17 1330 c 1,31,-1
 17 1394 l 1,32,-1
 385 1468 l 1,33,-1
 422 1468 l 1,34,-1
 404 1273 l 1,35,-1
 404 123 l 1,36,-1
 561 81 l 1,37,-1
 561 0 l 1,23,-1
EndSplineSet
EndChar

StartChar: i
Encoding: 105 105 212
Width: 652
GlyphClass: 2
Flags: W
AnchorPoint: "Anchor-4" 342 0 basechar 0
AnchorPoint: "Anchor-3" 496 0 basechar 0
AnchorPoint: "Anchor-0" 323 1448 basechar 0
LayerCount: 2
Fore
SplineSet
324 1204 m 0,0,1
 258 1204 258 1204 216.5 1238 c 128,-1,2
 175 1272 175 1272 175 1336 c 256,3,4
 175 1400 175 1400 216.5 1434 c 128,-1,5
 258 1468 258 1468 324 1468 c 0,6,7
 391 1468 391 1468 432 1434 c 128,-1,8
 473 1400 473 1400 473 1336 c 256,9,10
 473 1272 473 1272 432 1238 c 128,-1,11
 391 1204 391 1204 324 1204 c 0,0,1
446 1001 m 1,12,-1
 434 793 l 1,13,-1
 434 123 l 1,14,-1
 591 81 l 1,15,-1
 591 0 l 1,16,-1
 86 0 l 1,17,-1
 86 81 l 1,18,-1
 249 123 l 1,19,-1
 249 764 l 1,20,21
 238 772 238 772 208.5 787.5 c 128,-1,22
 179 803 179 803 143 820.5 c 128,-1,23
 107 838 107 838 76 853 c 1,24,-1
 76 906 l 1,25,-1
 398 1001 l 1,26,-1
 446 1001 l 1,12,-1
EndSplineSet
EndChar

StartChar: j
Encoding: 106 106 213
Width: 580
GlyphClass: 2
Flags: W
AnchorPoint: "Anchor-4" 267 -461 basechar 0
AnchorPoint: "Anchor-0" 297 1463 basechar 0
LayerCount: 2
Fore
SplineSet
298 1204 m 0,0,1
 232 1204 232 1204 190.5 1238 c 128,-1,2
 149 1272 149 1272 149 1336 c 256,3,4
 149 1400 149 1400 190.5 1434 c 128,-1,5
 232 1468 232 1468 298 1468 c 0,6,7
 365 1468 365 1468 406 1434 c 128,-1,8
 447 1400 447 1400 447 1336 c 256,9,10
 447 1272 447 1272 406 1238 c 128,-1,11
 365 1204 365 1204 298 1204 c 0,0,1
223 764 m 1,12,13
 212 772 212 772 182.5 787.5 c 128,-1,14
 153 803 153 803 117 820.5 c 128,-1,15
 81 838 81 838 50 853 c 1,16,-1
 50 906 l 1,17,-1
 372 1001 l 1,18,-1
 420 1001 l 1,19,-1
 408 793 l 1,20,-1
 408 1 l 2,21,22
 408 -57 408 -57 401.5 -101 c 128,-1,23
 395 -145 395 -145 376 -184 c 128,-1,24
 357 -223 357 -223 319.5 -264.5 c 128,-1,25
 282 -306 282 -306 221 -358 c 128,-1,26
 160 -410 160 -410 70 -481 c 1,27,-1
 -2 -399 l 1,28,29
 78 -316 78 -316 123.5 -264.5 c 128,-1,30
 169 -213 169 -213 190.5 -179 c 128,-1,31
 212 -145 212 -145 217.5 -115 c 128,-1,32
 223 -85 223 -85 223 -44 c 2,33,-1
 223 764 l 1,12,13
EndSplineSet
EndChar

StartChar: k
Encoding: 107 107 214
Width: 1253
GlyphClass: 2
Flags: W
AnchorPoint: "Anchor-4" 672 0 basechar 0
LayerCount: 2
Fore
SplineSet
648 540 m 1,0,-1
 669 612 l 1,1,-1
 1105 128 l 1,2,-1
 1238 81 l 1,3,-1
 1238 0 l 1,4,-1
 849 0 l 1,5,-1
 849 81 l 1,6,-1
 877 116 l 1,7,-1
 549 486 l 1,8,-1
 366 486 l 1,9,-1
 366 616 l 1,10,-1
 581 616 l 1,11,-1
 843 864 l 1,12,-1
 698 902 l 1,13,-1
 698 981 l 1,14,-1
 1169 981 l 1,15,-1
 1169 902 l 1,16,-1
 1031 866 l 1,17,-1
 648 540 l 1,0,-1
404 123 m 1,18,-1
 561 81 l 1,19,-1
 561 0 l 1,20,-1
 56 0 l 1,21,-1
 56 81 l 1,22,-1
 219 123 l 1,23,-1
 219 1247 l 1,24,25
 206 1255 206 1255 173 1269 c 128,-1,26
 140 1283 140 1283 98 1299.5 c 128,-1,27
 56 1316 56 1316 17 1330 c 1,28,-1
 17 1394 l 1,29,-1
 385 1468 l 1,30,-1
 422 1468 l 1,31,-1
 404 1273 l 1,32,-1
 404 123 l 1,18,-1
EndSplineSet
EndChar

StartChar: l
Encoding: 108 108 215
Width: 625
GlyphClass: 2
Flags: W
AnchorPoint: "Anchor-4" 315 0 basechar 0
AnchorPoint: "Anchor-3" 407 1448 basechar 0
LayerCount: 2
Fore
SplineSet
407 123 m 1,0,-1
 564 81 l 1,1,-1
 564 0 l 1,2,-1
 59 0 l 1,3,-1
 59 81 l 1,4,-1
 222 123 l 1,5,-1
 222 1247 l 1,6,7
 209 1255 209 1255 176 1269 c 128,-1,8
 143 1283 143 1283 101 1299.5 c 128,-1,9
 59 1316 59 1316 20 1330 c 1,10,-1
 20 1394 l 1,11,-1
 388 1468 l 1,12,-1
 425 1468 l 1,13,-1
 407 1273 l 1,14,-1
 407 123 l 1,0,-1
EndSplineSet
EndChar

StartChar: m
Encoding: 109 109 216
Width: 1918
GlyphClass: 2
Flags: W
AnchorPoint: "Anchor-4" 978 0 basechar 0
AnchorPoint: "Anchor-0" 978 981 basechar 0
LayerCount: 2
Fore
SplineSet
431 795 m 1,0,-1
 431 123 l 1,1,-1
 586 81 l 1,2,-1
 586 0 l 1,3,-1
 83 0 l 1,4,-1
 83 81 l 1,5,-1
 246 123 l 1,6,-1
 246 746 l 1,7,8
 230 758 230 758 186 784.5 c 128,-1,9
 142 811 142 811 74 848 c 1,10,-1
 74 885 l 1,11,-1
 348 1005 l 1,12,-1
 382 1005 l 1,13,-1
 431 795 l 1,0,-1
1071 720 m 2,14,-1
 1071 123 l 1,15,-1
 1225 81 l 1,16,-1
 1225 0 l 1,17,-1
 731 0 l 1,18,-1
 731 81 l 1,19,-1
 886 123 l 1,20,-1
 886 646 l 2,21,22
 886 709 886 709 864 747.5 c 128,-1,23
 842 786 842 786 796 804 c 128,-1,24
 750 822 750 822 676 822 c 0,25,26
 610 822 610 822 542 806.5 c 128,-1,27
 474 791 474 791 424 766 c 1,28,-1
 404 810 l 1,29,30
 482 874 482 874 534 912 c 128,-1,31
 586 950 586 950 625 969 c 128,-1,32
 664 988 664 988 700 994.5 c 128,-1,33
 736 1001 736 1001 781 1001 c 0,34,35
 882 1001 882 1001 946 971.5 c 128,-1,36
 1010 942 1010 942 1040.5 880 c 128,-1,37
 1071 818 1071 818 1071 720 c 2,14,-1
1710 696 m 2,38,-1
 1710 123 l 1,39,-1
 1875 81 l 1,40,-1
 1875 0 l 1,41,-1
 1371 0 l 1,42,-1
 1371 81 l 1,43,-1
 1525 123 l 1,44,-1
 1525 646 l 2,45,46
 1525 708 1525 708 1503 746.5 c 128,-1,47
 1481 785 1481 785 1434 803.5 c 128,-1,48
 1387 822 1387 822 1314 822 c 0,49,50
 1246 822 1246 822 1177.5 806 c 128,-1,51
 1109 790 1109 790 1059 765 c 1,52,-1
 1039 809 l 1,53,54
 1118 873 1118 873 1170.5 911 c 128,-1,55
 1223 949 1223 949 1262 968.5 c 128,-1,56
 1301 988 1301 988 1337 994.5 c 128,-1,57
 1373 1001 1373 1001 1419 1001 c 0,58,59
 1571 1001 1571 1001 1640.5 924 c 128,-1,60
 1710 847 1710 847 1710 696 c 2,38,-1
EndSplineSet
EndChar

StartChar: n
Encoding: 110 110 217
Width: 1322
GlyphClass: 2
Flags: W
AnchorPoint: "Anchor-4" 673 0 basechar 0
AnchorPoint: "Anchor-0" 685 981 basechar 0
LayerCount: 2
Fore
SplineSet
431 795 m 1,0,-1
 431 123 l 1,1,-1
 589 81 l 1,2,-1
 589 0 l 1,3,-1
 83 0 l 1,4,-1
 83 81 l 1,5,-1
 246 123 l 1,6,-1
 246 746 l 1,7,8
 230 758 230 758 186 784.5 c 128,-1,9
 142 811 142 811 74 848 c 1,10,-1
 74 885 l 1,11,-1
 348 1005 l 1,12,-1
 382 1005 l 1,13,-1
 431 795 l 1,0,-1
773 81 m 1,14,-1
 930 123 l 1,15,-1
 930 631 l 2,16,17
 930 697 930 697 906.5 739 c 128,-1,18
 883 781 883 781 832.5 801.5 c 128,-1,19
 782 822 782 822 700 822 c 0,20,21
 627 822 627 822 553 804.5 c 128,-1,22
 479 787 479 787 426 760 c 1,23,-1
 404 797 l 1,24,25
 488 865 488 865 543.5 905.5 c 128,-1,26
 599 946 599 946 640 966.5 c 128,-1,27
 681 987 681 987 720 994 c 128,-1,28
 759 1001 759 1001 807 1001 c 0,29,30
 966 1001 966 1001 1040.5 920 c 128,-1,31
 1115 839 1115 839 1115 675 c 2,32,-1
 1115 123 l 1,33,-1
 1279 81 l 1,34,-1
 1279 0 l 1,35,-1
 773 0 l 1,36,-1
 773 81 l 1,14,-1
EndSplineSet
EndChar

StartChar: o
Encoding: 111 111 218
Width: 1203
GlyphClass: 2
Flags: W
AnchorPoint: "Anchor-4" 602 0 basechar 0
AnchorPoint: "Anchor-3" 797 0 basechar 0
AnchorPoint: "Anchor-2" 788 981 basechar 0
AnchorPoint: "Anchor-0" 602 981 basechar 0
LayerCount: 2
Fore
SplineSet
594 112 m 0,0,1
 696 112 696 112 767 150 c 128,-1,2
 838 188 838 188 875 266.5 c 128,-1,3
 912 345 912 345 912 467 c 0,4,5
 912 600 912 600 878.5 689.5 c 128,-1,6
 845 779 845 779 778 824 c 128,-1,7
 711 869 711 869 609 869 c 256,8,9
 507 869 507 869 436 831.5 c 128,-1,10
 365 794 365 794 327.5 715.5 c 128,-1,11
 290 637 290 637 290 515 c 0,12,13
 290 382 290 382 323.5 292.5 c 128,-1,14
 357 203 357 203 425 157.5 c 128,-1,15
 493 112 493 112 594 112 c 0,0,1
594 -20 m 0,16,17
 440 -20 440 -20 328 43 c 128,-1,18
 216 106 216 106 155.5 220.5 c 128,-1,19
 95 335 95 335 95 488 c 0,20,21
 95 643 95 643 158.5 758 c 128,-1,22
 222 873 222 873 337.5 937 c 128,-1,23
 453 1001 453 1001 609 1001 c 0,24,25
 763 1001 763 1001 875 938 c 128,-1,26
 987 875 987 875 1047 761 c 128,-1,27
 1107 647 1107 647 1107 493 c 256,28,29
 1107 339 1107 339 1044 223.5 c 128,-1,30
 981 108 981 108 865.5 44 c 128,-1,31
 750 -20 750 -20 594 -20 c 0,16,17
EndSplineSet
Substitution2: "Single Substitution lookup 3 subtable" ordmasculine
EndChar

StartChar: p
Encoding: 112 112 219
Width: 1294
GlyphClass: 2
Flags: W
AnchorPoint: "Anchor-4" 317 -461 basechar 0
AnchorPoint: "Anchor-0" 665 981 basechar 0
LayerCount: 2
Fore
SplineSet
994 481 m 0,0,1
 994 661 994 661 907 750.5 c 128,-1,2
 820 840 820 840 668 840 c 0,3,4
 609 840 609 840 552 830.5 c 128,-1,5
 495 821 495 821 441.5 803.5 c 128,-1,6
 388 786 388 786 338 759 c 1,7,-1
 338 857 l 1,8,9
 412 898 412 898 471.5 925.5 c 128,-1,10
 531 953 531 953 579.5 969.5 c 128,-1,11
 628 986 628 986 667.5 993.5 c 128,-1,12
 707 1001 707 1001 741 1001 c 0,13,14
 889 1001 889 1001 991 943.5 c 128,-1,15
 1093 886 1093 886 1145.5 781 c 128,-1,16
 1198 676 1198 676 1198 532 c 0,17,18
 1198 361 1198 361 1132 237 c 128,-1,19
 1066 113 1066 113 954 46.5 c 128,-1,20
 842 -20 842 -20 703 -20 c 0,21,22
 619 -20 619 -20 550.5 13 c 128,-1,23
 482 46 482 46 436 100 c 128,-1,24
 390 154 390 154 372 218 c 1,25,-1
 406 218 l 1,26,-1
 406 -339 l 1,27,-1
 591 -380 l 1,28,-1
 591 -461 l 1,29,-1
 54 -461 l 1,30,-1
 54 -380 l 1,31,-1
 221 -338 l 1,32,-1
 221 746 l 1,33,34
 208 756 208 756 181.5 772 c 128,-1,35
 155 788 155 788 120.5 808 c 128,-1,36
 86 828 86 828 49 848 c 1,37,-1
 49 885 l 1,38,-1
 323 1005 l 1,39,-1
 357 1005 l 1,40,-1
 406 842 l 1,41,-1
 406 333 l 2,42,43
 406 260 406 260 442 209.5 c 128,-1,44
 478 159 478 159 540 132.5 c 128,-1,45
 602 106 602 106 680 106 c 0,46,47
 779 106 779 106 849.5 151.5 c 128,-1,48
 920 197 920 197 957 281 c 128,-1,49
 994 365 994 365 994 481 c 0,0,1
EndSplineSet
EndChar

StartChar: q
Encoding: 113 113 220
Width: 1247
GlyphClass: 2
Flags: W
AnchorPoint: "Anchor-4" 979 -461 basechar 0
AnchorPoint: "Anchor-0" 623 981 basechar 0
LayerCount: 2
Fore
SplineSet
300 493 m 0,0,1
 300 375 300 375 338 296.5 c 128,-1,2
 376 218 376 218 449 179.5 c 128,-1,3
 522 141 522 141 626 141 c 0,4,5
 714 141 714 141 799 164 c 128,-1,6
 884 187 884 187 970 235 c 1,7,-1
 970 192 l 1,8,9
 873 123 873 123 804.5 80.5 c 128,-1,10
 736 38 736 38 689 16.5 c 128,-1,11
 642 -5 642 -5 606.5 -12.5 c 128,-1,12
 571 -20 571 -20 539 -20 c 0,13,14
 393 -20 393 -20 294.5 37.5 c 128,-1,15
 196 95 196 95 146 200.5 c 128,-1,16
 96 306 96 306 96 450 c 0,17,18
 96 618 96 618 167.5 742 c 128,-1,19
 239 866 239 866 363.5 933.5 c 128,-1,20
 488 1001 488 1001 645 1001 c 0,21,22
 711 1001 711 1001 770 988 c 128,-1,23
 829 975 829 975 881.5 945 c 128,-1,24
 934 915 934 915 980 862 c 1,25,-1
 883 867 l 1,26,-1
 1069 1000 l 1,27,-1
 1113 981 l 1,28,-1
 1073 760 l 1,29,-1
 1073 -338 l 1,30,-1
 1240 -380 l 1,31,-1
 1240 -461 l 1,32,-1
 702 -461 l 1,33,-1
 702 -380 l 1,34,-1
 888 -339 l 1,35,-1
 888 650 l 2,36,37
 888 755 888 755 828 816 c 128,-1,38
 768 877 768 877 628 877 c 0,39,40
 522 877 522 877 449 830.5 c 128,-1,41
 376 784 376 784 338 698.5 c 128,-1,42
 300 613 300 613 300 493 c 0,0,1
EndSplineSet
EndChar

StartChar: r
Encoding: 114 114 221
Width: 903
GlyphClass: 2
Flags: W
AnchorPoint: "Anchor-4" 339 0 basechar 0
AnchorPoint: "Anchor-0" 464 981 basechar 0
LayerCount: 2
Fore
SplineSet
754 998 m 0,0,1
 802 998 802 998 831 970.5 c 128,-1,2
 860 943 860 943 860 894 c 0,3,4
 860 835 860 835 840 802.5 c 128,-1,5
 820 770 820 770 793 770 c 0,6,7
 751 770 751 770 710 774 c 128,-1,8
 669 778 669 778 628 782 c 128,-1,9
 587 786 587 786 546 786 c 0,10,11
 522 786 522 786 498 782 c 128,-1,12
 474 778 474 778 448.5 768.5 c 128,-1,13
 423 759 423 759 395 741 c 1,14,-1
 366 776 l 1,15,16
 445 844 445 844 503 887.5 c 128,-1,17
 561 931 561 931 605 955 c 128,-1,18
 649 979 649 979 684.5 988.5 c 128,-1,19
 720 998 720 998 754 998 c 0,0,1
431 795 m 1,20,-1
 431 123 l 1,21,-1
 611 81 l 1,22,-1
 611 0 l 1,23,-1
 83 0 l 1,24,-1
 83 81 l 1,25,-1
 246 123 l 1,26,-1
 246 746 l 1,27,28
 233 756 233 756 206.5 772 c 128,-1,29
 180 788 180 788 145.5 808 c 128,-1,30
 111 828 111 828 74 848 c 1,31,-1
 74 885 l 1,32,-1
 353 1005 l 1,33,-1
 387 1005 l 1,34,-1
 431 795 l 1,20,-1
EndSplineSet
EndChar

StartChar: s
Encoding: 115 115 222
Width: 982
GlyphClass: 2
Flags: W
AnchorPoint: "Anchor-4" 501 0 basechar 0
AnchorPoint: "Anchor-0" 491 981 basechar 0
LayerCount: 2
Fore
SplineSet
533 1001 m 0,0,1
 604 1001 604 1001 669.5 989.5 c 128,-1,2
 735 978 735 978 817 952 c 1,3,-1
 843 693 l 1,4,-1
 729 693 l 1,5,-1
 619 940 l 1,6,-1
 756 836 l 1,7,8
 692 863 692 863 630.5 876 c 128,-1,9
 569 889 569 889 517 889 c 0,10,11
 404 889 404 889 346 855 c 128,-1,12
 288 821 288 821 288 757 c 256,13,14
 288 693 288 693 326.5 660.5 c 128,-1,15
 365 628 365 628 428 613 c 128,-1,16
 491 598 491 598 565 584 c 0,17,18
 621 573 621 573 677 557.5 c 128,-1,19
 733 542 733 542 780 512.5 c 128,-1,20
 827 483 827 483 855 430.5 c 128,-1,21
 883 378 883 378 883 294 c 0,22,23
 883 193 883 193 832 123.5 c 128,-1,24
 781 54 781 54 682 18.5 c 128,-1,25
 583 -17 583 -17 438 -17 c 0,26,27
 363 -17 363 -17 280 -4.5 c 128,-1,28
 197 8 197 8 140 31 c 1,29,-1
 96 308 l 1,30,-1
 214 308 l 1,31,-1
 339 34 l 1,32,-1
 216 132 l 1,33,34
 253 118 253 118 290 110.5 c 128,-1,35
 327 103 327 103 364 100.5 c 128,-1,36
 401 98 401 98 436 98 c 0,37,38
 576 98 576 98 645 138 c 128,-1,39
 714 178 714 178 714 259 c 0,40,41
 714 316 714 316 684 348 c 128,-1,42
 654 380 654 380 605 396 c 128,-1,43
 556 412 556 412 498.5 421.5 c 128,-1,44
 441 431 441 431 385 443 c 0,45,46
 312 459 312 459 251.5 487.5 c 128,-1,47
 191 516 191 516 156 571.5 c 128,-1,48
 121 627 121 627 121 722 c 0,49,50
 121 813 121 813 171 875 c 128,-1,51
 221 937 221 937 314 969 c 128,-1,52
 407 1001 407 1001 533 1001 c 0,0,1
EndSplineSet
EndChar

StartChar: t
Encoding: 116 116 223
Width: 823
GlyphClass: 2
Flags: W
AnchorPoint: "Anchor-4" 509 0 basechar 0
AnchorPoint: "Anchor-3" 381 1481 basechar 0
LayerCount: 2
Fore
SplineSet
398 294 m 2,0,1
 398 210 398 210 444 175 c 128,-1,2
 490 140 490 140 586 140 c 0,3,4
 628 140 628 140 677 148.5 c 128,-1,5
 726 157 726 157 782 172 c 1,6,-1
 782 97 l 1,7,8
 708 53 708 53 652.5 27.5 c 128,-1,9
 597 2 597 2 553.5 -8.5 c 128,-1,10
 510 -19 510 -19 470 -19 c 0,11,12
 398 -19 398 -19 339.5 6 c 128,-1,13
 281 31 281 31 247 81.5 c 128,-1,14
 213 132 213 132 213 208 c 2,15,-1
 213 830 l 1,16,-1
 42 889 l 1,17,-1
 42 944 l 1,18,19
 93 962 93 962 130.5 978.5 c 128,-1,20
 168 995 168 995 196.5 1013 c 128,-1,21
 225 1031 225 1031 247 1052.5 c 128,-1,22
 269 1074 269 1074 289 1101 c 128,-1,23
 309 1128 309 1128 330 1164 c 1,24,-1
 398 1164 l 1,25,-1
 398 947 l 1,26,-1
 398 294 l 2,0,1
326 842 m 1,27,-1
 331 981 l 1,28,-1
 760 981 l 1,29,-1
 756 842 l 1,30,-1
 326 842 l 1,27,-1
EndSplineSet
EndChar

StartChar: u
Encoding: 117 117 224
Width: 1249
GlyphClass: 2
Flags: W
AnchorPoint: "Anchor-4" 622 0 basechar 0
AnchorPoint: "Anchor-3" 1097 0 basechar 0
AnchorPoint: "Anchor-2" 958 980 basechar 0
AnchorPoint: "Anchor-0" 584 981 basechar 0
LayerCount: 2
Fore
SplineSet
392 336 m 2,0,1
 392 273 392 273 412.5 234 c 128,-1,2
 433 195 433 195 480 177.5 c 128,-1,3
 527 160 527 160 604 160 c 0,4,5
 671 160 671 160 739.5 176 c 128,-1,6
 808 192 808 192 857 216 c 1,7,-1
 878 172 l 1,8,9
 800 109 800 109 747.5 70.5 c 128,-1,10
 695 32 695 32 656.5 12.5 c 128,-1,11
 618 -7 618 -7 582 -13.5 c 128,-1,12
 546 -20 546 -20 500 -20 c 0,13,14
 348 -20 348 -20 277.5 57.5 c 128,-1,15
 207 135 207 135 207 288 c 2,16,-1
 207 833 l 1,17,-1
 34 899 l 1,18,-1
 34 981 l 1,19,-1
 411 992 l 1,20,-1
 392 848 l 1,21,-1
 392 336 l 2,0,1
907 -19 m 1,22,-1
 847 161 l 1,23,-1
 847 833 l 1,24,-1
 680 899 l 1,25,-1
 680 981 l 1,26,-1
 1050 992 l 1,27,-1
 1033 848 l 1,28,-1
 1033 214 l 1,29,30
 1042 209 1042 209 1063 197.5 c 128,-1,31
 1084 186 1084 186 1110.5 173 c 128,-1,32
 1137 160 1137 160 1161.5 148.5 c 128,-1,33
 1186 137 1186 137 1202 131 c 1,34,-1
 1202 92 l 1,35,-1
 941 -19 l 1,36,-1
 907 -19 l 1,22,-1
EndSplineSet
EndChar

StartChar: v
Encoding: 118 118 225
Width: 1261
GlyphClass: 2
Flags: W
AnchorPoint: "Anchor-4" 639 0 basechar 0
AnchorPoint: "Anchor-0" 650 981 basechar 0
LayerCount: 2
Fore
SplineSet
1091 866 m 1,0,-1
 721 -20 l 1,1,-1
 566 -20 l 1,2,-1
 161 851 l 1,3,-1
 14 902 l 1,4,-1
 14 981 l 1,5,-1
 524 981 l 1,6,-1
 524 902 l 1,7,-1
 371 858 l 1,8,-1
 700 138 l 1,9,-1
 672 138 l 1,10,-1
 955 862 l 1,11,-1
 808 902 l 1,12,-1
 808 981 l 1,13,-1
 1212 981 l 1,14,-1
 1212 902 l 1,15,-1
 1091 866 l 1,0,-1
EndSplineSet
EndChar

StartChar: w
Encoding: 119 119 226
Width: 1688
GlyphClass: 2
Flags: W
AnchorPoint: "Anchor-4" 872 0 basechar 0
AnchorPoint: "Anchor-0" 878 981 basechar 0
LayerCount: 2
Fore
SplineSet
1398 862 m 1,0,-1
 1248 902 l 1,1,-1
 1248 981 l 1,2,-1
 1641 981 l 1,3,-1
 1641 902 l 1,4,-1
 1524 866 l 1,5,-1
 1281 -20 l 1,6,-1
 1125 -20 l 1,7,-1
 823 856 l 1,8,-1
 890 862 l 1,9,-1
 568 -20 l 1,10,-1
 413 -20 l 1,11,-1
 171 851 l 1,12,-1
 24 902 l 1,13,-1
 24 981 l 1,14,-1
 513 981 l 1,15,-1
 513 902 l 1,16,-1
 364 858 l 1,17,-1
 566 116 l 1,18,-1
 504 116 l 1,19,-1
 817 1001 l 1,20,-1
 966 1001 l 1,21,-1
 1261 141 l 1,22,-1
 1211 141 l 1,23,-1
 1398 862 l 1,0,-1
EndSplineSet
EndChar

StartChar: x
Encoding: 120 120 227
Width: 1185
GlyphClass: 2
Flags: W
AnchorPoint: "Anchor-4" 600 0 basechar 0
AnchorPoint: "Anchor-0" 600 981 basechar 0
LayerCount: 2
Fore
SplineSet
1024 128 m 1,0,-1
 1153 79 l 1,1,-1
 1153 0 l 1,2,-1
 670 0 l 1,3,-1
 670 79 l 1,4,-1
 798 120 l 1,5,-1
 545 427 l 1,6,-1
 517 460 l 1,7,-1
 183 853 l 1,8,-1
 54 902 l 1,9,-1
 54 981 l 1,10,-1
 536 981 l 1,11,-1
 536 902 l 1,12,-1
 409 862 l 1,13,-1
 639 580 l 1,14,-1
 662 554 l 1,15,-1
 1024 128 l 1,0,-1
584 431 m 1,16,-1
 304 114 l 1,17,-1
 431 79 l 1,18,-1
 431 0 l 1,19,-1
 45 0 l 1,20,-1
 45 79 l 1,21,-1
 155 116 l 1,22,-1
 510 504 l 1,23,-1
 580 559 l 1,24,-1
 855 869 l 1,25,-1
 728 902 l 1,26,-1
 728 981 l 1,27,-1
 1113 981 l 1,28,-1
 1113 902 l 1,29,-1
 1003 867 l 1,30,-1
 653 486 l 1,31,-1
 584 431 l 1,16,-1
EndSplineSet
EndChar

StartChar: y
Encoding: 121 121 228
Width: 1220
GlyphClass: 2
Flags: W
AnchorPoint: "Anchor-4" 842 -135 basechar 0
AnchorPoint: "Anchor-0" 635 981 basechar 0
LayerCount: 2
Fore
SplineSet
727 140 m 1,0,-1
 598 -24 l 1,1,-1
 173 851 l 1,2,-1
 26 902 l 1,3,-1
 26 981 l 1,4,-1
 535 981 l 1,5,-1
 535 902 l 1,6,-1
 382 858 l 1,7,-1
 727 140 l 1,0,-1
285 -481 m 0,8,9
 204 -481 204 -481 161 -444.5 c 128,-1,10
 118 -408 118 -408 118 -342 c 0,11,12
 118 -313 118 -313 128 -291.5 c 128,-1,13
 138 -270 138 -270 153 -257 c 128,-1,14
 168 -244 168 -244 181 -244 c 0,15,16
 196 -244 196 -244 226.5 -251 c 128,-1,17
 257 -258 257 -258 291.5 -265 c 128,-1,18
 326 -272 326 -272 352 -272 c 0,19,20
 393 -272 393 -272 426.5 -252 c 128,-1,21
 460 -232 460 -232 491.5 -186 c 128,-1,22
 523 -140 523 -140 557 -64 c 2,23,-1
 616 74 l 1,24,-1
 641 131 l 1,25,-1
 924 862 l 1,26,-1
 776 902 l 1,27,-1
 776 981 l 1,28,-1
 1183 981 l 1,29,-1
 1183 902 l 1,30,-1
 1063 866 l 1,31,-1
 618 -192 l 2,32,33
 574 -296 574 -296 527.5 -359.5 c 128,-1,34
 481 -423 481 -423 422.5 -452 c 128,-1,35
 364 -481 364 -481 285 -481 c 0,8,9
EndSplineSet
EndChar

StartChar: z
Encoding: 122 122 229
Width: 1018
GlyphClass: 2
Flags: W
AnchorPoint: "Anchor-4" 517 0 basechar 0
AnchorPoint: "Anchor-0" 529 981 basechar 0
LayerCount: 2
Fore
SplineSet
90 0 m 1,0,-1
 90 58 l 1,1,-1
 714 932 l 1,2,-1
 766 859 l 1,3,-1
 171 859 l 1,4,-1
 329 952 l 1,5,-1
 182 670 l 1,6,-1
 94 670 l 1,7,-1
 126 1001 l 1,8,-1
 208 1001 l 1,9,-1
 254 981 l 1,10,-1
 921 981 l 1,11,-1
 921 923 l 1,12,-1
 292 46 l 1,13,-1
 257 122 l 1,14,-1
 781 122 l 1,15,-1
 684 37 l 1,16,-1
 865 340 l 1,17,-1
 955 340 l 1,18,-1
 877 0 l 1,19,-1
 90 0 l 1,0,-1
EndSplineSet
EndChar

StartChar: aogonek
Encoding: 261 261 238
Width: 1112
GlyphClass: 1
Flags: W
LayerCount: 2
Fore
SplineSet
1103 73 m 1,0,-1
 983 -89 l 2,1,2
 949 -135 949 -135 929.5 -168.5 c 128,-1,3
 910 -202 910 -202 902 -227.5 c 128,-1,4
 894 -253 894 -253 894 -277 c 0,5,6
 894 -322 894 -322 919 -346.5 c 128,-1,7
 944 -371 944 -371 986 -371 c 0,8,9
 1016 -371 1016 -371 1042.5 -362 c 128,-1,10
 1069 -353 1069 -353 1111 -325 c 1,11,-1
 1118 -384 l 1,12,13
 1081 -420 1081 -420 1049.5 -441.5 c 128,-1,14
 1018 -463 1018 -463 987 -472 c 128,-1,15
 956 -481 956 -481 918 -481 c 0,16,17
 832 -481 832 -481 790.5 -438.5 c 128,-1,18
 749 -396 749 -396 749 -326 c 0,19,20
 749 -293 749 -293 759.5 -260.5 c 128,-1,21
 770 -228 770 -228 798.5 -187 c 128,-1,22
 827 -146 827 -146 880 -88 c 2,23,-1
 973 13 l 1,24,-1
 984 -1 l 1,25,26
 963 -8 963 -8 942.5 -12 c 128,-1,27
 922 -16 922 -16 902 -16 c 0,28,29
 843 -16 843 -16 801 12.5 c 128,-1,30
 759 41 759 41 736.5 98.5 c 128,-1,31
 714 156 714 156 711 244 c 1,32,-1
 719 247 l 1,33,34
 706 166 706 166 665 106 c 128,-1,35
 624 46 624 46 558.5 13 c 128,-1,36
 493 -20 493 -20 407 -20 c 0,37,38
 266 -20 266 -20 187.5 48 c 128,-1,39
 109 116 109 116 109 241 c 0,40,41
 109 313 109 313 137.5 370.5 c 128,-1,42
 166 428 166 428 242.5 474.5 c 128,-1,43
 319 521 319 521 460 559 c 128,-1,44
 601 597 601 597 826 631 c 1,45,-1
 795 514 l 1,46,47
 637 491 637 491 541.5 466.5 c 128,-1,48
 446 442 446 442 396 414 c 128,-1,49
 346 386 346 386 329 352.5 c 128,-1,50
 312 319 312 319 312 276 c 0,51,52
 312 204 312 204 356 167 c 128,-1,53
 400 130 400 130 485 130 c 0,54,55
 548 130 548 130 599.5 154 c 128,-1,56
 651 178 651 178 681 218.5 c 128,-1,57
 711 259 711 259 711 309 c 2,58,-1
 711 670 l 2,59,60
 711 774 711 774 665.5 823.5 c 128,-1,61
 620 873 620 873 503 873 c 0,62,63
 447 873 447 873 399 866.5 c 128,-1,64
 351 860 351 860 308 848 c 1,65,-1
 378 914 l 1,66,67
 366 857 366 857 354 817 c 128,-1,68
 342 777 342 777 325 744 c 0,69,70
 308 710 308 710 281.5 700.5 c 128,-1,71
 255 691 255 691 219 691 c 0,72,73
 165 691 165 691 136.5 712.5 c 128,-1,74
 108 734 108 734 108 764 c 0,75,76
 108 798 108 798 142.5 838 c 128,-1,77
 177 878 177 878 238 915 c 128,-1,78
 299 952 299 952 382 975.5 c 128,-1,79
 465 999 465 999 562 999 c 0,80,81
 685 999 685 999 758 964 c 128,-1,82
 831 929 831 929 863.5 864 c 128,-1,83
 896 799 896 799 896 710 c 2,84,-1
 896 240 l 2,85,86
 896 203 896 203 908 179.5 c 128,-1,87
 920 156 920 156 943.5 145 c 128,-1,88
 967 134 967 134 1001 134 c 0,89,90
 1024 134 1024 134 1050 139 c 128,-1,91
 1076 144 1076 144 1103 152 c 1,92,-1
 1103 73 l 1,0,-1
EndSplineSet
EndChar

StartChar: ae
Encoding: 230 230 254
Width: 1693
GlyphClass: 2
Flags: W
AnchorPoint: "Anchor-4" 835 0 basechar 0
AnchorPoint: "Anchor-0" 844 981 basechar 0
LayerCount: 2
Fore
SplineSet
510 873 m 0,0,1
 453 873 453 873 402.5 867 c 128,-1,2
 352 861 352 861 308 848 c 1,3,-1
 378 914 l 1,4,5
 369 876 369 876 361 845.5 c 128,-1,6
 353 815 353 815 344.5 790.5 c 128,-1,7
 336 766 336 766 324 744 c 0,8,9
 307 710 307 710 281 700.5 c 128,-1,10
 255 691 255 691 218 691 c 0,11,12
 165 691 165 691 136.5 712.5 c 128,-1,13
 108 734 108 734 108 764 c 0,14,15
 108 798 108 798 142.5 838 c 128,-1,16
 177 878 177 878 239.5 915 c 128,-1,17
 302 952 302 952 386 975.5 c 128,-1,18
 470 999 470 999 569 999 c 0,19,20
 671 999 671 999 737 972.5 c 128,-1,21
 803 946 803 946 839 896.5 c 128,-1,22
 875 847 875 847 887 778 c 1,23,-1
 788 778 l 1,24,25
 847 882 847 882 947.5 941.5 c 128,-1,26
 1048 1001 1048 1001 1179 1001 c 0,27,28
 1326 1001 1326 1001 1416.5 940.5 c 128,-1,29
 1507 880 1507 880 1550 764.5 c 128,-1,30
 1593 649 1593 649 1596 482 c 1,31,-1
 873 482 l 1,32,-1
 869 601 l 1,33,-1
 1462 607 l 1,34,-1
 1401 588 l 1,35,36
 1398 689 1398 689 1370 752.5 c 128,-1,37
 1342 816 1342 816 1292 846 c 128,-1,38
 1242 876 1242 876 1171 876 c 0,39,40
 1087 876 1087 876 1026.5 839 c 128,-1,41
 966 802 966 802 934.5 726 c 128,-1,42
 903 650 903 650 903 530 c 0,43,44
 903 397 903 397 945 310.5 c 128,-1,45
 987 224 987 224 1071 182.5 c 128,-1,46
 1155 141 1155 141 1280 141 c 0,47,48
 1339 141 1339 141 1392 152 c 128,-1,49
 1445 163 1445 163 1493.5 181 c 128,-1,50
 1542 199 1542 199 1585 220 c 1,51,-1
 1591 134 l 1,52,53
 1529 85 1529 85 1460 50.5 c 128,-1,54
 1391 16 1391 16 1322.5 -2 c 128,-1,55
 1254 -20 1254 -20 1191 -20 c 0,56,57
 1077 -20 1077 -20 984.5 16.5 c 128,-1,58
 892 53 892 53 825.5 122.5 c 128,-1,59
 759 192 759 192 723 291 c 1,60,-1
 755 300 l 1,61,62
 749 194 749 194 701 123 c 128,-1,63
 653 52 653 52 577 16 c 128,-1,64
 501 -20 501 -20 409 -20 c 0,65,66
 267 -20 267 -20 188 48.5 c 128,-1,67
 109 117 109 117 109 241 c 0,68,69
 109 312 109 312 137 368.5 c 128,-1,70
 165 425 165 425 241 471 c 128,-1,71
 317 517 317 517 460 555.5 c 128,-1,72
 603 594 603 594 833 629 c 1,73,-1
 802 514 l 1,74,75
 639 490 639 490 541 465 c 128,-1,76
 443 440 443 440 393.5 412 c 128,-1,77
 344 384 344 384 327.5 350.5 c 128,-1,78
 311 317 311 317 311 276 c 0,79,80
 311 204 311 204 355.5 167 c 128,-1,81
 400 130 400 130 484 130 c 0,82,83
 550 130 550 130 603 154.5 c 128,-1,84
 656 179 656 179 687 226.5 c 128,-1,85
 718 274 718 274 718 342 c 2,86,-1
 718 670 l 2,87,88
 718 774 718 774 672.5 823.5 c 128,-1,89
 627 873 627 873 510 873 c 0,0,1
EndSplineSet
EndChar

StartChar: ccedilla
Encoding: 231 231 256
Width: 1029
GlyphClass: 1
Flags: W
LayerCount: 2
Fore
SplineSet
662 1001 m 0,0,1
 776 1001 776 1001 840.5 976 c 128,-1,2
 905 951 905 951 932 915 c 128,-1,3
 959 879 959 879 959 844 c 0,4,5
 959 810 959 810 943 780 c 128,-1,6
 927 750 927 750 899.5 732.5 c 128,-1,7
 872 715 872 715 835 715 c 0,8,9
 823 715 823 715 799 731 c 128,-1,10
 775 747 775 747 746 770.5 c 128,-1,11
 717 794 717 794 686 817.5 c 128,-1,12
 655 841 655 841 626 856.5 c 128,-1,13
 597 872 597 872 575 872 c 0,14,15
 491 872 491 872 424.5 835 c 128,-1,16
 358 798 358 798 318.5 723 c 128,-1,17
 279 648 279 648 279 535 c 0,18,19
 279 407 279 407 320.5 319 c 128,-1,20
 362 231 362 231 442 186 c 128,-1,21
 522 141 522 141 636 141 c 0,22,23
 707 141 707 141 781.5 161 c 128,-1,24
 856 181 856 181 935 220 c 1,25,-1
 941 134 l 1,26,27
 880 85 880 85 815.5 50.5 c 128,-1,28
 751 16 751 16 686.5 -2 c 128,-1,29
 622 -20 622 -20 561 -20 c 0,30,31
 423 -20 423 -20 318 38.5 c 128,-1,32
 213 97 213 97 154 207.5 c 128,-1,33
 95 318 95 318 95 474 c 0,34,35
 95 598 95 598 135 695 c 128,-1,36
 175 792 175 792 249.5 860.5 c 128,-1,37
 324 929 324 929 428.5 965 c 128,-1,38
 533 1001 533 1001 662 1001 c 0,0,1
457 -481 m 0,39,40
 368 -481 368 -481 334.5 -458 c 128,-1,41
 301 -435 301 -435 301 -397 c 0,42,43
 301 -368 301 -368 320 -351.5 c 128,-1,44
 339 -335 339 -335 359 -335 c 0,45,46
 372 -335 372 -335 390 -352 c 128,-1,47
 408 -369 408 -369 432 -386 c 128,-1,48
 456 -403 456 -403 488 -403 c 0,49,50
 540 -403 540 -403 565 -383 c 128,-1,51
 590 -363 590 -363 590 -325 c 0,52,53
 590 -298 590 -298 573.5 -279.5 c 128,-1,54
 557 -261 557 -261 510 -246 c 128,-1,55
 463 -231 463 -231 370 -216 c 1,56,-1
 370 -195 l 1,57,-1
 542 30 l 1,58,-1
 642 30 l 1,59,-1
 476 -183 l 1,60,-1
 468 -103 l 1,61,62
 571 -122 571 -122 625.5 -150 c 128,-1,63
 680 -178 680 -178 699.5 -213 c 128,-1,64
 719 -248 719 -248 719 -289 c 0,65,66
 719 -351 719 -351 685.5 -394 c 128,-1,67
 652 -437 652 -437 593 -459 c 128,-1,68
 534 -481 534 -481 457 -481 c 0,39,40
EndSplineSet
EndChar

StartChar: dcroat
Encoding: 273 273 262
Width: 1285
GlyphClass: 1
Flags: W
LayerCount: 2
Fore
SplineSet
888 650 m 2,0,1
 888 755 888 755 829.5 816 c 128,-1,2
 771 877 771 877 630 877 c 0,3,4
 523 877 523 877 449.5 830.5 c 128,-1,5
 376 784 376 784 338 698.5 c 128,-1,6
 300 613 300 613 300 493 c 0,7,8
 300 375 300 375 338 296.5 c 128,-1,9
 376 218 376 218 449 179.5 c 128,-1,10
 522 141 522 141 626 141 c 0,11,12
 715 141 715 141 799 165.5 c 128,-1,13
 883 190 883 190 968 238 c 1,14,-1
 968 195 l 1,15,16
 866 123 866 123 797.5 80 c 128,-1,17
 729 37 729 37 683 15.5 c 128,-1,18
 637 -6 637 -6 604 -13 c 128,-1,19
 571 -20 571 -20 539 -20 c 0,20,21
 393 -20 393 -20 294.5 37.5 c 128,-1,22
 196 95 196 95 146 200.5 c 128,-1,23
 96 306 96 306 96 450 c 0,24,25
 96 577 96 577 138 678.5 c 128,-1,26
 180 780 180 780 254 852 c 128,-1,27
 328 924 328 924 427.5 962.5 c 128,-1,28
 527 1001 527 1001 643 1001 c 0,29,30
 709 1001 709 1001 765.5 991 c 128,-1,31
 822 981 822 981 878 959.5 c 128,-1,32
 934 938 934 938 996 901 c 1,33,-1
 888 851 l 1,34,-1
 888 1281 l 1,35,36
 877 1287 877 1287 846 1296 c 128,-1,37
 815 1305 815 1305 778.5 1315.5 c 128,-1,38
 742 1326 742 1326 716 1332 c 1,39,-1
 716 1396 l 1,40,-1
 1054 1468 l 1,41,-1
 1090 1468 l 1,42,-1
 1073 1273 l 1,43,-1
 1073 214 l 1,44,45
 1082 209 1082 209 1103.5 197.5 c 128,-1,46
 1125 186 1125 186 1151 173 c 128,-1,47
 1177 160 1177 160 1202 148.5 c 128,-1,48
 1227 137 1227 137 1243 131 c 1,49,-1
 1243 92 l 1,50,-1
 981 -19 l 1,51,-1
 948 -19 l 1,52,-1
 888 183 l 1,53,-1
 888 650 l 2,0,1
573 1089 m 1,54,-1
 573 1202 l 1,55,-1
 1259 1202 l 1,56,-1
 1259 1089 l 1,57,-1
 573 1089 l 1,54,-1
EndSplineSet
EndChar

StartChar: eogonek
Encoding: 281 281 270
Width: 1079
GlyphClass: 1
Flags: W
LayerCount: 2
Fore
SplineSet
977 134 m 1,0,-1
 855 -45 l 2,1,2
 819 -99 819 -99 797.5 -140.5 c 128,-1,3
 776 -182 776 -182 767 -215 c 128,-1,4
 758 -248 758 -248 758 -277 c 0,5,6
 758 -326 758 -326 787 -348.5 c 128,-1,7
 816 -371 816 -371 859 -371 c 0,8,9
 889 -371 889 -371 915.5 -362 c 128,-1,10
 942 -353 942 -353 984 -325 c 1,11,-1
 991 -384 l 1,12,13
 954 -420 954 -420 925 -441.5 c 128,-1,14
 896 -463 896 -463 867 -472 c 128,-1,15
 838 -481 838 -481 798 -481 c 0,16,17
 708 -481 708 -481 661.5 -437 c 128,-1,18
 615 -393 615 -393 615 -316 c 0,19,20
 615 -279 615 -279 626.5 -241 c 128,-1,21
 638 -203 638 -203 667.5 -155 c 128,-1,22
 697 -107 697 -107 751 -44 c 2,23,-1
 843 68 l 1,24,-1
 855 54 l 1,25,26
 785 19 785 19 714.5 -0.5 c 128,-1,27
 644 -20 644 -20 580 -20 c 0,28,29
 434 -20 434 -20 325.5 39 c 128,-1,30
 217 98 217 98 156.5 209 c 128,-1,31
 96 320 96 320 96 477 c 256,32,33
 96 634 96 634 154 752 c 128,-1,34
 212 870 212 870 317 935.5 c 128,-1,35
 422 1001 422 1001 564 1001 c 0,36,37
 710 1001 710 1001 800.5 941.5 c 128,-1,38
 891 882 891 882 934.5 768 c 128,-1,39
 978 654 978 654 981 489 c 1,40,-1
 251 489 l 1,41,-1
 247 608 l 1,42,-1
 847 614 l 1,43,-1
 787 588 l 1,44,45
 783 689 783 689 755.5 752.5 c 128,-1,46
 728 816 728 816 678 846 c 128,-1,47
 628 876 628 876 557 876 c 0,48,49
 470 876 470 876 408 839 c 128,-1,50
 346 802 346 802 313 726 c 128,-1,51
 280 650 280 650 280 530 c 0,52,53
 280 397 280 397 323.5 310.5 c 128,-1,54
 367 224 367 224 452.5 182.5 c 128,-1,55
 538 141 538 141 665 141 c 0,56,57
 724 141 724 141 777.5 152 c 128,-1,58
 831 163 831 163 879 181 c 128,-1,59
 927 199 927 199 970 220 c 1,60,-1
 977 134 l 1,0,-1
EndSplineSet
EndChar

StartChar: hbar
Encoding: 295 295 288
Width: 1294
GlyphClass: 1
Flags: W
LayerCount: 2
Fore
SplineSet
745 81 m 1,0,-1
 903 123 l 1,1,-1
 903 631 l 2,2,3
 903 697 903 697 879.5 739 c 128,-1,4
 856 781 856 781 805.5 801.5 c 128,-1,5
 755 822 755 822 673 822 c 0,6,7
 599 822 599 822 525.5 804.5 c 128,-1,8
 452 787 452 787 399 760 c 1,9,-1
 377 797 l 1,10,11
 461 865 461 865 516.5 905.5 c 128,-1,12
 572 946 572 946 613 966.5 c 128,-1,13
 654 987 654 987 692.5 994 c 128,-1,14
 731 1001 731 1001 780 1001 c 0,15,16
 939 1001 939 1001 1013.5 920 c 128,-1,17
 1088 839 1088 839 1088 675 c 2,18,-1
 1088 123 l 1,19,-1
 1252 81 l 1,20,-1
 1252 0 l 1,21,-1
 745 0 l 1,22,-1
 745 81 l 1,0,-1
561 0 m 1,23,-1
 56 0 l 1,24,-1
 56 81 l 1,25,-1
 219 123 l 1,26,-1
 219 1274 l 1,27,28
 208 1280 208 1280 176.5 1290 c 128,-1,29
 145 1300 145 1300 107.5 1311 c 128,-1,30
 70 1322 70 1322 41 1330 c 1,31,-1
 41 1394 l 1,32,-1
 385 1468 l 1,33,-1
 422 1468 l 1,34,-1
 404 1273 l 1,35,-1
 404 123 l 1,36,-1
 561 81 l 1,37,-1
 561 0 l 1,23,-1
34 1089 m 1,38,-1
 34 1202 l 1,39,-1
 719 1202 l 1,40,-1
 719 1089 l 1,41,-1
 34 1089 l 1,38,-1
EndSplineSet
EndChar

StartChar: dotlessi
Encoding: 305 305 289
Width: 652
GlyphClass: 2
Flags: W
AnchorPoint: "Anchor-4" 342 0 basechar 0
AnchorPoint: "Anchor-3" 452 0 basechar 0
AnchorPoint: "Anchor-0" 311 981 basechar 0
LayerCount: 2
Fore
SplineSet
446 1001 m 1,0,-1
 434 793 l 1,1,-1
 434 123 l 1,2,-1
 591 81 l 1,3,-1
 591 0 l 1,4,-1
 86 0 l 1,5,-1
 86 81 l 1,6,-1
 249 123 l 1,7,-1
 249 764 l 1,8,9
 238 772 238 772 208.5 787.5 c 128,-1,10
 179 803 179 803 143 820.5 c 128,-1,11
 107 838 107 838 76 853 c 1,12,-1
 76 906 l 1,13,-1
 398 1001 l 1,14,-1
 446 1001 l 1,0,-1
EndSplineSet
Substitution2: "'case' Case-Sensitive Forms in Latin lookup 8 subtable" I
EndChar

StartChar: iogonek
Encoding: 303 303 297
Width: 652
GlyphClass: 1
Flags: W
LayerCount: 2
Fore
SplineSet
324 1204 m 0,0,1
 258 1204 258 1204 216.5 1238 c 128,-1,2
 175 1272 175 1272 175 1336 c 256,3,4
 175 1400 175 1400 216.5 1434 c 128,-1,5
 258 1468 258 1468 324 1468 c 0,6,7
 391 1468 391 1468 432 1434 c 128,-1,8
 473 1400 473 1400 473 1336 c 256,9,10
 473 1272 473 1272 432 1238 c 128,-1,11
 391 1204 391 1204 324 1204 c 0,0,1
446 1001 m 1,12,-1
 434 793 l 1,13,-1
 434 123 l 1,14,-1
 591 81 l 1,15,-1
 591 0 l 1,16,-1
 86 0 l 1,17,-1
 86 81 l 1,18,-1
 249 123 l 1,19,-1
 249 764 l 1,20,21
 238 772 238 772 208.5 787.5 c 128,-1,22
 179 803 179 803 143 820.5 c 128,-1,23
 107 838 107 838 76 853 c 1,24,-1
 76 906 l 1,25,-1
 398 1001 l 1,26,-1
 446 1001 l 1,12,-1
345 -91 m 2,27,28
 322 -136 322 -136 309 -169 c 128,-1,29
 296 -202 296 -202 291 -227.5 c 128,-1,30
 286 -253 286 -253 286 -277 c 0,31,32
 286 -322 286 -322 311 -346.5 c 128,-1,33
 336 -371 336 -371 379 -371 c 0,34,35
 409 -371 409 -371 435.5 -362 c 128,-1,36
 462 -353 462 -353 504 -325 c 1,37,-1
 511 -384 l 1,38,39
 455 -438 455 -438 411.5 -459.5 c 128,-1,40
 368 -481 368 -481 311 -481 c 0,41,42
 224 -481 224 -481 182.5 -438.5 c 128,-1,43
 141 -396 141 -396 141 -326 c 0,44,45
 141 -294 141 -294 148.5 -261.5 c 128,-1,46
 156 -229 156 -229 178 -188 c 128,-1,47
 200 -147 200 -147 242 -89 c 2,48,-1
 339 45 l 1,49,-1
 414 45 l 1,50,-1
 345 -91 l 2,27,28
EndSplineSet
EndChar

StartChar: uni0237
Encoding: 567 567 302
Width: 580
GlyphClass: 2
Flags: W
AnchorPoint: "Anchor-4" 248 -466 basechar 0
AnchorPoint: "Anchor-0" 277 981 basechar 0
LayerCount: 2
Fore
SplineSet
223 764 m 1,0,1
 212 772 212 772 182.5 787.5 c 128,-1,2
 153 803 153 803 117 820.5 c 128,-1,3
 81 838 81 838 50 853 c 1,4,-1
 50 906 l 1,5,-1
 372 1001 l 1,6,-1
 420 1001 l 1,7,-1
 408 793 l 1,8,-1
 408 1 l 2,9,10
 408 -57 408 -57 401.5 -101 c 128,-1,11
 395 -145 395 -145 376 -184 c 128,-1,12
 357 -223 357 -223 319.5 -264.5 c 128,-1,13
 282 -306 282 -306 221 -358 c 128,-1,14
 160 -410 160 -410 70 -481 c 1,15,-1
 -2 -399 l 1,16,17
 78 -316 78 -316 123.5 -264.5 c 128,-1,18
 169 -213 169 -213 190.5 -179 c 128,-1,19
 212 -145 212 -145 217.5 -115 c 128,-1,20
 223 -85 223 -85 223 -44 c 2,21,-1
 223 764 l 1,0,1
EndSplineSet
EndChar

StartChar: kgreenlandic
Encoding: 312 312 305
Width: 1281
GlyphClass: 1
Flags: W
LayerCount: 2
Fore
SplineSet
577 452 m 1,0,-1
 394 452 l 1,1,-1
 394 583 l 1,2,-1
 609 583 l 1,3,-1
 871 864 l 1,4,-1
 726 902 l 1,5,-1
 726 981 l 1,6,-1
 1197 981 l 1,7,-1
 1197 902 l 1,8,-1
 1059 866 l 1,9,-1
 676 506 l 1,10,-1
 698 578 l 1,11,-1
 1133 128 l 1,12,-1
 1266 81 l 1,13,-1
 1266 0 l 1,14,-1
 875 0 l 1,15,-1
 875 81 l 1,16,-1
 904 116 l 1,17,-1
 577 452 l 1,0,-1
444 1001 m 1,18,-1
 432 793 l 1,19,-1
 432 123 l 1,20,-1
 589 81 l 1,21,-1
 589 0 l 1,22,-1
 84 0 l 1,23,-1
 84 81 l 1,24,-1
 247 123 l 1,25,-1
 247 764 l 1,26,27
 236 772 236 772 206.5 787.5 c 128,-1,28
 177 803 177 803 141 820.5 c 128,-1,29
 105 838 105 838 74 853 c 1,30,-1
 74 906 l 1,31,-1
 396 1001 l 1,32,-1
 444 1001 l 1,18,-1
EndSplineSet
EndChar

StartChar: lslash
Encoding: 322 322 310
Width: 736
GlyphClass: 1
Flags: W
LayerCount: 2
Fore
SplineSet
332 603 m 1,0,-1
 90 422 l 1,1,-1
 90 561 l 1,2,-1
 332 742 l 1,3,-1
 422 787 l 1,4,-1
 668 970 l 1,5,-1
 668 831 l 1,6,-1
 422 647 l 1,7,-1
 332 603 l 1,0,-1
465 123 m 1,8,-1
 622 81 l 1,9,-1
 622 0 l 1,10,-1
 116 0 l 1,11,-1
 116 81 l 1,12,-1
 280 123 l 1,13,-1
 280 1247 l 1,14,15
 267 1255 267 1255 234 1269 c 128,-1,16
 201 1283 201 1283 159 1299.5 c 128,-1,17
 117 1316 117 1316 78 1330 c 1,18,-1
 78 1394 l 1,19,-1
 446 1468 l 1,20,-1
 482 1468 l 1,21,-1
 465 1273 l 1,22,-1
 465 123 l 1,8,-1
EndSplineSet
EndChar

StartChar: eng
Encoding: 331 331 315
Width: 1271
GlyphClass: 1
Flags: W
LayerCount: 2
Fore
SplineSet
431 795 m 1,0,-1
 431 123 l 1,1,-1
 589 81 l 1,2,-1
 589 0 l 1,3,-1
 83 0 l 1,4,-1
 83 81 l 1,5,-1
 246 123 l 1,6,-1
 246 746 l 1,7,8
 230 758 230 758 186 784.5 c 128,-1,9
 142 811 142 811 74 848 c 1,10,-1
 74 885 l 1,11,-1
 348 1005 l 1,12,-1
 382 1005 l 1,13,-1
 431 795 l 1,0,-1
930 -44 m 2,14,-1
 930 631 l 2,15,16
 930 697 930 697 906.5 739 c 128,-1,17
 883 781 883 781 832.5 801.5 c 128,-1,18
 782 822 782 822 700 822 c 0,19,20
 627 822 627 822 553 804.5 c 128,-1,21
 479 787 479 787 426 760 c 1,22,-1
 404 797 l 1,23,24
 488 865 488 865 543.5 905.5 c 128,-1,25
 599 946 599 946 640 966.5 c 128,-1,26
 681 987 681 987 720 994 c 128,-1,27
 759 1001 759 1001 807 1001 c 0,28,29
 966 1001 966 1001 1040.5 920 c 128,-1,30
 1115 839 1115 839 1115 675 c 2,31,-1
 1115 1 l 2,32,33
 1115 -57 1115 -57 1108 -101 c 128,-1,34
 1101 -145 1101 -145 1082 -184 c 128,-1,35
 1063 -223 1063 -223 1026 -264.5 c 128,-1,36
 989 -306 989 -306 928 -358 c 128,-1,37
 867 -410 867 -410 777 -481 c 1,38,-1
 704 -399 l 1,39,40
 785 -316 785 -316 830.5 -264.5 c 128,-1,41
 876 -213 876 -213 897.5 -179 c 128,-1,42
 919 -145 919 -145 924.5 -115 c 128,-1,43
 930 -85 930 -85 930 -44 c 2,14,-1
EndSplineSet
EndChar

StartChar: ohorn
Encoding: 417 417 324
Width: 1228
GlyphClass: 2
Flags: W
AnchorPoint: "Anchor-4" 602 0 basechar 0
AnchorPoint: "Anchor-0" 602 981 basechar 0
LayerCount: 2
Fore
SplineSet
594 112 m 0,0,1
 696 112 696 112 767 150 c 128,-1,2
 838 188 838 188 875 266.5 c 128,-1,3
 912 345 912 345 912 467 c 0,4,5
 912 600 912 600 878.5 689.5 c 128,-1,6
 845 779 845 779 778 824 c 128,-1,7
 711 869 711 869 609 869 c 256,8,9
 507 869 507 869 436 831.5 c 128,-1,10
 365 794 365 794 327.5 715.5 c 128,-1,11
 290 637 290 637 290 515 c 0,12,13
 290 382 290 382 323.5 292.5 c 128,-1,14
 357 203 357 203 425 157.5 c 128,-1,15
 493 112 493 112 594 112 c 0,0,1
1156 1133 m 0,16,17
 1156 1014 1156 1014 1094 958 c 128,-1,18
 1032 902 1032 902 913 899 c 1,19,-1
 915 911 l 1,20,21
 1013 840 1013 840 1060 731.5 c 128,-1,22
 1107 623 1107 623 1107 493 c 0,23,24
 1107 339 1107 339 1044 223.5 c 128,-1,25
 981 108 981 108 865.5 44 c 128,-1,26
 750 -20 750 -20 594 -20 c 0,27,28
 440 -20 440 -20 328 43 c 128,-1,29
 216 106 216 106 155.5 220.5 c 128,-1,30
 95 335 95 335 95 488 c 0,31,32
 95 643 95 643 158.5 758 c 128,-1,33
 222 873 222 873 337.5 937 c 128,-1,34
 453 1001 453 1001 609 1001 c 0,35,36
 652 1001 652 1001 695.5 996 c 128,-1,37
 739 991 739 991 780 986 c 128,-1,38
 821 981 821 981 854 981 c 0,39,40
 927 981 927 981 954.5 1006 c 128,-1,41
 982 1031 982 1031 982 1079 c 0,42,43
 982 1108 982 1108 973 1129.5 c 128,-1,44
 964 1151 964 1151 954.5 1166.5 c 128,-1,45
 945 1182 945 1182 945 1192 c 0,46,47
 945 1221 945 1221 973.5 1241.5 c 128,-1,48
 1002 1262 1002 1262 1040 1262 c 0,49,50
 1089 1262 1089 1262 1122.5 1232 c 128,-1,51
 1156 1202 1156 1202 1156 1133 c 0,16,17
EndSplineSet
EndChar

StartChar: uni01EB
Encoding: 491 491 325
Width: 1203
GlyphClass: 1
Flags: W
LayerCount: 2
Fore
SplineSet
594 112 m 0,0,1
 696 112 696 112 767 150 c 128,-1,2
 838 188 838 188 875 266.5 c 128,-1,3
 912 345 912 345 912 467 c 0,4,5
 912 600 912 600 878.5 689.5 c 128,-1,6
 845 779 845 779 778 824 c 128,-1,7
 711 869 711 869 609 869 c 256,8,9
 507 869 507 869 436 831.5 c 128,-1,10
 365 794 365 794 327.5 715.5 c 128,-1,11
 290 637 290 637 290 515 c 0,12,13
 290 382 290 382 323.5 292.5 c 128,-1,14
 357 203 357 203 425 157.5 c 128,-1,15
 493 112 493 112 594 112 c 0,0,1
594 -20 m 0,16,17
 440 -20 440 -20 328 43 c 128,-1,18
 216 106 216 106 155.5 220.5 c 128,-1,19
 95 335 95 335 95 488 c 0,20,21
 95 643 95 643 158.5 758 c 128,-1,22
 222 873 222 873 337.5 937 c 128,-1,23
 453 1001 453 1001 609 1001 c 0,24,25
 763 1001 763 1001 875 938 c 128,-1,26
 987 875 987 875 1047 761 c 128,-1,27
 1107 647 1107 647 1107 493 c 256,28,29
 1107 339 1107 339 1044 223.5 c 128,-1,30
 981 108 981 108 865.5 44 c 128,-1,31
 750 -20 750 -20 594 -20 c 0,16,17
644 -91 m 2,32,33
 623 -137 623 -137 611 -169.5 c 128,-1,34
 599 -202 599 -202 593 -227.5 c 128,-1,35
 587 -253 587 -253 587 -277 c 0,36,37
 587 -322 587 -322 612 -346.5 c 128,-1,38
 637 -371 637 -371 680 -371 c 0,39,40
 710 -371 710 -371 736.5 -362 c 128,-1,41
 763 -353 763 -353 805 -325 c 1,42,-1
 812 -384 l 1,43,44
 756 -438 756 -438 712.5 -459.5 c 128,-1,45
 669 -481 669 -481 612 -481 c 0,46,47
 525 -481 525 -481 483.5 -438.5 c 128,-1,48
 442 -396 442 -396 442 -326 c 0,49,50
 442 -294 442 -294 450 -262 c 128,-1,51
 458 -230 458 -230 480 -189 c 128,-1,52
 502 -148 502 -148 541 -89 c 2,53,-1
 632 45 l 1,54,-1
 707 45 l 1,55,-1
 644 -91 l 2,32,33
EndSplineSet
EndChar

StartChar: oslash
Encoding: 248 248 343
Width: 1245
GlyphClass: 2
Flags: W
AnchorPoint: "Anchor-4" 624 0 basechar 0
AnchorPoint: "Anchor-0" 624 981 basechar 0
LayerCount: 2
Fore
SplineSet
87 0 m 1,0,-1
 270 197 l 1,1,-1
 297 221 l 1,2,-1
 869 836 l 1,3,-1
 895 869 l 1,4,-1
 999 981 l 1,5,-1
 1159 981 l 1,6,-1
 978 786 l 1,7,-1
 951 762 l 1,8,-1
 378 146 l 1,9,-1
 352 113 l 1,10,-1
 247 0 l 1,11,-1
 87 0 l 1,0,-1
615 112 m 0,12,13
 717 112 717 112 788.5 150 c 128,-1,14
 860 188 860 188 897 266.5 c 128,-1,15
 934 345 934 345 934 467 c 0,16,17
 934 600 934 600 900.5 689.5 c 128,-1,18
 867 779 867 779 800 824 c 128,-1,19
 733 869 733 869 631 869 c 256,20,21
 529 869 529 869 458 831.5 c 128,-1,22
 387 794 387 794 349.5 715.5 c 128,-1,23
 312 637 312 637 312 515 c 0,24,25
 312 382 312 382 345.5 292.5 c 128,-1,26
 379 203 379 203 446.5 157.5 c 128,-1,27
 514 112 514 112 615 112 c 0,12,13
615 -20 m 0,28,29
 462 -20 462 -20 350 43 c 128,-1,30
 238 106 238 106 177.5 220.5 c 128,-1,31
 117 335 117 335 117 488 c 0,32,33
 117 643 117 643 180.5 758 c 128,-1,34
 244 873 244 873 359.5 937 c 128,-1,35
 475 1001 475 1001 631 1001 c 0,36,37
 785 1001 785 1001 896.5 938 c 128,-1,38
 1008 875 1008 875 1068.5 761 c 128,-1,39
 1129 647 1129 647 1129 493 c 256,40,41
 1129 339 1129 339 1066 223.5 c 128,-1,42
 1003 108 1003 108 887.5 44 c 128,-1,43
 772 -20 772 -20 615 -20 c 0,28,29
EndSplineSet
EndChar

StartChar: oe
Encoding: 339 339 345
Width: 1903
GlyphClass: 2
Flags: W
AnchorPoint: "Anchor-4" 965 0 basechar 0
AnchorPoint: "Anchor-0" 965 981 basechar 0
LayerCount: 2
Fore
SplineSet
594 112 m 0,0,1
 696 112 696 112 767 150 c 128,-1,2
 838 188 838 188 875 266.5 c 128,-1,3
 912 345 912 345 912 467 c 0,4,5
 912 600 912 600 878.5 689.5 c 128,-1,6
 845 779 845 779 778 824 c 128,-1,7
 711 869 711 869 609 869 c 256,8,9
 507 869 507 869 436 831.5 c 128,-1,10
 365 794 365 794 327.5 715.5 c 128,-1,11
 290 637 290 637 290 515 c 0,12,13
 290 382 290 382 323.5 292.5 c 128,-1,14
 357 203 357 203 425 157.5 c 128,-1,15
 493 112 493 112 594 112 c 0,0,1
1050 251 m 1,16,17
 988 132 988 132 875.5 56 c 128,-1,18
 763 -20 763 -20 594 -20 c 0,19,20
 440 -20 440 -20 328 43 c 128,-1,21
 216 106 216 106 155.5 220.5 c 128,-1,22
 95 335 95 335 95 488 c 0,23,24
 95 643 95 643 158.5 758 c 128,-1,25
 222 873 222 873 337.5 937 c 128,-1,26
 453 1001 453 1001 609 1001 c 0,27,28
 771 1001 771 1001 880.5 930 c 128,-1,29
 990 859 990 859 1050 737 c 1,30,-1
 973 737 l 1,31,32
 1031 858 1031 858 1136.5 929.5 c 128,-1,33
 1242 1001 1242 1001 1389 1001 c 0,34,35
 1535 1001 1535 1001 1625.5 941.5 c 128,-1,36
 1716 882 1716 882 1759.5 768 c 128,-1,37
 1803 654 1803 654 1806 489 c 1,38,-1
 1076 489 l 1,39,-1
 1072 608 l 1,40,-1
 1672 614 l 1,41,-1
 1611 588 l 1,42,43
 1608 689 1608 689 1580 752.5 c 128,-1,44
 1552 816 1552 816 1502 846 c 128,-1,45
 1452 876 1452 876 1381 876 c 0,46,47
 1295 876 1295 876 1233 839 c 128,-1,48
 1171 802 1171 802 1138 726 c 128,-1,49
 1105 650 1105 650 1105 530 c 0,50,51
 1105 397 1105 397 1148 310.5 c 128,-1,52
 1191 224 1191 224 1276.5 182.5 c 128,-1,53
 1362 141 1362 141 1490 141 c 0,54,55
 1549 141 1549 141 1602 152 c 128,-1,56
 1655 163 1655 163 1703.5 181 c 128,-1,57
 1752 199 1752 199 1795 220 c 1,58,-1
 1801 134 l 1,59,60
 1739 86 1739 86 1671 51.5 c 128,-1,61
 1603 17 1603 17 1535 -1.5 c 128,-1,62
 1467 -20 1467 -20 1404 -20 c 0,63,64
 1242 -20 1242 -20 1135 54 c 128,-1,65
 1028 128 1028 128 972 251 c 1,66,-1
 1050 251 l 1,16,17
EndSplineSet
EndChar

StartChar: scedilla
Encoding: 351 351 353
Width: 982
GlyphClass: 1
Flags: W
LayerCount: 2
Fore
SplineSet
533 1001 m 0,0,1
 604 1001 604 1001 669.5 989.5 c 128,-1,2
 735 978 735 978 817 952 c 1,3,-1
 843 693 l 1,4,-1
 729 693 l 1,5,-1
 619 940 l 1,6,-1
 756 836 l 1,7,8
 692 863 692 863 630.5 876 c 128,-1,9
 569 889 569 889 517 889 c 0,10,11
 404 889 404 889 346 855 c 128,-1,12
 288 821 288 821 288 757 c 256,13,14
 288 693 288 693 326.5 660.5 c 128,-1,15
 365 628 365 628 428 613 c 128,-1,16
 491 598 491 598 565 584 c 0,17,18
 621 573 621 573 677 557.5 c 128,-1,19
 733 542 733 542 780 512.5 c 128,-1,20
 827 483 827 483 855 430.5 c 128,-1,21
 883 378 883 378 883 294 c 0,22,23
 883 193 883 193 832 123.5 c 128,-1,24
 781 54 781 54 682 18.5 c 128,-1,25
 583 -17 583 -17 438 -17 c 0,26,27
 363 -17 363 -17 280 -4.5 c 128,-1,28
 197 8 197 8 140 31 c 1,29,-1
 96 308 l 1,30,-1
 214 308 l 1,31,-1
 339 34 l 1,32,-1
 216 132 l 1,33,34
 253 118 253 118 290 110.5 c 128,-1,35
 327 103 327 103 364 100.5 c 128,-1,36
 401 98 401 98 436 98 c 0,37,38
 576 98 576 98 645 138 c 128,-1,39
 714 178 714 178 714 259 c 0,40,41
 714 316 714 316 684 348 c 128,-1,42
 654 380 654 380 605 396 c 128,-1,43
 556 412 556 412 498.5 421.5 c 128,-1,44
 441 431 441 431 385 443 c 0,45,46
 312 459 312 459 251.5 487.5 c 128,-1,47
 191 516 191 516 156 571.5 c 128,-1,48
 121 627 121 627 121 722 c 0,49,50
 121 813 121 813 171 875 c 128,-1,51
 221 937 221 937 314 969 c 128,-1,52
 407 1001 407 1001 533 1001 c 0,0,1
415 -481 m 0,53,54
 327 -481 327 -481 293.5 -458 c 128,-1,55
 260 -435 260 -435 260 -397 c 0,56,57
 260 -368 260 -368 278.5 -351.5 c 128,-1,58
 297 -335 297 -335 317 -335 c 0,59,60
 331 -335 331 -335 348.5 -352 c 128,-1,61
 366 -369 366 -369 390.5 -386 c 128,-1,62
 415 -403 415 -403 447 -403 c 0,63,64
 498 -403 498 -403 523.5 -383 c 128,-1,65
 549 -363 549 -363 549 -325 c 0,66,67
 549 -298 549 -298 532.5 -279.5 c 128,-1,68
 516 -261 516 -261 468.5 -246 c 128,-1,69
 421 -231 421 -231 328 -216 c 1,70,-1
 328 -195 l 1,71,-1
 501 30 l 1,72,-1
 600 30 l 1,73,-1
 435 -183 l 1,74,-1
 426 -103 l 1,75,76
 529 -122 529 -122 583.5 -150 c 128,-1,77
 638 -178 638 -178 658 -213 c 128,-1,78
 678 -248 678 -248 678 -289 c 0,79,80
 678 -351 678 -351 644.5 -394 c 128,-1,81
 611 -437 611 -437 551.5 -459 c 128,-1,82
 492 -481 492 -481 415 -481 c 0,53,54
EndSplineSet
Substitution2: "'locl' Localized Forms in Latin lookup 1 subtable" uni0219
Substitution2: "'locl' Localized Forms in Latin lookup 0 subtable" uni0219
EndChar

StartChar: germandbls
Encoding: 223 223 356
Width: 1435
GlyphClass: 1
Flags: W
LayerCount: 2
Fore
SplineSet
251 1042 m 2,0,1
 251 1148 251 1148 291 1228 c 128,-1,2
 331 1308 331 1308 402.5 1361 c 128,-1,3
 474 1414 474 1414 572 1441 c 128,-1,4
 670 1468 670 1468 786 1468 c 0,5,6
 897 1468 897 1468 976 1450.5 c 128,-1,7
 1055 1433 1055 1433 1105.5 1399 c 128,-1,8
 1156 1365 1156 1365 1180 1316.5 c 128,-1,9
 1204 1268 1204 1268 1204 1207 c 0,10,11
 1204 1142 1204 1142 1173.5 1095.5 c 128,-1,12
 1143 1049 1143 1049 1098.5 1013 c 128,-1,13
 1054 977 1054 977 1009 944.5 c 128,-1,14
 964 912 964 912 934 875 c 128,-1,15
 904 838 904 838 904 789 c 256,16,17
 904 740 904 740 936.5 710.5 c 128,-1,18
 969 681 969 681 1021 659.5 c 128,-1,19
 1073 638 1073 638 1130.5 614.5 c 128,-1,20
 1188 591 1188 591 1239.5 555.5 c 128,-1,21
 1291 520 1291 520 1324 461 c 128,-1,22
 1357 402 1357 402 1357 309 c 0,23,24
 1357 205 1357 205 1311 132.5 c 128,-1,25
 1265 60 1265 60 1176.5 21.5 c 128,-1,26
 1088 -17 1088 -17 958 -17 c 0,27,28
 890 -17 890 -17 815.5 -4.5 c 128,-1,29
 741 8 741 8 688 31 c 1,30,-1
 645 308 l 1,31,-1
 762 308 l 1,32,-1
 871 34 l 1,33,-1
 755 132 l 1,34,35
 805 111 805 111 856 104.5 c 128,-1,36
 907 98 907 98 955 98 c 0,37,38
 1077 98 1077 98 1133 141.5 c 128,-1,39
 1189 185 1189 185 1189 266 c 0,40,41
 1189 335 1189 335 1156.5 375 c 128,-1,42
 1124 415 1124 415 1072.5 439 c 128,-1,43
 1021 463 1021 463 962.5 483.5 c 128,-1,44
 904 504 904 504 852.5 532.5 c 128,-1,45
 801 561 801 561 768 610 c 128,-1,46
 735 659 735 659 735 742 c 0,47,48
 735 810 735 810 763 858 c 128,-1,49
 791 906 791 906 832 943 c 128,-1,50
 873 980 873 980 914.5 1013 c 128,-1,51
 956 1046 956 1046 983.5 1082.5 c 128,-1,52
 1011 1119 1011 1119 1011 1167 c 0,53,54
 1011 1220 1011 1220 984 1260.5 c 128,-1,55
 957 1301 957 1301 901.5 1324.5 c 128,-1,56
 846 1348 846 1348 759 1348 c 0,57,58
 648 1348 648 1348 576.5 1320.5 c 128,-1,59
 505 1293 505 1293 470.5 1233.5 c 128,-1,60
 436 1174 436 1174 436 1078 c 2,61,-1
 436 123 l 1,62,-1
 589 81 l 1,63,-1
 589 0 l 1,64,-1
 88 0 l 1,65,-1
 88 81 l 1,66,-1
 251 123 l 1,67,-1
 251 1042 l 2,0,1
267 999 m 1,68,-1
 251 818 l 1,69,-1
 63 873 l 1,70,-1
 63 929 l 1,71,-1
 267 999 l 1,68,-1
EndSplineSet
EndChar

StartChar: uni0163
Encoding: 355 355 357
Width: 823
GlyphClass: 1
Flags: W
LayerCount: 2
Fore
SplineSet
398 294 m 2,0,1
 398 210 398 210 444 175 c 128,-1,2
 490 140 490 140 586 140 c 0,3,4
 628 140 628 140 677 148.5 c 128,-1,5
 726 157 726 157 782 172 c 1,6,-1
 782 97 l 1,7,8
 708 53 708 53 652.5 27.5 c 128,-1,9
 597 2 597 2 553.5 -8.5 c 128,-1,10
 510 -19 510 -19 470 -19 c 0,11,12
 398 -19 398 -19 339.5 6 c 128,-1,13
 281 31 281 31 247 81.5 c 128,-1,14
 213 132 213 132 213 208 c 2,15,-1
 213 830 l 1,16,-1
 42 889 l 1,17,-1
 42 944 l 1,18,19
 94 962 94 962 132.5 979.5 c 128,-1,20
 171 997 171 997 199.5 1015.5 c 128,-1,21
 228 1034 228 1034 249.5 1055.5 c 128,-1,22
 271 1077 271 1077 290.5 1103.5 c 128,-1,23
 310 1130 310 1130 330 1164 c 1,24,-1
 398 1164 l 1,25,-1
 398 947 l 1,26,-1
 398 294 l 2,0,1
326 842 m 1,27,-1
 331 981 l 1,28,-1
 760 981 l 1,29,-1
 756 842 l 1,30,-1
 326 842 l 1,27,-1
423 -481 m 0,31,32
 334 -481 334 -481 300.5 -458 c 128,-1,33
 267 -435 267 -435 267 -397 c 0,34,35
 267 -368 267 -368 286 -351.5 c 128,-1,36
 305 -335 305 -335 325 -335 c 0,37,38
 338 -335 338 -335 356 -352 c 128,-1,39
 374 -369 374 -369 398 -386 c 128,-1,40
 422 -403 422 -403 454 -403 c 0,41,42
 506 -403 506 -403 531 -383 c 128,-1,43
 556 -363 556 -363 556 -325 c 0,44,45
 556 -298 556 -298 539.5 -279.5 c 128,-1,46
 523 -261 523 -261 476 -246 c 128,-1,47
 429 -231 429 -231 336 -216 c 1,48,-1
 336 -195 l 1,49,-1
 508 30 l 1,50,-1
 608 30 l 1,51,-1
 442 -183 l 1,52,-1
 434 -103 l 1,53,54
 537 -122 537 -122 591.5 -150 c 128,-1,55
 646 -178 646 -178 665.5 -213 c 128,-1,56
 685 -248 685 -248 685 -289 c 0,57,58
 685 -351 685 -351 651.5 -394 c 128,-1,59
 618 -437 618 -437 559 -459 c 128,-1,60
 500 -481 500 -481 423 -481 c 0,31,32
EndSplineSet
EndChar

StartChar: tbar
Encoding: 359 359 359
Width: 839
GlyphClass: 1
Flags: W
LayerCount: 2
Fore
SplineSet
64 474 m 1,0,-1
 64 587 l 1,1,-1
 714 587 l 1,2,-1
 714 474 l 1,3,-1
 64 474 l 1,0,-1
411 294 m 2,4,5
 411 210 411 210 457.5 175 c 128,-1,6
 504 140 504 140 600 140 c 0,7,8
 641 140 641 140 690.5 148.5 c 128,-1,9
 740 157 740 157 795 172 c 1,10,-1
 795 97 l 1,11,12
 722 53 722 53 666.5 27.5 c 128,-1,13
 611 2 611 2 567 -8.5 c 128,-1,14
 523 -19 523 -19 484 -19 c 0,15,16
 412 -19 412 -19 353.5 6 c 128,-1,17
 295 31 295 31 260.5 81.5 c 128,-1,18
 226 132 226 132 226 208 c 2,19,-1
 226 830 l 1,20,-1
 55 889 l 1,21,-1
 55 944 l 1,22,23
 108 962 108 962 146.5 979.5 c 128,-1,24
 185 997 185 997 213.5 1015.5 c 128,-1,25
 242 1034 242 1034 263.5 1055.5 c 128,-1,26
 285 1077 285 1077 304 1103.5 c 128,-1,27
 323 1130 323 1130 344 1164 c 1,28,-1
 411 1164 l 1,29,-1
 411 947 l 1,30,-1
 411 294 l 2,4,5
340 842 m 1,31,-1
 345 981 l 1,32,-1
 774 981 l 1,33,-1
 770 842 l 1,34,-1
 340 842 l 1,31,-1
EndSplineSet
EndChar

StartChar: uogonek
Encoding: 371 371 370
Width: 1249
GlyphClass: 1
Flags: W
LayerCount: 2
Fore
SplineSet
392 336 m 2,0,1
 392 273 392 273 412.5 234 c 128,-1,2
 433 195 433 195 480 177.5 c 128,-1,3
 527 160 527 160 604 160 c 0,4,5
 671 160 671 160 739.5 176 c 128,-1,6
 808 192 808 192 857 216 c 1,7,-1
 878 172 l 1,8,9
 800 109 800 109 747.5 70.5 c 128,-1,10
 695 32 695 32 656.5 12.5 c 128,-1,11
 618 -7 618 -7 582 -13.5 c 128,-1,12
 546 -20 546 -20 500 -20 c 0,13,14
 348 -20 348 -20 277.5 57.5 c 128,-1,15
 207 135 207 135 207 288 c 2,16,-1
 207 833 l 1,17,-1
 34 899 l 1,18,-1
 34 981 l 1,19,-1
 411 992 l 1,20,-1
 392 848 l 1,21,-1
 392 336 l 2,0,1
907 -19 m 1,22,-1
 847 161 l 1,23,-1
 847 833 l 1,24,-1
 680 899 l 1,25,-1
 680 981 l 1,26,-1
 1050 992 l 1,27,-1
 1033 848 l 1,28,-1
 1033 214 l 1,29,30
 1042 209 1042 209 1063 197.5 c 128,-1,31
 1084 186 1084 186 1110.5 173 c 128,-1,32
 1137 160 1137 160 1161.5 148.5 c 128,-1,33
 1186 137 1186 137 1202 131 c 1,34,-1
 1202 92 l 1,35,-1
 941 -19 l 1,36,-1
 907 -19 l 1,22,-1
931 -90 m 2,37,38
 906 -135 906 -135 892.5 -168 c 128,-1,39
 879 -201 879 -201 875 -227 c 128,-1,40
 871 -253 871 -253 871 -277 c 0,41,42
 871 -322 871 -322 896 -346.5 c 128,-1,43
 921 -371 921 -371 964 -371 c 0,44,45
 994 -371 994 -371 1020.5 -362 c 128,-1,46
 1047 -353 1047 -353 1089 -325 c 1,47,-1
 1096 -384 l 1,48,49
 1059 -420 1059 -420 1027.5 -441.5 c 128,-1,50
 996 -463 996 -463 965 -472 c 128,-1,51
 934 -481 934 -481 895 -481 c 0,52,53
 809 -481 809 -481 767 -438.5 c 128,-1,54
 725 -396 725 -396 725 -326 c 0,55,56
 725 -294 725 -294 732.5 -262.5 c 128,-1,57
 740 -231 740 -231 763 -190.5 c 128,-1,58
 786 -150 786 -150 829 -92 c 2,59,-1
 933 45 l 1,60,-1
 1008 45 l 1,61,-1
 931 -90 l 2,37,38
EndSplineSet
EndChar

StartChar: uhorn
Encoding: 432 432 371
Width: 1267
GlyphClass: 2
Flags: W
AnchorPoint: "Anchor-4" 622 0 basechar 0
AnchorPoint: "Anchor-0" 584 981 basechar 0
LayerCount: 2
Fore
SplineSet
392 336 m 2,0,1
 392 273 392 273 412.5 234 c 128,-1,2
 433 195 433 195 480 177.5 c 128,-1,3
 527 160 527 160 604 160 c 0,4,5
 671 160 671 160 739.5 176 c 128,-1,6
 808 192 808 192 857 216 c 1,7,-1
 878 172 l 1,8,9
 800 109 800 109 747.5 70.5 c 128,-1,10
 695 32 695 32 656.5 12.5 c 128,-1,11
 618 -7 618 -7 582 -13.5 c 128,-1,12
 546 -20 546 -20 500 -20 c 0,13,14
 348 -20 348 -20 277.5 57.5 c 128,-1,15
 207 135 207 135 207 288 c 2,16,-1
 207 833 l 1,17,-1
 34 899 l 1,18,-1
 34 981 l 1,19,-1
 411 992 l 1,20,-1
 392 848 l 1,21,-1
 392 336 l 2,0,1
1125 1079 m 0,22,23
 1125 1108 1125 1108 1116 1129.5 c 128,-1,24
 1107 1151 1107 1151 1097.5 1166.5 c 128,-1,25
 1088 1182 1088 1182 1088 1192 c 0,26,27
 1088 1221 1088 1221 1116.5 1241.5 c 128,-1,28
 1145 1262 1145 1262 1183 1262 c 0,29,30
 1232 1262 1232 1262 1265.5 1232 c 128,-1,31
 1299 1202 1299 1202 1299 1133 c 0,32,33
 1299 1032 1299 1032 1233.5 975 c 128,-1,34
 1168 918 1168 918 1040 907 c 1,35,-1
 1033 848 l 1,36,-1
 1033 214 l 1,37,38
 1042 209 1042 209 1063 197.5 c 128,-1,39
 1084 186 1084 186 1110.5 173 c 128,-1,40
 1137 160 1137 160 1161.5 148.5 c 128,-1,41
 1186 137 1186 137 1202 131 c 1,42,-1
 1202 92 l 1,43,-1
 941 -19 l 1,44,-1
 907 -19 l 1,45,-1
 847 161 l 1,46,-1
 847 833 l 1,47,-1
 680 899 l 1,48,-1
 680 981 l 1,49,-1
 981 989 l 2,50,51
 1064 991 1064 991 1094.5 1015 c 128,-1,52
 1125 1039 1125 1039 1125 1079 c 0,22,23
EndSplineSet
EndChar

StartChar: thorn
Encoding: 254 254 396
Width: 1243
GlyphClass: 1
Flags: W
LayerCount: 2
Fore
SplineSet
170 1247 m 1,0,1
 157 1255 157 1255 124 1269 c 128,-1,2
 91 1283 91 1283 49 1299.5 c 128,-1,3
 7 1316 7 1316 -32 1330 c 1,4,-1
 -32 1394 l 1,5,-1
 336 1468 l 1,6,-1
 373 1468 l 1,7,-1
 355 1273 l 1,8,-1
 355 333 l 2,9,10
 355 260 355 260 391 209.5 c 128,-1,11
 427 159 427 159 489 132.5 c 128,-1,12
 551 106 551 106 629 106 c 0,13,14
 728 106 728 106 798.5 151.5 c 128,-1,15
 869 197 869 197 906 281 c 128,-1,16
 943 365 943 365 943 481 c 0,17,18
 943 661 943 661 856 750.5 c 128,-1,19
 769 840 769 840 617 840 c 0,20,21
 558 840 558 840 501 830.5 c 128,-1,22
 444 821 444 821 390.5 803.5 c 128,-1,23
 337 786 337 786 287 759 c 1,24,-1
 287 857 l 1,25,26
 361 898 361 898 420.5 925.5 c 128,-1,27
 480 953 480 953 528.5 969.5 c 128,-1,28
 577 986 577 986 616.5 993.5 c 128,-1,29
 656 1001 656 1001 690 1001 c 0,30,31
 838 1001 838 1001 940 943.5 c 128,-1,32
 1042 886 1042 886 1094.5 781 c 128,-1,33
 1147 676 1147 676 1147 532 c 0,34,35
 1147 361 1147 361 1081 237 c 128,-1,36
 1015 113 1015 113 903 46.5 c 128,-1,37
 791 -20 791 -20 652 -20 c 0,38,39
 568 -20 568 -20 499.5 13 c 128,-1,40
 431 46 431 46 385 100 c 128,-1,41
 339 154 339 154 321 218 c 1,42,-1
 355 218 l 1,43,-1
 355 -339 l 1,44,-1
 540 -380 l 1,45,-1
 540 -461 l 1,46,-1
 3 -461 l 1,47,-1
 3 -380 l 1,48,-1
 170 -338 l 1,49,-1
 170 1247 l 1,0,1
EndSplineSet
EndChar

StartChar: eth
Encoding: 240 240 397
Width: 1224
GlyphClass: 1
Flags: W
LayerCount: 2
Fore
SplineSet
594 -20 m 0,0,1
 440 -20 440 -20 328 42 c 128,-1,2
 216 104 216 104 155.5 215.5 c 128,-1,3
 95 327 95 327 95 476 c 0,4,5
 95 627 95 627 157 739.5 c 128,-1,6
 219 852 219 852 326 914.5 c 128,-1,7
 433 977 433 977 568 977 c 0,8,9
 640 977 640 977 699 957.5 c 128,-1,10
 758 938 758 938 804 901 c 128,-1,11
 850 864 850 864 882 811.5 c 128,-1,12
 914 759 914 759 932 694 c 1,13,-1
 914 688 l 1,14,15
 911 821 911 821 869 925 c 128,-1,16
 827 1029 827 1029 745 1109.5 c 128,-1,17
 663 1190 663 1190 540 1252 c 128,-1,18
 417 1314 417 1314 252 1363 c 1,19,-1
 288 1467 l 1,20,21
 478 1416 478 1416 617 1354 c 128,-1,22
 756 1292 756 1292 850.5 1213.5 c 128,-1,23
 945 1135 945 1135 1001.5 1036.5 c 128,-1,24
 1058 938 1058 938 1082.5 815.5 c 128,-1,25
 1107 693 1107 693 1107 543 c 0,26,27
 1107 356 1107 356 1044 231 c 128,-1,28
 981 106 981 106 865.5 43 c 128,-1,29
 750 -20 750 -20 594 -20 c 0,0,1
594 112 m 0,30,31
 696 112 696 112 767 148.5 c 128,-1,32
 838 185 838 185 875 261 c 128,-1,33
 912 337 912 337 912 455 c 0,34,35
 912 584 912 584 878.5 671 c 128,-1,36
 845 758 845 758 778 802 c 128,-1,37
 711 846 711 846 609 846 c 256,38,39
 507 846 507 846 436 809 c 128,-1,40
 365 772 365 772 327.5 696 c 128,-1,41
 290 620 290 620 290 502 c 0,42,43
 290 373 290 373 323.5 286.5 c 128,-1,44
 357 200 357 200 425 156 c 128,-1,45
 493 112 493 112 594 112 c 0,30,31
417 1019 m 1,46,-1
 356 1103 l 1,47,-1
 886 1468 l 1,48,-1
 947 1384 l 1,49,-1
 417 1019 l 1,46,-1
EndSplineSet
EndChar

StartChar: uni0259
Encoding: 601 601 398
Width: 1078
GlyphClass: 1
Flags: W
LayerCount: 2
Fore
SplineSet
514 -20 m 0,0,1
 368 -20 368 -20 277.5 39.5 c 128,-1,2
 187 99 187 99 144 213.5 c 128,-1,3
 101 328 101 328 97 492 c 1,4,-1
 827 492 l 1,5,-1
 831 373 l 1,6,-1
 231 367 l 1,7,-1
 291 393 l 1,8,9
 295 293 295 293 322.5 229 c 128,-1,10
 350 165 350 165 400.5 135 c 128,-1,11
 451 105 451 105 521 105 c 0,12,13
 608 105 608 105 670 142 c 128,-1,14
 732 179 732 179 765 255.5 c 128,-1,15
 798 332 798 332 798 451 c 0,16,17
 798 585 798 585 754.5 671 c 128,-1,18
 711 757 711 757 626 799 c 128,-1,19
 541 841 541 841 413 841 c 0,20,21
 354 841 354 841 300.5 829.5 c 128,-1,22
 247 818 247 818 199 800.5 c 128,-1,23
 151 783 151 783 108 761 c 1,24,-1
 101 848 l 1,25,26
 164 896 164 896 232 930 c 128,-1,27
 300 964 300 964 368.5 982.5 c 128,-1,28
 437 1001 437 1001 498 1001 c 0,29,30
 644 1001 644 1001 753 942.5 c 128,-1,31
 862 884 862 884 922 772.5 c 128,-1,32
 982 661 982 661 982 504 c 0,33,34
 982 348 982 348 924 230 c 128,-1,35
 866 112 866 112 761 46 c 128,-1,36
 656 -20 656 -20 514 -20 c 0,0,1
EndSplineSet
EndChar

StartChar: gravecomb
Encoding: 768 768 416
Width: 0
GlyphClass: 4
Flags: W
AnchorPoint: "Anchor-6" -32 1486 basemark 0
AnchorPoint: "Anchor-6" 0 981 mark 0
AnchorPoint: "Anchor-0" 0 981 mark 0
LayerCount: 2
Fore
SplineSet
69 1106 m 1,0,-1
 -40 1106 l 1,1,-1
 -354 1396 l 1,2,-1
 -354 1433 l 1,3,-1
 -110 1433 l 1,4,-1
 69 1106 l 1,0,-1
EndSplineSet
EndChar

StartChar: acutecomb
Encoding: 769 769 417
Width: 0
GlyphClass: 4
Flags: W
AnchorPoint: "Anchor-6" 32 1486 basemark 0
AnchorPoint: "Anchor-6" 0 981 mark 0
AnchorPoint: "Anchor-0" 0 981 mark 0
LayerCount: 2
Fore
SplineSet
-69 1106 m 1,0,-1
 110 1433 l 1,1,-1
 355 1433 l 1,2,-1
 355 1396 l 1,3,-1
 40 1106 l 1,4,-1
 -69 1106 l 1,0,-1
EndSplineSet
EndChar

StartChar: uni0302
Encoding: 770 770 418
Width: 0
GlyphClass: 4
Flags: W
AnchorPoint: "Anchor-6" 0 1433 basemark 0
AnchorPoint: "Anchor-6" 0 981 mark 0
AnchorPoint: "Anchor-0" 0 981 mark 0
LayerCount: 2
Fore
SplineSet
-335 1106 m 1,0,-1
 -91 1433 l 1,1,-1
 92 1433 l 1,2,-1
 335 1106 l 1,3,-1
 197 1106 l 1,4,-1
 -24 1321 l 1,5,-1
 24 1321 l 1,6,-1
 -197 1106 l 1,7,-1
 -335 1106 l 1,0,-1
EndSplineSet
EndChar

StartChar: tildecomb
Encoding: 771 771 419
Width: 0
GlyphClass: 4
Flags: W
AnchorPoint: "Anchor-6" 0 1354 basemark 0
AnchorPoint: "Anchor-6" 0 981 mark 0
AnchorPoint: "Anchor-0" 0 981 mark 0
LayerCount: 2
Fore
SplineSet
313 1420 m 1,0,1
 297 1297 297 1297 274 1230.5 c 128,-1,2
 251 1164 251 1164 215 1138.5 c 128,-1,3
 179 1113 179 1113 125 1113 c 0,4,5
 80 1113 80 1113 44.5 1137.5 c 128,-1,6
 9 1162 9 1162 -21.5 1194.5 c 128,-1,7
 -52 1227 -52 1227 -79 1252 c 128,-1,8
 -106 1277 -106 1277 -133 1277 c 0,9,10
 -151 1277 -151 1277 -164.5 1265.5 c 128,-1,11
 -178 1254 -178 1254 -189 1220 c 128,-1,12
 -200 1186 -200 1186 -212 1119 c 1,13,-1
 -322 1119 l 1,14,15
 -306 1242 -306 1242 -283 1308.5 c 128,-1,16
 -260 1375 -260 1375 -223.5 1400.5 c 128,-1,17
 -187 1426 -187 1426 -133 1426 c 0,18,19
 -89 1426 -89 1426 -53.5 1401.5 c 128,-1,20
 -18 1377 -18 1377 12.5 1344.5 c 128,-1,21
 43 1312 43 1312 70.5 1287 c 128,-1,22
 98 1262 98 1262 124 1262 c 0,23,24
 143 1262 143 1262 156.5 1273.5 c 128,-1,25
 170 1285 170 1285 181 1319.5 c 128,-1,26
 192 1354 192 1354 203 1420 c 1,27,-1
 313 1420 l 1,0,1
EndSplineSet
EndChar

StartChar: uni0304
Encoding: 772 772 420
Width: 0
GlyphClass: 4
Flags: W
AnchorPoint: "Anchor-6" 0 1433 basemark 0
AnchorPoint: "Anchor-6" 0 981 mark 0
AnchorPoint: "Anchor-0" 0 981 mark 0
LayerCount: 2
Fore
SplineSet
-294 1208 m 1,0,-1
 -294 1332 l 1,1,-1
 294 1332 l 1,2,-1
 294 1208 l 1,3,-1
 -294 1208 l 1,0,-1
EndSplineSet
EndChar

StartChar: uni0306
Encoding: 774 774 421
Width: 0
GlyphClass: 4
Flags: W
AnchorPoint: "Anchor-6" 0 1433 basemark 0
AnchorPoint: "Anchor-6" 0 981 mark 0
AnchorPoint: "Anchor-0" 0 981 mark 0
LayerCount: 2
Fore
SplineSet
0 1242 m 0,0,1
 61 1242 61 1242 102 1260 c 128,-1,2
 143 1278 143 1278 169.5 1320 c 128,-1,3
 196 1362 196 1362 212 1433 c 1,4,-1
 311 1433 l 1,5,6
 290 1304 290 1304 253 1231.5 c 128,-1,7
 216 1159 216 1159 154.5 1129.5 c 128,-1,8
 93 1100 93 1100 0 1100 c 0,9,10
 -92 1100 -92 1100 -154 1129.5 c 128,-1,11
 -216 1159 -216 1159 -253 1231.5 c 128,-1,12
 -290 1304 -290 1304 -311 1433 c 1,13,-1
 -211 1433 l 1,14,15
 -195 1362 -195 1362 -169 1320 c 128,-1,16
 -143 1278 -143 1278 -101.5 1260 c 128,-1,17
 -60 1242 -60 1242 0 1242 c 0,0,1
EndSplineSet
EndChar

StartChar: uni0307
Encoding: 775 775 422
Width: 0
GlyphClass: 4
Flags: W
AnchorPoint: "Anchor-6" 0 1354 basemark 0
AnchorPoint: "Anchor-6" 0 981 mark 0
AnchorPoint: "Anchor-0" 0 981 mark 0
LayerCount: 2
Fore
SplineSet
0 1151 m 0,0,1
 -69 1151 -69 1151 -105.5 1183 c 128,-1,2
 -142 1215 -142 1215 -142 1271 c 0,3,4
 -142 1329 -142 1329 -105.5 1358.5 c 128,-1,5
 -69 1388 -69 1388 0 1388 c 0,6,7
 70 1388 70 1388 106 1358.5 c 128,-1,8
 142 1329 142 1329 142 1271 c 0,9,10
 142 1215 142 1215 106 1183 c 128,-1,11
 70 1151 70 1151 0 1151 c 0,0,1
EndSplineSet
EndChar

StartChar: uni0308
Encoding: 776 776 423
Width: 0
GlyphClass: 4
Flags: W
AnchorPoint: "Anchor-6" 0 1354 basemark 0
AnchorPoint: "Anchor-6" 0 981 mark 0
AnchorPoint: "Anchor-0" 0 981 mark 0
LayerCount: 2
Fore
SplineSet
-214 1156 m 0,0,1
 -274 1156 -274 1156 -306 1186.5 c 128,-1,2
 -338 1217 -338 1217 -338 1271 c 0,3,4
 -338 1326 -338 1326 -306 1354.5 c 128,-1,5
 -274 1383 -274 1383 -214 1383 c 0,6,7
 -153 1383 -153 1383 -121.5 1354.5 c 128,-1,8
 -90 1326 -90 1326 -90 1271 c 0,9,10
 -90 1217 -90 1217 -121.5 1186.5 c 128,-1,11
 -153 1156 -153 1156 -214 1156 c 0,0,1
214 1156 m 256,12,13
 154 1156 154 1156 122 1186.5 c 128,-1,14
 90 1217 90 1217 90 1271 c 0,15,16
 90 1326 90 1326 122 1354.5 c 128,-1,17
 154 1383 154 1383 214 1383 c 256,18,19
 274 1383 274 1383 306 1354.5 c 128,-1,20
 338 1326 338 1326 338 1271 c 0,21,22
 338 1217 338 1217 306 1186.5 c 128,-1,23
 274 1156 274 1156 214 1156 c 256,12,13
EndSplineSet
EndChar

StartChar: hookabovecomb
Encoding: 777 777 424
Width: 0
GlyphClass: 4
Flags: W
AnchorPoint: "Anchor-6" 0 1433 basemark 0
AnchorPoint: "Anchor-6" 0 981 mark 0
AnchorPoint: "Anchor-0" 0 981 mark 0
LayerCount: 2
Fore
SplineSet
-189 1340 m 1,0,-1
 -175 1475 l 1,1,2
 -51 1471 -51 1471 24.5 1457.5 c 128,-1,3
 100 1444 100 1444 139.5 1422.5 c 128,-1,4
 179 1401 179 1401 193.5 1371 c 128,-1,5
 208 1341 208 1341 208 1303 c 0,6,7
 208 1255 208 1255 183.5 1216 c 128,-1,8
 159 1177 159 1177 97 1146 c 128,-1,9
 35 1115 35 1115 -80 1091 c 1,10,-1
 -97 1160 l 1,11,12
 -27 1177 -27 1177 7.5 1192 c 128,-1,13
 42 1207 42 1207 53.5 1224 c 128,-1,14
 65 1241 65 1241 65 1261 c 0,15,16
 65 1285 65 1285 48 1301.5 c 128,-1,17
 31 1318 31 1318 -23 1328 c 128,-1,18
 -77 1338 -77 1338 -189 1340 c 1,0,-1
EndSplineSet
EndChar

StartChar: uni030A
Encoding: 778 778 425
Width: 0
GlyphClass: 4
Flags: W
AnchorPoint: "Anchor-6" 0 1433 basemark 0
AnchorPoint: "Anchor-6" 0 981 mark 0
AnchorPoint: "Anchor-0" 0 981 mark 0
LayerCount: 2
Fore
SplineSet
-1 1454 m 256,0,1
 84 1454 84 1454 134 1404.5 c 128,-1,2
 184 1355 184 1355 184 1272 c 256,3,4
 184 1189 184 1189 134 1139.5 c 128,-1,5
 84 1090 84 1090 -1 1090 c 256,6,7
 -86 1090 -86 1090 -136.5 1139.5 c 128,-1,8
 -187 1189 -187 1189 -187 1272 c 256,9,10
 -187 1355 -187 1355 -136.5 1404.5 c 128,-1,11
 -86 1454 -86 1454 -1 1454 c 256,0,1
-1 1155 m 0,12,13
 53 1155 53 1155 83.5 1186.5 c 128,-1,14
 114 1218 114 1218 114 1272 c 0,15,16
 114 1327 114 1327 83.5 1358.5 c 128,-1,17
 53 1390 53 1390 -1 1390 c 0,18,19
 -56 1390 -56 1390 -86.5 1358.5 c 128,-1,20
 -117 1327 -117 1327 -117 1272 c 0,21,22
 -117 1218 -117 1218 -86.5 1186.5 c 128,-1,23
 -56 1155 -56 1155 -1 1155 c 0,12,13
EndSplineSet
EndChar

StartChar: uni030B
Encoding: 779 779 426
Width: 0
GlyphClass: 4
Flags: W
AnchorPoint: "Anchor-6" 0 1433 basemark 0
AnchorPoint: "Anchor-6" 0 981 mark 0
AnchorPoint: "Anchor-0" 0 981 mark 0
LayerCount: 2
Fore
SplineSet
79 1106 m 1,0,-1
 264 1433 l 1,1,-1
 501 1433 l 1,2,-1
 501 1396 l 1,3,-1
 186 1106 l 1,4,-1
 79 1106 l 1,0,-1
-214 1106 m 1,5,-1
 -122 1433 l 1,6,-1
 99 1433 l 1,7,-1
 99 1400 l 1,8,-1
 -116 1106 l 1,9,-1
 -214 1106 l 1,5,-1
EndSplineSet
EndChar

StartChar: uni030C
Encoding: 780 780 427
Width: 0
GlyphClass: 4
Flags: W
AnchorPoint: "Anchor-6" 0 1433 basemark 0
AnchorPoint: "Anchor-6" 0 981 mark 0
AnchorPoint: "Anchor-0" 0 981 mark 0
LayerCount: 2
Fore
SplineSet
24 1218 m 1,0,-1
 -24 1218 l 1,1,-1
 197 1433 l 1,2,-1
 335 1433 l 1,3,-1
 92 1106 l 1,4,-1
 -91 1106 l 1,5,-1
 -335 1433 l 1,6,-1
 -197 1433 l 1,7,-1
 24 1218 l 1,0,-1
EndSplineSet
EndChar

StartChar: uni030F
Encoding: 783 783 428
Width: 0
GlyphClass: 4
Flags: W
AnchorPoint: "Anchor-6" 0 1433 basemark 0
AnchorPoint: "Anchor-6" 0 981 mark 0
AnchorPoint: "Anchor-0" 0 981 mark 0
LayerCount: 2
Fore
SplineSet
-79 1106 m 1,0,-1
 -186 1106 l 1,1,-1
 -501 1396 l 1,2,-1
 -501 1433 l 1,3,-1
 -264 1433 l 1,4,-1
 -79 1106 l 1,0,-1
215 1106 m 1,5,-1
 116 1106 l 1,6,-1
 -98 1400 l 1,7,-1
 -98 1433 l 1,8,-1
 122 1433 l 1,9,-1
 215 1106 l 1,5,-1
EndSplineSet
EndChar

StartChar: uni0311
Encoding: 785 785 429
Width: 0
GlyphClass: 4
Flags: W
AnchorPoint: "Anchor-6" 0 1433 basemark 0
AnchorPoint: "Anchor-6" 0 981 mark 0
AnchorPoint: "Anchor-0" 0 981 mark 0
LayerCount: 2
Fore
SplineSet
0 1297 m 0,0,1
 -60 1297 -60 1297 -101.5 1279.5 c 128,-1,2
 -143 1262 -143 1262 -169 1220 c 128,-1,3
 -195 1178 -195 1178 -211 1106 c 1,4,-1
 -311 1106 l 1,5,6
 -290 1236 -290 1236 -253 1308 c 128,-1,7
 -216 1380 -216 1380 -154 1409.5 c 128,-1,8
 -92 1439 -92 1439 0 1439 c 0,9,10
 93 1439 93 1439 154.5 1409.5 c 128,-1,11
 216 1380 216 1380 253 1308 c 128,-1,12
 290 1236 290 1236 311 1106 c 1,13,-1
 212 1106 l 1,14,15
 196 1178 196 1178 169.5 1220 c 128,-1,16
 143 1262 143 1262 102 1279.5 c 128,-1,17
 61 1297 61 1297 0 1297 c 0,0,1
EndSplineSet
EndChar

StartChar: uni0312
Encoding: 786 786 430
Width: 0
GlyphClass: 4
Flags: W
AnchorPoint: "Anchor-6" 0 1433 basemark 0
AnchorPoint: "Anchor-6" 0 981 mark 0
AnchorPoint: "Anchor-0" 0 981 mark 0
LayerCount: 2
Fore
SplineSet
131 1214 m 0,0,1
 131 1166 131 1166 99 1130.5 c 128,-1,2
 67 1095 67 1095 6 1095 c 0,3,4
 -51 1095 -51 1095 -88 1128 c 128,-1,5
 -125 1161 -125 1161 -125 1234 c 0,6,7
 -125 1282 -125 1282 -102.5 1327 c 128,-1,8
 -80 1372 -80 1372 -24.5 1407.5 c 128,-1,9
 31 1443 31 1443 131 1463 c 1,10,-1
 148 1395 l 1,11,12
 70 1379 70 1379 43.5 1355 c 128,-1,13
 17 1331 17 1331 17 1304 c 0,14,15
 17 1283 17 1283 34.5 1269.5 c 128,-1,16
 52 1256 52 1256 74.5 1247 c 128,-1,17
 97 1238 97 1238 114 1230.5 c 128,-1,18
 131 1223 131 1223 131 1214 c 0,0,1
EndSplineSet
EndChar

StartChar: uni0335
Encoding: 821 821 431
Width: 0
GlyphClass: 4
Flags: W
AnchorPoint: "Anchor-1" 0 1175 mark 0
LayerCount: 2
Fore
SplineSet
-342 1118 m 1,0,-1
 -342 1231 l 1,1,-1
 343 1231 l 1,2,-1
 343 1118 l 1,3,-1
 -342 1118 l 1,0,-1
EndSplineSet
EndChar

StartChar: uni031B
Encoding: 795 795 432
Width: 0
GlyphClass: 4
Flags: W
AnchorPoint: "Anchor-2" 0 988 mark 0
LayerCount: 2
Fore
SplineSet
348 1140 m 0,0,1
 348 1030 348 1030 273 966.5 c 128,-1,2
 198 903 198 903 48 903 c 2,3,-1
 -74 903 l 1,4,-1
 -74 988 l 1,5,-1
 13 988 l 2,6,7
 74 987 74 987 109 999.5 c 128,-1,8
 144 1012 144 1012 159 1034 c 128,-1,9
 174 1056 174 1056 174 1085 c 0,10,11
 174 1115 174 1115 165 1136.5 c 128,-1,12
 156 1158 156 1158 146.5 1173.5 c 128,-1,13
 137 1189 137 1189 137 1199 c 0,14,15
 138 1228 138 1228 166 1248 c 128,-1,16
 194 1268 194 1268 232 1268 c 0,17,18
 281 1268 281 1268 314.5 1238.5 c 128,-1,19
 348 1209 348 1209 348 1140 c 0,0,1
EndSplineSet
EndChar

StartChar: uni0302_acutecomb
Encoding: 65539 -1 433
Width: 0
GlyphClass: 1
Flags: W
LayerCount: 2
Fore
SplineSet
279 1304 m 1,0,-1
 404 1572 l 1,1,-1
 638 1572 l 1,2,-1
 638 1537 l 1,3,-1
 381 1304 l 1,4,-1
 279 1304 l 1,0,-1
-24 1321 m 1,5,-1
 24 1321 l 1,6,-1
 -197 1106 l 1,7,-1
 -335 1106 l 1,8,-1
 -91 1433 l 1,9,-1
 92 1433 l 1,10,-1
 335 1106 l 1,11,-1
 197 1106 l 1,12,-1
 -24 1321 l 1,5,-1
EndSplineSet
EndChar

StartChar: uni0302_gravecomb
Encoding: 65540 -1 434
Width: 0
GlyphClass: 1
Flags: W
LayerCount: 2
Fore
SplineSet
-278 1304 m 1,0,-1
 -381 1304 l 1,1,-1
 -638 1537 l 1,2,-1
 -638 1572 l 1,3,-1
 -404 1572 l 1,4,-1
 -278 1304 l 1,0,-1
24 1321 m 1,5,-1
 -197 1106 l 1,6,-1
 -335 1106 l 1,7,-1
 -91 1433 l 1,8,-1
 92 1433 l 1,9,-1
 335 1106 l 1,10,-1
 197 1106 l 1,11,-1
 -24 1321 l 1,12,-1
 24 1321 l 1,5,-1
EndSplineSet
EndChar

StartChar: uni0302_hookabovecomb
Encoding: 65541 -1 435
Width: 0
GlyphClass: 1
Flags: W
LayerCount: 2
Fore
SplineSet
24 1321 m 1,0,-1
 -197 1106 l 1,1,-1
 -335 1106 l 1,2,-1
 -91 1433 l 1,3,-1
 92 1433 l 1,4,-1
 335 1106 l 1,5,-1
 197 1106 l 1,6,-1
 -24 1321 l 1,7,-1
 24 1321 l 1,0,-1
275 1366 m 1,8,9
 358 1387 358 1387 384.5 1412 c 128,-1,10
 411 1437 411 1437 411 1471 c 0,11,12
 411 1494 411 1494 395.5 1512.5 c 128,-1,13
 380 1531 380 1531 329.5 1542.5 c 128,-1,14
 279 1554 279 1554 173 1555 c 1,15,-1
 187 1690 l 1,16,17
 306 1686 306 1686 378 1672 c 128,-1,18
 450 1658 450 1658 488 1636 c 128,-1,19
 526 1614 526 1614 540 1583 c 128,-1,20
 554 1552 554 1552 554 1514 c 0,21,22
 554 1465 554 1465 532.5 1424 c 128,-1,23
 511 1383 511 1383 455 1351.5 c 128,-1,24
 399 1320 399 1320 293 1297 c 1,25,-1
 275 1366 l 1,8,9
EndSplineSet
EndChar

StartChar: uni0302_tildecomb
Encoding: 65542 -1 436
Width: 0
GlyphClass: 1
Flags: W
LayerCount: 2
Fore
SplineSet
28 1224 m 1,0,-1
 -187 1069 l 1,1,-1
 -313 1069 l 1,2,-1
 -101 1308 l 1,3,-1
 101 1308 l 1,4,-1
 313 1069 l 1,5,-1
 187 1069 l 1,6,-1
 -28 1224 l 1,7,-1
 28 1224 l 1,0,-1
-196 1361 m 1,8,-1
 -294 1361 l 1,9,10
 -282 1444 -282 1444 -263 1489.5 c 128,-1,11
 -244 1535 -244 1535 -212 1553.5 c 128,-1,12
 -180 1572 -180 1572 -129 1572 c 0,13,14
 -94 1572 -94 1572 -60 1557 c 128,-1,15
 -26 1542 -26 1542 6.5 1522.5 c 128,-1,16
 39 1503 39 1503 68 1488.5 c 128,-1,17
 97 1474 97 1474 120 1474 c 0,18,19
 153 1474 153 1474 169.5 1492 c 128,-1,20
 186 1510 186 1510 196 1568 c 1,21,-1
 294 1568 l 1,22,23
 283 1486 283 1486 264 1440 c 128,-1,24
 245 1394 245 1394 213 1376 c 128,-1,25
 181 1358 181 1358 129 1358 c 0,26,27
 94 1358 94 1358 60 1372.5 c 128,-1,28
 26 1387 26 1387 -6.5 1406.5 c 128,-1,29
 -39 1426 -39 1426 -68 1440.5 c 128,-1,30
 -97 1455 -97 1455 -120 1455 c 0,31,32
 -152 1455 -152 1455 -168.5 1437 c 128,-1,33
 -185 1419 -185 1419 -196 1361 c 1,8,-1
EndSplineSet
EndChar

StartChar: uni0306_acutecomb
Encoding: 65543 -1 437
Width: 0
GlyphClass: 1
Flags: W
LayerCount: 2
Fore
SplineSet
-38 1284 m 1,0,-1
 91 1568 l 1,1,-1
 294 1568 l 1,2,-1
 294 1542 l 1,3,-1
 47 1284 l 1,4,-1
 -38 1284 l 1,0,-1
0 1178 m 0,5,6
 89 1178 89 1178 134 1207 c 128,-1,7
 179 1236 179 1236 198 1304 c 1,8,-1
 295 1304 l 1,9,10
 275 1205 275 1205 238.5 1152.5 c 128,-1,11
 202 1100 202 1100 144 1081 c 128,-1,12
 86 1062 86 1062 0 1062 c 0,13,14
 -85 1062 -85 1062 -143 1081 c 128,-1,15
 -201 1100 -201 1100 -237.5 1152.5 c 128,-1,16
 -274 1205 -274 1205 -294 1304 c 1,17,-1
 -198 1304 l 1,18,19
 -178 1236 -178 1236 -133 1207 c 128,-1,20
 -88 1178 -88 1178 0 1178 c 0,5,6
EndSplineSet
EndChar

StartChar: uni0306_gravecomb
Encoding: 65544 -1 438
Width: 0
GlyphClass: 1
Flags: W
LayerCount: 2
Fore
SplineSet
39 1284 m 1,0,-1
 -47 1284 l 1,1,-1
 -294 1542 l 1,2,-1
 -294 1568 l 1,3,-1
 -91 1568 l 1,4,-1
 39 1284 l 1,0,-1
0 1178 m 0,5,6
 89 1178 89 1178 134 1207 c 128,-1,7
 179 1236 179 1236 198 1304 c 1,8,-1
 295 1304 l 1,9,10
 275 1205 275 1205 238.5 1152.5 c 128,-1,11
 202 1100 202 1100 144 1081 c 128,-1,12
 86 1062 86 1062 0 1062 c 0,13,14
 -85 1062 -85 1062 -143 1081 c 128,-1,15
 -201 1100 -201 1100 -237.5 1152.5 c 128,-1,16
 -274 1205 -274 1205 -294 1304 c 1,17,-1
 -198 1304 l 1,18,19
 -178 1236 -178 1236 -133 1207 c 128,-1,20
 -88 1178 -88 1178 0 1178 c 0,5,6
EndSplineSet
EndChar

StartChar: uni0306_hookabovecomb
Encoding: 65545 -1 439
Width: 0
GlyphClass: 1
Flags: W
LayerCount: 2
Fore
SplineSet
-31 1282 m 1,0,-1
 -48 1351 l 1,1,2
 40 1370 40 1370 65.5 1390 c 128,-1,3
 91 1410 91 1410 91 1435 c 0,4,5
 91 1455 91 1455 77 1469 c 128,-1,6
 63 1483 63 1483 19 1491.5 c 128,-1,7
 -25 1500 -25 1500 -116 1502 c 1,8,-1
 -101 1621 l 1,9,10
 20 1615 20 1615 86 1595 c 128,-1,11
 152 1575 152 1575 178 1541.5 c 128,-1,12
 204 1508 204 1508 204 1464 c 0,13,14
 204 1418 204 1418 183 1383.5 c 128,-1,15
 162 1349 162 1349 111 1324.5 c 128,-1,16
 60 1300 60 1300 -31 1282 c 1,0,-1
0 1178 m 0,17,18
 89 1178 89 1178 134 1207 c 128,-1,19
 179 1236 179 1236 198 1304 c 1,20,-1
 295 1304 l 1,21,22
 275 1205 275 1205 238.5 1152.5 c 128,-1,23
 202 1100 202 1100 144 1081 c 128,-1,24
 86 1062 86 1062 0 1062 c 0,25,26
 -85 1062 -85 1062 -143 1081 c 128,-1,27
 -201 1100 -201 1100 -237.5 1152.5 c 128,-1,28
 -274 1205 -274 1205 -294 1304 c 1,29,-1
 -198 1304 l 1,30,31
 -178 1236 -178 1236 -133 1207 c 128,-1,32
 -88 1178 -88 1178 0 1178 c 0,17,18
EndSplineSet
EndChar

StartChar: uni0306_tildecomb
Encoding: 65546 -1 440
Width: 0
GlyphClass: 1
Flags: W
LayerCount: 2
Fore
SplineSet
-196 1361 m 1,0,-1
 -294 1361 l 1,1,2
 -282 1444 -282 1444 -263 1489.5 c 128,-1,3
 -244 1535 -244 1535 -212 1553.5 c 128,-1,4
 -180 1572 -180 1572 -129 1572 c 0,5,6
 -94 1572 -94 1572 -57 1557.5 c 128,-1,7
 -20 1543 -20 1543 16 1525 c 128,-1,8
 52 1507 52 1507 82 1492.5 c 128,-1,9
 112 1478 112 1478 131 1478 c 0,10,11
 155 1478 155 1478 170.5 1496.5 c 128,-1,12
 186 1515 186 1515 196 1568 c 1,13,-1
 294 1568 l 1,14,15
 283 1486 283 1486 264 1440 c 128,-1,16
 245 1394 245 1394 213 1376 c 128,-1,17
 181 1358 181 1358 129 1358 c 0,18,19
 94 1358 94 1358 57 1372 c 128,-1,20
 20 1386 20 1386 -16 1404 c 128,-1,21
 -52 1422 -52 1422 -82 1436.5 c 128,-1,22
 -112 1451 -112 1451 -130 1451 c 0,23,24
 -155 1451 -155 1451 -170 1433 c 128,-1,25
 -185 1415 -185 1415 -196 1361 c 1,0,-1
0 1178 m 0,26,27
 89 1178 89 1178 134 1207 c 128,-1,28
 179 1236 179 1236 198 1304 c 1,29,-1
 295 1304 l 1,30,31
 275 1205 275 1205 238.5 1152.5 c 128,-1,32
 202 1100 202 1100 144 1081 c 128,-1,33
 86 1062 86 1062 0 1062 c 0,34,35
 -85 1062 -85 1062 -143 1081 c 128,-1,36
 -201 1100 -201 1100 -237.5 1152.5 c 128,-1,37
 -274 1205 -274 1205 -294 1304 c 1,38,-1
 -198 1304 l 1,39,40
 -178 1236 -178 1236 -133 1207 c 128,-1,41
 -88 1178 -88 1178 0 1178 c 0,26,27
EndSplineSet
EndChar

StartChar: caroncomb.alt
Encoding: 65547 -1 441
Width: 0
GlyphClass: 1
Flags: W
LayerCount: 2
Fore
SplineSet
139 1057 m 1,0,-1
 194 1448 l 1,1,-1
 408 1448 l 1,2,-1
 408 1414 l 1,3,-1
 240 1057 l 1,4,-1
 139 1057 l 1,0,-1
EndSplineSet
EndChar

StartChar: dotbelowcomb
Encoding: 803 803 442
Width: 0
GlyphClass: 4
Flags: W
AnchorPoint: "Anchor-5" 0 -481 basemark 0
AnchorPoint: "Anchor-5" 0 0 mark 0
AnchorPoint: "Anchor-4" 0 0 mark 0
LayerCount: 2
Fore
SplineSet
0 -346 m 0,0,1
 -69 -346 -69 -346 -105.5 -314.5 c 128,-1,2
 -142 -283 -142 -283 -142 -226 c 256,3,4
 -142 -169 -142 -169 -105.5 -139 c 128,-1,5
 -69 -109 -69 -109 0 -109 c 0,6,7
 70 -109 70 -109 106 -139 c 128,-1,8
 142 -169 142 -169 142 -226 c 256,9,10
 142 -283 142 -283 106 -314.5 c 128,-1,11
 70 -346 70 -346 0 -346 c 0,0,1
EndSplineSet
EndChar

StartChar: uni0324
Encoding: 804 804 443
Width: 0
GlyphClass: 4
Flags: W
AnchorPoint: "Anchor-5" 0 -481 basemark 0
AnchorPoint: "Anchor-5" 0 0 mark 0
AnchorPoint: "Anchor-4" 0 0 mark 0
LayerCount: 2
Fore
SplineSet
-214 -341 m 0,0,1
 -274 -341 -274 -341 -306 -310.5 c 128,-1,2
 -338 -280 -338 -280 -338 -226 c 0,3,4
 -338 -171 -338 -171 -306 -142.5 c 128,-1,5
 -274 -114 -274 -114 -214 -114 c 0,6,7
 -153 -114 -153 -114 -121.5 -142.5 c 128,-1,8
 -90 -171 -90 -171 -90 -226 c 0,9,10
 -90 -280 -90 -280 -121.5 -310.5 c 128,-1,11
 -153 -341 -153 -341 -214 -341 c 0,0,1
214 -341 m 256,12,13
 154 -341 154 -341 122 -310.5 c 128,-1,14
 90 -280 90 -280 90 -226 c 0,15,16
 90 -171 90 -171 122 -142.5 c 128,-1,17
 154 -114 154 -114 214 -114 c 256,18,19
 274 -114 274 -114 306 -142.5 c 128,-1,20
 338 -171 338 -171 338 -226 c 0,21,22
 338 -280 338 -280 306 -310.5 c 128,-1,23
 274 -341 274 -341 214 -341 c 256,12,13
EndSplineSet
EndChar

StartChar: uni0326
Encoding: 806 806 444
Width: 0
GlyphClass: 4
Flags: W
AnchorPoint: "Anchor-5" 0 -481 basemark 0
AnchorPoint: "Anchor-5" 0 0 mark 0
AnchorPoint: "Anchor-4" 0 0 mark 0
LayerCount: 2
Fore
SplineSet
-127 -398 m 1,0,1
 -47 -381 -47 -381 -20 -357.5 c 128,-1,2
 7 -334 7 -334 7 -298 c 0,3,4
 7 -273 7 -273 -11 -258.5 c 128,-1,5
 -29 -244 -29 -244 -52.5 -234.5 c 128,-1,6
 -76 -225 -76 -225 -94 -216.5 c 128,-1,7
 -112 -208 -112 -208 -112 -197 c 0,8,9
 -112 -146 -112 -146 -81.5 -117 c 128,-1,10
 -51 -88 -51 -88 11 -88 c 0,11,12
 67 -88 67 -88 102.5 -121.5 c 128,-1,13
 138 -155 138 -155 138 -231 c 0,14,15
 138 -280 138 -280 118.5 -326.5 c 128,-1,16
 99 -373 99 -373 45.5 -410 c 128,-1,17
 -8 -447 -8 -447 -111 -468 c 1,18,-1
 -127 -398 l 1,0,1
EndSplineSet
EndChar

StartChar: uni0327
Encoding: 807 807 445
Width: 0
GlyphClass: 4
Flags: W
AnchorPoint: "Anchor-5" 9 -481 basemark 0
AnchorPoint: "Anchor-5" 0 0 mark 0
AnchorPoint: "Anchor-4" 0 0 mark 0
LayerCount: 2
Fore
SplineSet
-86 -481 m 0,0,1
 -175 -481 -175 -481 -208 -458 c 128,-1,2
 -241 -435 -241 -435 -241 -397 c 0,3,4
 -241 -368 -241 -368 -222.5 -351.5 c 128,-1,5
 -204 -335 -204 -335 -184 -335 c 0,6,7
 -171 -335 -171 -335 -153 -352 c 128,-1,8
 -135 -369 -135 -369 -110.5 -386 c 128,-1,9
 -86 -403 -86 -403 -55 -403 c 0,10,11
 -3 -403 -3 -403 22.5 -383 c 128,-1,12
 48 -363 48 -363 48 -325 c 0,13,14
 48 -298 48 -298 31.5 -279.5 c 128,-1,15
 15 -261 15 -261 -32.5 -246 c 128,-1,16
 -80 -231 -80 -231 -173 -216 c 1,17,-1
 -173 -195 l 1,18,-1
 -1 30 l 1,19,-1
 99 30 l 1,20,-1
 -67 -183 l 1,21,-1
 -75 -103 l 1,22,23
 28 -122 28 -122 82.5 -150 c 128,-1,24
 137 -178 137 -178 157 -213 c 128,-1,25
 177 -248 177 -248 177 -289 c 0,26,27
 177 -351 177 -351 143.5 -394 c 128,-1,28
 110 -437 110 -437 50.5 -459 c 128,-1,29
 -9 -481 -9 -481 -86 -481 c 0,0,1
EndSplineSet
EndChar

StartChar: uni0328
Encoding: 808 808 446
Width: 0
GlyphClass: 4
Flags: W
AnchorPoint: "Anchor-3" 0 0 mark 0
LayerCount: 2
Fore
SplineSet
-133 -92 m 2,0,1
 -163 -137 -163 -137 -179.5 -169.5 c 128,-1,2
 -196 -202 -196 -202 -203 -227.5 c 128,-1,3
 -210 -253 -210 -253 -210 -277 c 0,4,5
 -210 -322 -210 -322 -185 -346.5 c 128,-1,6
 -160 -371 -160 -371 -117 -371 c 0,7,8
 -87 -371 -87 -371 -60.5 -362 c 128,-1,9
 -34 -353 -34 -353 8 -325 c 1,10,-1
 15 -384 l 1,11,12
 -22 -420 -22 -420 -53.5 -441.5 c 128,-1,13
 -85 -463 -85 -463 -116 -472 c 128,-1,14
 -147 -481 -147 -481 -186 -481 c 0,15,16
 -272 -481 -272 -481 -314 -438.5 c 128,-1,17
 -356 -396 -356 -396 -356 -326 c 0,18,19
 -356 -294 -356 -294 -347 -262 c 128,-1,20
 -338 -230 -338 -230 -312 -189 c 128,-1,21
 -286 -148 -286 -148 -236 -91 c 2,22,-1
 -119 45 l 1,23,-1
 -45 45 l 1,24,-1
 -133 -92 l 2,0,1
EndSplineSet
EndChar

StartChar: uni032E
Encoding: 814 814 447
Width: 0
GlyphClass: 4
Flags: W
AnchorPoint: "Anchor-5" 0 -481 basemark 0
AnchorPoint: "Anchor-5" 0 0 mark 0
AnchorPoint: "Anchor-4" 0 0 mark 0
LayerCount: 2
Fore
SplineSet
0 -251 m 0,0,1
 61 -251 61 -251 102 -233 c 128,-1,2
 143 -215 143 -215 169.5 -173 c 128,-1,3
 196 -131 196 -131 212 -60 c 1,4,-1
 311 -60 l 1,5,6
 290 -189 290 -189 253 -261.5 c 128,-1,7
 216 -334 216 -334 154.5 -363.5 c 128,-1,8
 93 -393 93 -393 0 -393 c 0,9,10
 -92 -393 -92 -393 -154 -363.5 c 128,-1,11
 -216 -334 -216 -334 -253 -261.5 c 128,-1,12
 -290 -189 -290 -189 -311 -60 c 1,13,-1
 -211 -60 l 1,14,15
 -195 -131 -195 -131 -169 -173 c 128,-1,16
 -143 -215 -143 -215 -101.5 -233 c 128,-1,17
 -60 -251 -60 -251 0 -251 c 0,0,1
EndSplineSet
EndChar

StartChar: uni0331
Encoding: 817 817 448
Width: 0
GlyphClass: 4
Flags: W
AnchorPoint: "Anchor-5" 0 -481 basemark 0
AnchorPoint: "Anchor-5" 0 0 mark 0
AnchorPoint: "Anchor-4" 0 0 mark 0
LayerCount: 2
Fore
SplineSet
-294 -293 m 1,0,-1
 -294 -168 l 1,1,-1
 294 -168 l 1,2,-1
 294 -293 l 1,3,-1
 -294 -293 l 1,0,-1
EndSplineSet
EndChar

StartChar: gravecomb.case
Encoding: 65548 -1 451
Width: 0
GlyphClass: 1
Flags: W
LayerCount: 2
Fore
SplineSet
63 1527 m 1,0,-1
 -44 1527 l 1,1,-1
 -348 1795 l 1,2,-1
 -348 1832 l 1,3,-1
 -102 1832 l 1,4,-1
 63 1527 l 1,0,-1
EndSplineSet
EndChar

StartChar: acutecomb.case
Encoding: 65549 -1 452
Width: 0
GlyphClass: 1
Flags: W
LayerCount: 2
Fore
SplineSet
-63 1527 m 1,0,-1
 103 1832 l 1,1,-1
 349 1832 l 1,2,-1
 349 1795 l 1,3,-1
 45 1527 l 1,4,-1
 -63 1527 l 1,0,-1
EndSplineSet
EndChar

StartChar: uni0302.case
Encoding: 65550 -1 453
Width: 0
GlyphClass: 1
Flags: W
LayerCount: 2
Fore
SplineSet
-24 1724 m 1,0,-1
 24 1724 l 1,1,-1
 -197 1527 l 1,2,-1
 -338 1527 l 1,3,-1
 -90 1832 l 1,4,-1
 90 1832 l 1,5,-1
 338 1527 l 1,6,-1
 197 1527 l 1,7,-1
 -24 1724 l 1,0,-1
EndSplineSet
EndChar

StartChar: tildecomb.case
Encoding: 65551 -1 454
Width: 0
GlyphClass: 1
Flags: W
LayerCount: 2
Fore
SplineSet
323 1822 m 1,0,1
 307 1701 307 1701 283.5 1638.5 c 128,-1,2
 260 1576 260 1576 224 1553.5 c 128,-1,3
 188 1531 188 1531 134 1531 c 0,4,5
 92 1531 92 1531 53 1553.5 c 128,-1,6
 14 1576 14 1576 -21.5 1605.5 c 128,-1,7
 -57 1635 -57 1635 -87 1657.5 c 128,-1,8
 -117 1680 -117 1680 -143 1680 c 0,9,10
 -161 1680 -161 1680 -175 1670 c 128,-1,11
 -189 1660 -189 1660 -200 1629 c 128,-1,12
 -211 1598 -211 1598 -222 1537 c 1,13,-1
 -332 1537 l 1,14,15
 -316 1657 -316 1657 -292.5 1719.5 c 128,-1,16
 -269 1782 -269 1782 -232.5 1805 c 128,-1,17
 -196 1828 -196 1828 -143 1828 c 0,18,19
 -101 1828 -101 1828 -62 1805.5 c 128,-1,20
 -23 1783 -23 1783 12.5 1753 c 128,-1,21
 48 1723 48 1723 78.5 1700.5 c 128,-1,22
 109 1678 109 1678 134 1678 c 0,23,24
 153 1678 153 1678 166.5 1688.5 c 128,-1,25
 180 1699 180 1699 191.5 1730 c 128,-1,26
 203 1761 203 1761 214 1822 c 1,27,-1
 323 1822 l 1,0,1
EndSplineSet
EndChar

StartChar: uni0304.case
Encoding: 65552 -1 455
Width: 0
GlyphClass: 1
Flags: W
LayerCount: 2
Fore
SplineSet
-294 1617 m 1,0,-1
 -294 1742 l 1,1,-1
 294 1742 l 1,2,-1
 294 1617 l 1,3,-1
 -294 1617 l 1,0,-1
EndSplineSet
EndChar

StartChar: uni0306.case
Encoding: 65553 -1 456
Width: 0
GlyphClass: 1
Flags: W
LayerCount: 2
Fore
SplineSet
0 1661 m 0,0,1
 90 1661 90 1661 138 1698 c 128,-1,2
 186 1735 186 1735 209 1832 c 1,3,-1
 310 1832 l 1,4,5
 290 1711 290 1711 253 1643.5 c 128,-1,6
 216 1576 216 1576 154.5 1549 c 128,-1,7
 93 1522 93 1522 0 1522 c 0,8,9
 -92 1522 -92 1522 -153.5 1549 c 128,-1,10
 -215 1576 -215 1576 -252 1643.5 c 128,-1,11
 -289 1711 -289 1711 -309 1832 c 1,12,-1
 -209 1832 l 1,13,14
 -186 1735 -186 1735 -137.5 1698 c 128,-1,15
 -89 1661 -89 1661 0 1661 c 0,0,1
EndSplineSet
EndChar

StartChar: uni0307.case
Encoding: 65554 -1 457
Width: 0
GlyphClass: 1
Flags: W
LayerCount: 2
Fore
SplineSet
0 1561 m 0,0,1
 -69 1561 -69 1561 -105.5 1592.5 c 128,-1,2
 -142 1624 -142 1624 -142 1681 c 256,3,4
 -142 1738 -142 1738 -105.5 1768 c 128,-1,5
 -69 1798 -69 1798 0 1798 c 0,6,7
 70 1798 70 1798 106 1768 c 128,-1,8
 142 1738 142 1738 142 1681 c 256,9,10
 142 1624 142 1624 106 1592.5 c 128,-1,11
 70 1561 70 1561 0 1561 c 0,0,1
EndSplineSet
EndChar

StartChar: uni0308.case
Encoding: 65555 -1 458
Width: 0
GlyphClass: 1
Flags: W
LayerCount: 2
Fore
SplineSet
-214 1566 m 0,0,1
 -274 1566 -274 1566 -306 1596.5 c 128,-1,2
 -338 1627 -338 1627 -338 1681 c 0,3,4
 -338 1736 -338 1736 -306 1764.5 c 128,-1,5
 -274 1793 -274 1793 -214 1793 c 0,6,7
 -153 1793 -153 1793 -121.5 1764.5 c 128,-1,8
 -90 1736 -90 1736 -90 1681 c 0,9,10
 -90 1627 -90 1627 -121.5 1596.5 c 128,-1,11
 -153 1566 -153 1566 -214 1566 c 0,0,1
214 1566 m 256,12,13
 154 1566 154 1566 122 1596.5 c 128,-1,14
 90 1627 90 1627 90 1681 c 0,15,16
 90 1736 90 1736 122 1764.5 c 128,-1,17
 154 1793 154 1793 214 1793 c 256,18,19
 274 1793 274 1793 306 1764.5 c 128,-1,20
 338 1736 338 1736 338 1681 c 0,21,22
 338 1627 338 1627 306 1596.5 c 128,-1,23
 274 1566 274 1566 214 1566 c 256,12,13
EndSplineSet
EndChar

StartChar: hookabovecomb.case
Encoding: 65556 -1 459
Width: 0
GlyphClass: 1
Flags: W
LayerCount: 2
Fore
SplineSet
-186 1748 m 1,0,-1
 -173 1883 l 1,1,2
 -52 1880 -52 1880 23 1867 c 128,-1,3
 98 1854 98 1854 138 1832.5 c 128,-1,4
 178 1811 178 1811 192.5 1781 c 128,-1,5
 207 1751 207 1751 207 1714 c 0,6,7
 207 1666 207 1666 183 1627.5 c 128,-1,8
 159 1589 159 1589 97.5 1560 c 128,-1,9
 36 1531 36 1531 -78 1509 c 1,10,-1
 -94 1579 l 1,11,12
 -25 1594 -25 1594 8.5 1608 c 128,-1,13
 42 1622 42 1622 53.5 1637.5 c 128,-1,14
 65 1653 65 1653 65 1673 c 0,15,16
 65 1696 65 1696 47.5 1712 c 128,-1,17
 30 1728 30 1728 -23.5 1737 c 128,-1,18
 -77 1746 -77 1746 -186 1748 c 1,0,-1
EndSplineSet
EndChar

StartChar: uni030A.case
Encoding: 65557 -1 460
Width: 0
GlyphClass: 1
Flags: W
LayerCount: 2
Fore
SplineSet
-1 1863 m 256,0,1
 84 1863 84 1863 134 1814 c 128,-1,2
 184 1765 184 1765 184 1682 c 256,3,4
 184 1599 184 1599 134 1549.5 c 128,-1,5
 84 1500 84 1500 -1 1500 c 256,6,7
 -86 1500 -86 1500 -136.5 1549.5 c 128,-1,8
 -187 1599 -187 1599 -187 1682 c 256,9,10
 -187 1765 -187 1765 -136.5 1814 c 128,-1,11
 -86 1863 -86 1863 -1 1863 c 256,0,1
-1 1565 m 0,12,13
 53 1565 53 1565 83.5 1596.5 c 128,-1,14
 114 1628 114 1628 114 1682 c 0,15,16
 114 1737 114 1737 83.5 1768.5 c 128,-1,17
 53 1800 53 1800 -1 1800 c 0,18,19
 -56 1800 -56 1800 -86.5 1768.5 c 128,-1,20
 -117 1737 -117 1737 -117 1682 c 0,21,22
 -117 1628 -117 1628 -86.5 1596.5 c 128,-1,23
 -56 1565 -56 1565 -1 1565 c 0,12,13
EndSplineSet
EndChar

StartChar: uni030B.case
Encoding: 65558 -1 461
Width: 0
GlyphClass: 1
Flags: W
LayerCount: 2
Fore
SplineSet
84 1527 m 1,0,-1
 271 1832 l 1,1,-1
 513 1832 l 1,2,-1
 513 1796 l 1,3,-1
 191 1527 l 1,4,-1
 84 1527 l 1,0,-1
-209 1527 m 1,5,-1
 -119 1832 l 1,6,-1
 105 1832 l 1,7,-1
 105 1799 l 1,8,-1
 -111 1527 l 1,9,-1
 -209 1527 l 1,5,-1
EndSplineSet
EndChar

StartChar: uni030C.case
Encoding: 65559 -1 462
Width: 0
GlyphClass: 1
Flags: W
LayerCount: 2
Fore
SplineSet
24 1635 m 1,0,-1
 -24 1635 l 1,1,-1
 197 1832 l 1,2,-1
 338 1832 l 1,3,-1
 90 1527 l 1,4,-1
 -90 1527 l 1,5,-1
 -338 1832 l 1,6,-1
 -197 1832 l 1,7,-1
 24 1635 l 1,0,-1
EndSplineSet
EndChar

StartChar: uni030F.case
Encoding: 65560 -1 463
Width: 0
GlyphClass: 1
Flags: W
LayerCount: 2
Fore
SplineSet
-84 1527 m 1,0,-1
 -191 1527 l 1,1,-1
 -513 1796 l 1,2,-1
 -513 1832 l 1,3,-1
 -270 1832 l 1,4,-1
 -84 1527 l 1,0,-1
210 1527 m 1,5,-1
 111 1527 l 1,6,-1
 -105 1799 l 1,7,-1
 -105 1832 l 1,8,-1
 119 1832 l 1,9,-1
 210 1527 l 1,5,-1
EndSplineSet
EndChar

StartChar: uni0311.case
Encoding: 65561 -1 464
Width: 0
GlyphClass: 1
Flags: W
LayerCount: 2
Fore
SplineSet
0 1698 m 0,0,1
 -89 1698 -89 1698 -137.5 1661 c 128,-1,2
 -186 1624 -186 1624 -209 1527 c 1,3,-1
 -309 1527 l 1,4,5
 -289 1648 -289 1648 -252 1715 c 128,-1,6
 -215 1782 -215 1782 -153.5 1809.5 c 128,-1,7
 -92 1837 -92 1837 0 1837 c 0,8,9
 93 1837 93 1837 154 1809.5 c 128,-1,10
 215 1782 215 1782 252.5 1715 c 128,-1,11
 290 1648 290 1648 310 1527 c 1,12,-1
 209 1527 l 1,13,14
 186 1624 186 1624 138 1661 c 128,-1,15
 90 1698 90 1698 0 1698 c 0,0,1
EndSplineSet
EndChar

StartChar: uni0312.case
Encoding: 65562 -1 465
Width: 0
GlyphClass: 1
Flags: W
LayerCount: 2
Fore
SplineSet
130 1631 m 0,0,1
 130 1585 130 1585 101 1549.5 c 128,-1,2
 72 1514 72 1514 8 1514 c 0,3,4
 -46 1514 -46 1514 -83 1544.5 c 128,-1,5
 -120 1575 -120 1575 -120 1649 c 0,6,7
 -120 1693 -120 1693 -99 1735.5 c 128,-1,8
 -78 1778 -78 1778 -25 1811.5 c 128,-1,9
 28 1845 28 1845 124 1861 c 1,10,-1
 140 1795 l 1,11,12
 70 1784 70 1784 44.5 1762.5 c 128,-1,13
 19 1741 19 1741 19 1714 c 0,14,15
 19 1693 19 1693 35.5 1680.5 c 128,-1,16
 52 1668 52 1668 74 1660 c 128,-1,17
 96 1652 96 1652 113 1645.5 c 128,-1,18
 130 1639 130 1639 130 1631 c 0,0,1
EndSplineSet
EndChar

StartChar: uni0302_acutecomb.case
Encoding: 65563 -1 466
Width: 0
GlyphClass: 1
Flags: W
LayerCount: 2
Fore
SplineSet
280 1712 m 1,0,-1
 404 1967 l 1,1,-1
 640 1967 l 1,2,-1
 640 1934 l 1,3,-1
 383 1712 l 1,4,-1
 280 1712 l 1,0,-1
-24 1724 m 1,5,-1
 24 1724 l 1,6,-1
 -197 1527 l 1,7,-1
 -338 1527 l 1,8,-1
 -90 1832 l 1,9,-1
 90 1832 l 1,10,-1
 338 1527 l 1,11,-1
 197 1527 l 1,12,-1
 -24 1724 l 1,5,-1
EndSplineSet
EndChar

StartChar: uni0302_gravecomb.case
Encoding: 65564 -1 467
Width: 0
GlyphClass: 1
Flags: W
LayerCount: 2
Fore
SplineSet
-280 1712 m 1,0,-1
 -382 1712 l 1,1,-1
 -640 1934 l 1,2,-1
 -640 1967 l 1,3,-1
 -404 1967 l 1,4,-1
 -280 1712 l 1,0,-1
24 1724 m 1,5,-1
 -197 1527 l 1,6,-1
 -338 1527 l 1,7,-1
 -90 1832 l 1,8,-1
 90 1832 l 1,9,-1
 338 1527 l 1,10,-1
 197 1527 l 1,11,-1
 -24 1724 l 1,12,-1
 24 1724 l 1,5,-1
EndSplineSet
EndChar

StartChar: uni0302_hookabovecomb.case
Encoding: 65565 -1 468
Width: 0
GlyphClass: 1
Flags: W
LayerCount: 2
Fore
SplineSet
24 1724 m 1,0,-1
 -197 1527 l 1,1,-1
 -338 1527 l 1,2,-1
 -90 1832 l 1,3,-1
 90 1832 l 1,4,-1
 338 1527 l 1,5,-1
 197 1527 l 1,6,-1
 -24 1724 l 1,7,-1
 24 1724 l 1,0,-1
277 1772 m 1,8,9
 357 1791 357 1791 382 1813.5 c 128,-1,10
 407 1836 407 1836 407 1868 c 0,11,12
 407 1889 407 1889 391.5 1906 c 128,-1,13
 376 1923 376 1923 326.5 1934 c 128,-1,14
 277 1945 277 1945 175 1946 c 1,15,-1
 188 2076 l 1,16,17
 303 2073 303 2073 373.5 2060 c 128,-1,18
 444 2047 444 2047 482 2025.5 c 128,-1,19
 520 2004 520 2004 534 1974.5 c 128,-1,20
 548 1945 548 1945 548 1908 c 0,21,22
 548 1859 548 1859 526.5 1820.5 c 128,-1,23
 505 1782 505 1782 450 1753 c 128,-1,24
 395 1724 395 1724 293 1704 c 1,25,-1
 277 1772 l 1,8,9
EndSplineSet
EndChar

StartChar: uni0302_tildecomb.case
Encoding: 65566 -1 469
Width: 0
GlyphClass: 1
Flags: W
LayerCount: 2
Fore
SplineSet
28 1640 m 1,0,-1
 -186 1489 l 1,1,-1
 -313 1489 l 1,2,-1
 -103 1718 l 1,3,-1
 103 1718 l 1,4,-1
 313 1489 l 1,5,-1
 186 1489 l 1,6,-1
 -28 1640 l 1,7,-1
 28 1640 l 1,0,-1
-196 1765 m 1,8,-1
 -293 1765 l 1,9,10
 -278 1844 -278 1844 -257.5 1888 c 128,-1,11
 -237 1932 -237 1932 -203.5 1949.5 c 128,-1,12
 -170 1967 -170 1967 -119 1967 c 0,13,14
 -86 1967 -86 1967 -54.5 1953 c 128,-1,15
 -23 1939 -23 1939 7.5 1920.5 c 128,-1,16
 38 1902 38 1902 65.5 1888 c 128,-1,17
 93 1874 93 1874 116 1874 c 0,18,19
 150 1874 150 1874 167 1891 c 128,-1,20
 184 1908 184 1908 196 1965 c 1,21,-1
 294 1965 l 1,22,23
 279 1885 279 1885 258.5 1841 c 128,-1,24
 238 1797 238 1797 204.5 1779.5 c 128,-1,25
 171 1762 171 1762 119 1762 c 0,26,27
 86 1762 86 1762 54 1776 c 128,-1,28
 22 1790 22 1790 -8 1808.5 c 128,-1,29
 -38 1827 -38 1827 -65.5 1841 c 128,-1,30
 -93 1855 -93 1855 -116 1855 c 0,31,32
 -149 1855 -149 1855 -166 1838 c 128,-1,33
 -183 1821 -183 1821 -196 1765 c 1,8,-1
EndSplineSet
EndChar

StartChar: uni0306_acutecomb.case
Encoding: 65567 -1 470
Width: 0
GlyphClass: 1
Flags: W
LayerCount: 2
Fore
SplineSet
-37 1694 m 1,0,-1
 91 1965 l 1,1,-1
 291 1965 l 1,2,-1
 291 1939 l 1,3,-1
 47 1694 l 1,4,-1
 -37 1694 l 1,0,-1
0 1598 m 256,5,6
 90 1598 90 1598 134.5 1626.5 c 128,-1,7
 179 1655 179 1655 198 1718 c 1,8,-1
 293 1718 l 1,9,10
 275 1627 275 1627 238.5 1576 c 128,-1,11
 202 1525 202 1525 143.5 1504.5 c 128,-1,12
 85 1484 85 1484 0 1484 c 256,13,14
 -85 1484 -85 1484 -143.5 1504.5 c 128,-1,15
 -202 1525 -202 1525 -238 1576 c 128,-1,16
 -274 1627 -274 1627 -293 1718 c 1,17,-1
 -198 1718 l 1,18,19
 -179 1655 -179 1655 -134.5 1626.5 c 128,-1,20
 -90 1598 -90 1598 0 1598 c 256,5,6
EndSplineSet
EndChar

StartChar: uni0306_gravecomb.case
Encoding: 65568 -1 471
Width: 0
GlyphClass: 1
Flags: W
LayerCount: 2
Fore
SplineSet
38 1694 m 1,0,-1
 -47 1694 l 1,1,-1
 -291 1939 l 1,2,-1
 -291 1965 l 1,3,-1
 -91 1965 l 1,4,-1
 38 1694 l 1,0,-1
0 1598 m 256,5,6
 90 1598 90 1598 134.5 1626.5 c 128,-1,7
 179 1655 179 1655 198 1718 c 1,8,-1
 293 1718 l 1,9,10
 275 1627 275 1627 238.5 1576 c 128,-1,11
 202 1525 202 1525 143.5 1504.5 c 128,-1,12
 85 1484 85 1484 0 1484 c 256,13,14
 -85 1484 -85 1484 -143.5 1504.5 c 128,-1,15
 -202 1525 -202 1525 -238 1576 c 128,-1,16
 -274 1627 -274 1627 -293 1718 c 1,17,-1
 -198 1718 l 1,18,19
 -179 1655 -179 1655 -134.5 1626.5 c 128,-1,20
 -90 1598 -90 1598 0 1598 c 256,5,6
EndSplineSet
EndChar

StartChar: uni0306_hookabovecomb.case
Encoding: 65569 -1 472
Width: 0
GlyphClass: 1
Flags: W
LayerCount: 2
Fore
SplineSet
0 1598 m 256,0,1
 90 1598 90 1598 135 1626 c 128,-1,2
 180 1654 180 1654 198 1715 c 1,3,-1
 293 1715 l 1,4,5
 275 1625 275 1625 238.5 1574.5 c 128,-1,6
 202 1524 202 1524 143.5 1504 c 128,-1,7
 85 1484 85 1484 0 1484 c 256,8,9
 -85 1484 -85 1484 -143.5 1504 c 128,-1,10
 -202 1524 -202 1524 -238 1574.5 c 128,-1,11
 -274 1625 -274 1625 -293 1715 c 1,12,-1
 -198 1715 l 1,13,14
 -179 1654 -179 1654 -134.5 1626 c 128,-1,15
 -90 1598 -90 1598 0 1598 c 256,0,1
-43 1755 m 1,16,17
 44 1771 44 1771 69.5 1788 c 128,-1,18
 95 1805 95 1805 95 1830 c 0,19,20
 95 1850 95 1850 81 1863 c 128,-1,21
 67 1876 67 1876 24.5 1884.5 c 128,-1,22
 -18 1893 -18 1893 -106 1895 c 1,23,-1
 -93 2012 l 1,24,25
 23 2007 23 2007 87 1987 c 128,-1,26
 151 1967 151 1967 176.5 1934.5 c 128,-1,27
 202 1902 202 1902 202 1859 c 0,28,29
 202 1810 202 1810 180 1776.5 c 128,-1,30
 158 1743 158 1743 107.5 1722 c 128,-1,31
 57 1701 57 1701 -29 1688 c 1,32,-1
 -43 1755 l 1,16,17
EndSplineSet
EndChar

StartChar: uni0306_tildecomb.case
Encoding: 65570 -1 473
Width: 0
GlyphClass: 1
Flags: W
LayerCount: 2
Fore
SplineSet
0 1598 m 256,0,1
 90 1598 90 1598 135 1626 c 128,-1,2
 180 1654 180 1654 198 1715 c 1,3,-1
 293 1715 l 1,4,5
 275 1625 275 1625 238.5 1574.5 c 128,-1,6
 202 1524 202 1524 143.5 1504 c 128,-1,7
 85 1484 85 1484 0 1484 c 256,8,9
 -85 1484 -85 1484 -143.5 1504 c 128,-1,10
 -202 1524 -202 1524 -238 1574.5 c 128,-1,11
 -274 1625 -274 1625 -293 1715 c 1,12,-1
 -198 1715 l 1,13,14
 -179 1654 -179 1654 -134.5 1626 c 128,-1,15
 -90 1598 -90 1598 0 1598 c 256,0,1
-196 1765 m 1,16,-1
 -293 1765 l 1,17,18
 -278 1844 -278 1844 -257.5 1888 c 128,-1,19
 -237 1932 -237 1932 -203.5 1949.5 c 128,-1,20
 -170 1967 -170 1967 -119 1967 c 0,21,22
 -86 1967 -86 1967 -54.5 1953 c 128,-1,23
 -23 1939 -23 1939 7.5 1920.5 c 128,-1,24
 38 1902 38 1902 65.5 1888 c 128,-1,25
 93 1874 93 1874 116 1874 c 0,26,27
 150 1874 150 1874 167 1891 c 128,-1,28
 184 1908 184 1908 196 1965 c 1,29,-1
 294 1965 l 1,30,31
 279 1885 279 1885 258.5 1841 c 128,-1,32
 238 1797 238 1797 204.5 1779.5 c 128,-1,33
 171 1762 171 1762 119 1762 c 0,34,35
 86 1762 86 1762 54 1776 c 128,-1,36
 22 1790 22 1790 -8 1808.5 c 128,-1,37
 -38 1827 -38 1827 -65.5 1841 c 128,-1,38
 -93 1855 -93 1855 -116 1855 c 0,39,40
 -149 1855 -149 1855 -166 1838 c 128,-1,41
 -183 1821 -183 1821 -196 1765 c 1,16,-1
EndSplineSet
EndChar

StartChar: comma
Encoding: 44 44 474
Width: 534
GlyphClass: 1
Flags: W
LayerCount: 2
Fore
SplineSet
57 -288 m 1,0,1
 160 -209 160 -209 200 -150 c 128,-1,2
 240 -91 240 -91 240 -34 c 0,3,4
 240 -1 240 -1 221 23.5 c 128,-1,5
 202 48 202 48 177 66.5 c 128,-1,6
 152 85 152 85 133.5 101 c 128,-1,7
 115 117 115 117 115 134 c 0,8,9
 115 199 115 199 152.5 237.5 c 128,-1,10
 190 276 190 276 260 276 c 0,11,12
 333 276 333 276 373 236 c 128,-1,13
 413 196 413 196 413 110 c 0,14,15
 413 52 413 52 397.5 -3.5 c 128,-1,16
 382 -59 382 -59 347.5 -114.5 c 128,-1,17
 313 -170 313 -170 254.5 -229 c 128,-1,18
 196 -288 196 -288 111 -353 c 1,19,-1
 57 -288 l 1,0,1
EndSplineSet
EndChar

StartChar: semicolon
Encoding: 59 59 475
Width: 601
GlyphClass: 1
Flags: W
LayerCount: 2
Fore
SplineSet
97 -288 m 1,0,1
 200 -209 200 -209 240 -150 c 128,-1,2
 280 -91 280 -91 280 -34 c 0,3,4
 280 -1 280 -1 261 23.5 c 128,-1,5
 242 48 242 48 217 66.5 c 128,-1,6
 192 85 192 85 173.5 101 c 128,-1,7
 155 117 155 117 155 134 c 0,8,9
 155 199 155 199 192.5 237.5 c 128,-1,10
 230 276 230 276 300 276 c 0,11,12
 373 276 373 276 413 236 c 128,-1,13
 453 196 453 196 453 110 c 0,14,15
 453 52 453 52 437.5 -3.5 c 128,-1,16
 422 -59 422 -59 387.5 -114.5 c 128,-1,17
 353 -170 353 -170 294.5 -229 c 128,-1,18
 236 -288 236 -288 151 -353 c 1,19,-1
 97 -288 l 1,0,1
298 994 m 256,20,21
 364 994 364 994 405 956 c 128,-1,22
 446 918 446 918 446 849 c 0,23,24
 446 781 446 781 405 742.5 c 128,-1,25
 364 704 364 704 298 704 c 256,26,27
 232 704 232 704 191 742.5 c 128,-1,28
 150 781 150 781 150 849 c 0,29,30
 150 918 150 918 191 956 c 128,-1,31
 232 994 232 994 298 994 c 256,20,21
EndSplineSet
EndChar

StartChar: colon
Encoding: 58 58 476
Width: 582
GlyphClass: 1
Flags: W
LayerCount: 2
Fore
SplineSet
291 277 m 256,0,1
 357 277 357 277 398 238.5 c 128,-1,2
 439 200 439 200 439 131 c 0,3,4
 439 63 439 63 398 24.5 c 128,-1,5
 357 -14 357 -14 291 -14 c 256,6,7
 225 -14 225 -14 184 24.5 c 128,-1,8
 143 63 143 63 143 131 c 0,9,10
 143 200 143 200 184 238.5 c 128,-1,11
 225 277 225 277 291 277 c 256,0,1
291 994 m 256,12,13
 357 994 357 994 398 956 c 128,-1,14
 439 918 439 918 439 849 c 0,15,16
 439 781 439 781 398 742.5 c 128,-1,17
 357 704 357 704 291 704 c 256,18,19
 225 704 225 704 184 742.5 c 128,-1,20
 143 781 143 781 143 849 c 0,21,22
 143 918 143 918 184 956 c 128,-1,23
 225 994 225 994 291 994 c 256,12,13
EndSplineSet
EndChar

StartChar: period
Encoding: 46 46 478
Width: 529
GlyphClass: 1
Flags: W
LayerCount: 2
Fore
SplineSet
264 277 m 0,0,1
 331 277 331 277 371.5 238.5 c 128,-1,2
 412 200 412 200 412 131 c 0,3,4
 412 63 412 63 371.5 24.5 c 128,-1,5
 331 -14 331 -14 264 -14 c 0,6,7
 198 -14 198 -14 157 24.5 c 128,-1,8
 116 63 116 63 116 131 c 0,9,10
 116 200 116 200 157 238.5 c 128,-1,11
 198 277 198 277 264 277 c 0,0,1
EndSplineSet
EndChar

StartChar: hyphen
Encoding: 45 45 479
Width: 784
GlyphClass: 1
Flags: W
LayerCount: 2
Fore
SplineSet
144 581 m 1,0,-1
 640 581 l 1,1,-1
 640 421 l 1,2,-1
 144 421 l 1,3,-1
 144 581 l 1,0,-1
EndSplineSet
Substitution2: "'case' Case-Sensitive Forms in Latin lookup 9 subtable" hyphen.case
EndChar

StartChar: exclam
Encoding: 33 33 483
Width: 617
GlyphClass: 1
Flags: W
LayerCount: 2
Fore
SplineSet
420 1368 m 2,0,-1
 419 1272 l 2,1,2
 419 1256 419 1256 415.5 1200 c 128,-1,3
 412 1144 412 1144 406.5 1062 c 128,-1,4
 401 980 401 980 394.5 887 c 128,-1,5
 388 794 388 794 382 703.5 c 128,-1,6
 376 613 376 613 371 540 c 128,-1,7
 366 467 366 467 363 425 c 1,8,-1
 255 425 l 1,9,10
 252 467 252 467 247 540 c 128,-1,11
 242 613 242 613 235.5 703.5 c 128,-1,12
 229 794 229 794 222.5 887 c 128,-1,13
 216 980 216 980 210.5 1062 c 128,-1,14
 205 1144 205 1144 202 1200 c 128,-1,15
 199 1256 199 1256 198 1272 c 2,16,-1
 197 1368 l 2,17,18
 197 1383 197 1383 208 1393.5 c 128,-1,19
 219 1404 219 1404 243.5 1409.5 c 128,-1,20
 268 1415 268 1415 309 1415 c 256,21,22
 350 1415 350 1415 374.5 1409.5 c 128,-1,23
 399 1404 399 1404 410 1393.5 c 128,-1,24
 421 1383 421 1383 420 1368 c 2,0,-1
308 277 m 0,25,26
 375 277 375 277 415.5 238.5 c 128,-1,27
 456 200 456 200 456 131 c 0,28,29
 456 63 456 63 415.5 24.5 c 128,-1,30
 375 -14 375 -14 308 -14 c 0,31,32
 242 -14 242 -14 201 24.5 c 128,-1,33
 160 63 160 63 160 131 c 0,34,35
 160 200 160 200 201 238.5 c 128,-1,36
 242 277 242 277 308 277 c 0,25,26
EndSplineSet
EndChar

StartChar: exclamdown
Encoding: 161 161 484
Width: 583
GlyphClass: 1
Flags: W
LayerCount: 2
Fore
SplineSet
180 -388 m 2,0,-1
 181 -292 l 2,1,2
 181 -276 181 -276 184.5 -219.5 c 128,-1,3
 188 -163 188 -163 193.5 -81 c 128,-1,4
 199 1 199 1 205.5 94 c 128,-1,5
 212 187 212 187 218 277 c 128,-1,6
 224 367 224 367 229.5 440.5 c 128,-1,7
 235 514 235 514 237 555 c 1,8,-1
 345 555 l 1,9,10
 348 514 348 514 353 440.5 c 128,-1,11
 358 367 358 367 364.5 277 c 128,-1,12
 371 187 371 187 377.5 94 c 128,-1,13
 384 1 384 1 389.5 -81 c 128,-1,14
 395 -163 395 -163 398 -219.5 c 128,-1,15
 401 -276 401 -276 402 -292 c 2,16,-1
 403 -388 l 2,17,18
 403 -403 403 -403 392.5 -413.5 c 128,-1,19
 382 -424 382 -424 357 -429.5 c 128,-1,20
 332 -435 332 -435 291 -435 c 256,21,22
 250 -435 250 -435 225.5 -429.5 c 128,-1,23
 201 -424 201 -424 190.5 -413.5 c 128,-1,24
 180 -403 180 -403 180 -388 c 2,0,-1
292 704 m 0,25,26
 225 704 225 704 184.5 742 c 128,-1,27
 144 780 144 780 144 849 c 256,28,29
 144 918 144 918 184.5 956 c 128,-1,30
 225 994 225 994 292 994 c 0,31,32
 358 994 358 994 399 956 c 128,-1,33
 440 918 440 918 440 849 c 256,34,35
 440 780 440 780 399 742 c 128,-1,36
 358 704 358 704 292 704 c 0,25,26
EndSplineSet
Substitution2: "'case' Case-Sensitive Forms in Latin lookup 9 subtable" exclamdown.case
EndChar

StartChar: question
Encoding: 63 63 486
Width: 1095
GlyphClass: 1
Flags: W
LayerCount: 2
Fore
SplineSet
471 1416 m 0,0,1
 592 1416 592 1416 690.5 1387 c 128,-1,2
 789 1358 789 1358 859.5 1304.5 c 128,-1,3
 930 1251 930 1251 967 1177 c 128,-1,4
 1004 1103 1004 1103 1004 1013 c 0,5,6
 1004 901 1004 901 957 817.5 c 128,-1,7
 910 734 910 734 800.5 687.5 c 128,-1,8
 691 641 691 641 502 640 c 1,9,-1
 563 732 l 1,10,-1
 546 425 l 1,11,-1
 438 425 l 1,12,-1
 395 790 l 1,13,14
 553 788 553 788 645 813 c 128,-1,15
 737 838 737 838 776 890.5 c 128,-1,16
 815 943 815 943 815 1023 c 0,17,18
 815 1097 815 1097 782 1155.5 c 128,-1,19
 749 1214 749 1214 681 1248 c 128,-1,20
 613 1282 613 1282 509 1282 c 0,21,22
 432 1282 432 1282 381 1260 c 128,-1,23
 330 1238 330 1238 295.5 1209.5 c 128,-1,24
 261 1181 261 1181 235 1159.5 c 128,-1,25
 209 1138 209 1138 181 1138 c 0,26,27
 145 1138 145 1138 118 1151 c 128,-1,28
 91 1164 91 1164 76 1188.5 c 128,-1,29
 61 1213 61 1213 61 1245 c 0,30,31
 61 1288 61 1288 97.5 1326.5 c 128,-1,32
 134 1365 134 1365 223.5 1390.5 c 128,-1,33
 313 1416 313 1416 471 1416 c 0,0,1
494 277 m 0,34,35
 561 277 561 277 601.5 238.5 c 128,-1,36
 642 200 642 200 642 131 c 0,37,38
 642 63 642 63 601.5 24.5 c 128,-1,39
 561 -14 561 -14 494 -14 c 0,40,41
 428 -14 428 -14 387 24.5 c 128,-1,42
 346 63 346 63 346 131 c 0,43,44
 346 200 346 200 387 238.5 c 128,-1,45
 428 277 428 277 494 277 c 0,34,35
EndSplineSet
EndChar

StartChar: questiondown
Encoding: 191 191 487
Width: 1079
GlyphClass: 1
Flags: W
LayerCount: 2
Fore
SplineSet
618 -435 m 0,0,1
 496 -435 496 -435 397.5 -406 c 128,-1,2
 299 -377 299 -377 229 -323.5 c 128,-1,3
 159 -270 159 -270 121.5 -196 c 128,-1,4
 84 -122 84 -122 84 -33 c 0,5,6
 84 81 84 81 131 164 c 128,-1,7
 178 247 178 247 288 293 c 128,-1,8
 398 339 398 339 586 341 c 1,9,-1
 525 249 l 1,10,-1
 543 555 l 1,11,-1
 650 555 l 1,12,-1
 693 190 l 1,13,14
 535 192 535 192 443.5 167 c 128,-1,15
 352 142 352 142 313 90 c 128,-1,16
 274 38 274 38 274 -43 c 0,17,18
 274 -117 274 -117 307 -175.5 c 128,-1,19
 340 -234 340 -234 408 -267.5 c 128,-1,20
 476 -301 476 -301 579 -301 c 0,21,22
 656 -301 656 -301 707.5 -279.5 c 128,-1,23
 759 -258 759 -258 793.5 -229.5 c 128,-1,24
 828 -201 828 -201 854 -179.5 c 128,-1,25
 880 -158 880 -158 908 -158 c 0,26,27
 944 -158 944 -158 971 -171 c 128,-1,28
 998 -184 998 -184 1013 -208 c 128,-1,29
 1028 -232 1028 -232 1028 -265 c 0,30,31
 1028 -306 1028 -306 991 -345.5 c 128,-1,32
 954 -385 954 -385 864.5 -410 c 128,-1,33
 775 -435 775 -435 618 -435 c 0,0,1
594 704 m 0,34,35
 528 704 528 704 487 742 c 128,-1,36
 446 780 446 780 446 849 c 256,37,38
 446 918 446 918 487 956 c 128,-1,39
 528 994 528 994 594 994 c 0,40,41
 661 994 661 994 701.5 956 c 128,-1,42
 742 918 742 918 742 849 c 256,43,44
 742 780 742 780 701.5 742 c 128,-1,45
 661 704 661 704 594 704 c 0,34,35
EndSplineSet
Substitution2: "'case' Case-Sensitive Forms in Latin lookup 9 subtable" questiondown.case
EndChar

StartChar: quoteleft
Encoding: 8216 8216 489
Width: 540
GlyphClass: 1
Flags: W
LayerCount: 2
Fore
SplineSet
447 1332 m 1,0,1
 345 1286 345 1286 312.5 1250.5 c 128,-1,2
 280 1215 280 1215 280 1167 c 0,3,4
 280 1137 280 1137 299 1115 c 128,-1,5
 318 1093 318 1093 343.5 1075.5 c 128,-1,6
 369 1058 369 1058 388 1043.5 c 128,-1,7
 407 1029 407 1029 407 1014 c 0,8,9
 407 953 407 953 370 914.5 c 128,-1,10
 333 876 333 876 263 876 c 0,11,12
 189 876 189 876 146 920.5 c 128,-1,13
 103 965 103 965 103 1043 c 0,14,15
 103 1125 103 1125 131 1188.5 c 128,-1,16
 159 1252 159 1252 225.5 1306 c 128,-1,17
 292 1360 292 1360 407 1410 c 1,18,-1
 447 1332 l 1,0,1
EndSplineSet
EndChar

StartChar: quoteright
Encoding: 8217 8217 490
Width: 540
GlyphClass: 1
Flags: W
LayerCount: 2
Fore
SplineSet
106 953 m 1,0,1
 208 1000 208 1000 240.5 1035 c 128,-1,2
 273 1070 273 1070 273 1118 c 0,3,4
 273 1148 273 1148 254 1170 c 128,-1,5
 235 1192 235 1192 209.5 1209.5 c 128,-1,6
 184 1227 184 1227 165 1241.5 c 128,-1,7
 146 1256 146 1256 146 1271 c 0,8,9
 146 1332 146 1332 183.5 1370.5 c 128,-1,10
 221 1409 221 1409 290 1409 c 0,11,12
 365 1409 365 1409 407.5 1364.5 c 128,-1,13
 450 1320 450 1320 450 1242 c 0,14,15
 450 1161 450 1161 422 1097 c 128,-1,16
 394 1033 394 1033 327.5 979 c 128,-1,17
 261 925 261 925 146 875 c 1,18,-1
 106 953 l 1,0,1
EndSplineSet
EndChar

StartChar: quotesinglbase
Encoding: 8218 8218 491
Width: 537
GlyphClass: 1
Flags: W
LayerCount: 2
Fore
SplineSet
74 -179 m 1,0,1
 176 -133 176 -133 208.5 -97.5 c 128,-1,2
 241 -62 241 -62 241 -15 c 0,3,4
 241 16 241 16 222 38 c 128,-1,5
 203 60 203 60 177.5 77.5 c 128,-1,6
 152 95 152 95 133 109.5 c 128,-1,7
 114 124 114 124 114 139 c 0,8,9
 114 200 114 200 151.5 238 c 128,-1,10
 189 276 189 276 258 276 c 0,11,12
 333 276 333 276 375.5 231.5 c 128,-1,13
 418 187 418 187 418 109 c 0,14,15
 418 28 418 28 390 -36 c 128,-1,16
 362 -100 362 -100 295.5 -153.5 c 128,-1,17
 229 -207 229 -207 114 -258 c 1,18,-1
 74 -179 l 1,0,1
EndSplineSet
EndChar

StartChar: quotesingle
Encoding: 39 39 495
Width: 458
GlyphClass: 1
Flags: W
LayerCount: 2
Fore
SplineSet
164 888 m 1,0,-1
 123 1354 l 1,1,-1
 123 1396 l 1,2,-1
 336 1396 l 1,3,-1
 336 1354 l 1,4,-1
 294 888 l 1,5,-1
 164 888 l 1,0,-1
EndSplineSet
EndChar

StartChar: guilsinglleft
Encoding: 8249 8249 497
Width: 690
GlyphClass: 1
Flags: W
LayerCount: 2
Fore
SplineSet
285 546 m 1,0,-1
 589 125 l 1,1,-1
 510 52 l 1,2,-1
 92 445 l 1,3,-1
 92 553 l 1,4,-1
 510 947 l 1,5,-1
 589 873 l 1,6,-1
 285 452 l 1,7,-1
 285 546 l 1,0,-1
EndSplineSet
Substitution2: "'case' Case-Sensitive Forms in Latin lookup 9 subtable" guilsinglleft.case
EndChar

StartChar: guilsinglright
Encoding: 8250 8250 498
Width: 716
GlyphClass: 1
Flags: W
LayerCount: 2
Fore
SplineSet
415 453 m 1,0,-1
 110 874 l 1,1,-1
 190 947 l 1,2,-1
 607 554 l 1,3,-1
 607 446 l 1,4,-1
 190 52 l 1,5,-1
 110 126 l 1,6,-1
 415 547 l 1,7,-1
 415 453 l 1,0,-1
EndSplineSet
Substitution2: "'case' Case-Sensitive Forms in Latin lookup 9 subtable" guilsinglright.case
EndChar

StartChar: guillemotleft
Encoding: 171 171 501
Width: 1168
GlyphClass: 1
Flags: W
LayerCount: 2
Fore
SplineSet
285 546 m 1,0,-1
 589 125 l 1,1,-1
 510 52 l 1,2,-1
 92 445 l 1,3,-1
 92 553 l 1,4,-1
 510 947 l 1,5,-1
 589 873 l 1,6,-1
 285 452 l 1,7,-1
 285 546 l 1,0,-1
762 546 m 1,8,-1
 1066 125 l 1,9,-1
 987 52 l 1,10,-1
 569 445 l 1,11,-1
 569 553 l 1,12,-1
 987 947 l 1,13,-1
 1066 873 l 1,14,-1
 762 452 l 1,15,-1
 762 546 l 1,8,-1
EndSplineSet
Substitution2: "'case' Case-Sensitive Forms in Latin lookup 9 subtable" guillemotleft.case
EndChar

StartChar: guillemotright
Encoding: 187 187 502
Width: 1194
GlyphClass: 1
Flags: W
LayerCount: 2
Fore
SplineSet
415 453 m 1,0,-1
 110 874 l 1,1,-1
 190 947 l 1,2,-1
 607 554 l 1,3,-1
 607 446 l 1,4,-1
 190 52 l 1,5,-1
 110 126 l 1,6,-1
 415 547 l 1,7,-1
 415 453 l 1,0,-1
892 453 m 1,8,-1
 588 874 l 1,9,-1
 667 947 l 1,10,-1
 1085 554 l 1,11,-1
 1085 446 l 1,12,-1
 667 52 l 1,13,-1
 588 126 l 1,14,-1
 892 547 l 1,15,-1
 892 453 l 1,8,-1
EndSplineSet
Substitution2: "'case' Case-Sensitive Forms in Latin lookup 9 subtable" guillemotright.case
EndChar

StartChar: slash
Encoding: 47 47 505
Width: 864
GlyphClass: 1
Flags: W
LayerCount: 2
Fore
SplineSet
60 0 m 1,0,-1
 643 1396 l 1,1,-1
 806 1396 l 1,2,-1
 223 0 l 1,3,-1
 60 0 l 1,0,-1
EndSplineSet
EndChar

StartChar: backslash
Encoding: 92 92 506
Width: 864
GlyphClass: 1
Flags: W
LayerCount: 2
Fore
SplineSet
804 0 m 1,0,-1
 642 0 l 1,1,-1
 58 1396 l 1,2,-1
 222 1396 l 1,3,-1
 804 0 l 1,0,-1
EndSplineSet
EndChar

StartChar: bar
Encoding: 124 124 507
Width: 574
GlyphClass: 1
Flags: W
LayerCount: 2
Fore
SplineSet
214 -481 m 1,0,-1
 214 1519 l 1,1,-1
 361 1519 l 1,2,-1
 361 -481 l 1,3,-1
 214 -481 l 1,0,-1
EndSplineSet
EndChar

StartChar: brokenbar
Encoding: 166 166 508
Width: 574
GlyphClass: 1
Flags: W
LayerCount: 2
Fore
SplineSet
361 746 m 1,0,-1
 214 746 l 1,1,-1
 214 1519 l 1,2,-1
 361 1519 l 1,3,-1
 361 746 l 1,0,-1
214 -481 m 1,4,-1
 214 291 l 1,5,-1
 361 291 l 1,6,-1
 361 -481 l 1,7,-1
 214 -481 l 1,4,-1
EndSplineSet
EndChar

StartChar: endash
Encoding: 8211 8211 509
Width: 1087
GlyphClass: 1
Flags: W
LayerCount: 2
Fore
SplineSet
133 563 m 1,0,-1
 953 563 l 1,1,-1
 953 438 l 1,2,-1
 133 438 l 1,3,-1
 133 563 l 1,0,-1
EndSplineSet
Substitution2: "'case' Case-Sensitive Forms in Latin lookup 9 subtable" endash.case
EndChar

StartChar: emdash
Encoding: 8212 8212 512
Width: 1417
GlyphClass: 1
Flags: W
LayerCount: 2
Fore
SplineSet
133 563 m 1,0,-1
 1283 563 l 1,1,-1
 1283 438 l 1,2,-1
 133 438 l 1,3,-1
 133 563 l 1,0,-1
EndSplineSet
Substitution2: "'case' Case-Sensitive Forms in Latin lookup 9 subtable" emdash.case
EndChar

StartChar: bullet
Encoding: 8226 8226 514
Width: 861
GlyphClass: 1
Flags: W
LayerCount: 2
Fore
SplineSet
431 749 m 256,0,1
 506 749 506 749 562 719.5 c 128,-1,2
 618 690 618 690 649.5 634.5 c 128,-1,3
 681 579 681 579 681 501 c 0,4,5
 681 424 681 424 649.5 368 c 128,-1,6
 618 312 618 312 562 282.5 c 128,-1,7
 506 253 506 253 431 253 c 256,8,9
 356 253 356 253 300 282.5 c 128,-1,10
 244 312 244 312 212.5 368 c 128,-1,11
 181 424 181 424 181 501 c 0,12,13
 181 579 181 579 212.5 634.5 c 128,-1,14
 244 690 244 690 300 719.5 c 128,-1,15
 356 749 356 749 431 749 c 256,0,1
EndSplineSet
EndChar

StartChar: parenleft
Encoding: 40 40 517
Width: 670
GlyphClass: 1
Flags: W
LayerCount: 2
Fore
SplineSet
295 609 m 0,0,1
 295 498 295 498 311 398 c 128,-1,2
 327 298 327 298 363 203 c 128,-1,3
 399 108 399 108 459.5 15 c 128,-1,4
 520 -78 520 -78 608 -174 c 1,5,-1
 533 -250 l 1,6,7
 409 -132 409 -132 325.5 -26.5 c 128,-1,8
 242 79 242 79 192.5 181 c 128,-1,9
 143 283 143 283 121.5 388 c 128,-1,10
 100 493 100 493 100 609 c 256,11,12
 100 725 100 725 121.5 830 c 128,-1,13
 143 935 143 935 192.5 1037 c 128,-1,14
 242 1139 242 1139 325.5 1244.5 c 128,-1,15
 409 1350 409 1350 533 1468 c 1,16,-1
 608 1392 l 1,17,18
 520 1296 520 1296 459.5 1203 c 128,-1,19
 399 1110 399 1110 363 1015 c 128,-1,20
 327 920 327 920 311 819.5 c 128,-1,21
 295 719 295 719 295 609 c 0,0,1
EndSplineSet
Substitution2: "'case' Case-Sensitive Forms in Latin lookup 9 subtable" parenleft.case
EndChar

StartChar: parenright
Encoding: 41 41 518
Width: 670
GlyphClass: 1
Flags: W
LayerCount: 2
Fore
SplineSet
375 610 m 0,0,1
 375 720 375 720 359 820.5 c 128,-1,2
 343 921 343 921 307 1015.5 c 128,-1,3
 271 1110 271 1110 210.5 1203.5 c 128,-1,4
 150 1297 150 1297 62 1393 c 1,5,-1
 136 1469 l 1,6,7
 261 1351 261 1351 344 1245.5 c 128,-1,8
 427 1140 427 1140 477 1038 c 128,-1,9
 527 936 527 936 548.5 831 c 128,-1,10
 570 726 570 726 570 610 c 0,11,12
 570 493 570 493 548.5 388 c 128,-1,13
 527 283 527 283 477 181.5 c 128,-1,14
 427 80 427 80 344 -26 c 128,-1,15
 261 -132 261 -132 136 -249 c 1,16,-1
 62 -174 l 1,17,18
 150 -78 150 -78 210.5 15.5 c 128,-1,19
 271 109 271 109 307 203.5 c 128,-1,20
 343 298 343 298 359 398.5 c 128,-1,21
 375 499 375 499 375 610 c 0,0,1
EndSplineSet
Substitution2: "'case' Case-Sensitive Forms in Latin lookup 9 subtable" parenright.case
EndChar

StartChar: bracketleft
Encoding: 91 91 521
Width: 738
GlyphClass: 1
Flags: W
LayerCount: 2
Fore
SplineSet
213 -231 m 1,0,-1
 213 1448 l 1,1,-1
 681 1448 l 1,2,-1
 681 1335 l 1,3,-1
 399 1335 l 1,4,-1
 399 -118 l 1,5,-1
 681 -118 l 1,6,-1
 681 -231 l 1,7,-1
 213 -231 l 1,0,-1
EndSplineSet
Substitution2: "'case' Case-Sensitive Forms in Latin lookup 9 subtable" bracketleft.case
EndChar

StartChar: bracketright
Encoding: 93 93 522
Width: 738
GlyphClass: 1
Flags: W
LayerCount: 2
Fore
SplineSet
526 1449 m 1,0,-1
 526 -230 l 1,1,-1
 57 -230 l 1,2,-1
 57 -117 l 1,3,-1
 339 -117 l 1,4,-1
 339 1336 l 1,5,-1
 57 1336 l 1,6,-1
 57 1449 l 1,7,-1
 526 1449 l 1,0,-1
EndSplineSet
Substitution2: "'case' Case-Sensitive Forms in Latin lookup 9 subtable" bracketright.case
EndChar

StartChar: braceleft
Encoding: 123 123 525
Width: 736
GlyphClass: 1
Flags: W
LayerCount: 2
Fore
SplineSet
63 556 m 1,0,-1
 63 659 l 1,1,-1
 142 661 l 2,2,3
 218 663 218 663 253 696 c 128,-1,4
 288 729 288 729 288 794 c 0,5,6
 288 867 288 867 275 929 c 128,-1,7
 262 991 262 991 248.5 1049.5 c 128,-1,8
 235 1108 235 1108 235 1171 c 0,9,10
 235 1238 235 1238 266 1300 c 128,-1,11
 297 1362 297 1362 364.5 1405 c 128,-1,12
 432 1448 432 1448 537 1456 c 2,13,-1
 657 1466 l 1,14,-1
 668 1366 l 1,15,-1
 591 1357 l 2,16,17
 499 1346 499 1346 466 1294.5 c 128,-1,18
 433 1243 433 1243 433 1168 c 0,19,20
 433 1091 433 1091 447.5 1006 c 128,-1,21
 462 921 462 921 462 833 c 0,22,23
 462 737 462 737 405 673.5 c 128,-1,24
 348 610 348 610 220 588 c 1,25,-1
 220 627 l 1,26,27
 348 604 348 604 405 541.5 c 128,-1,28
 462 479 462 479 462 383 c 0,29,30
 462 295 462 295 447.5 210.5 c 128,-1,31
 433 126 433 126 433 48 c 0,32,33
 433 -27 433 -27 466 -78.5 c 128,-1,34
 499 -130 499 -130 591 -141 c 2,35,-1
 668 -151 l 1,36,-1
 657 -249 l 1,37,-1
 537 -240 l 2,38,39
 432 -231 432 -231 364.5 -188.5 c 128,-1,40
 297 -146 297 -146 266 -84.5 c 128,-1,41
 235 -23 235 -23 235 44 c 0,42,43
 235 108 235 108 248.5 166.5 c 128,-1,44
 262 225 262 225 275 287 c 128,-1,45
 288 349 288 349 288 422 c 0,46,47
 288 487 288 487 253 520 c 128,-1,48
 218 553 218 553 142 554 c 2,49,-1
 63 556 l 1,0,-1
EndSplineSet
Substitution2: "'case' Case-Sensitive Forms in Latin lookup 9 subtable" braceleft.case
EndChar

StartChar: braceright
Encoding: 125 125 526
Width: 736
GlyphClass: 1
Flags: W
LayerCount: 2
Fore
SplineSet
673 660 m 1,0,-1
 673 557 l 1,1,-1
 594 555 l 2,2,3
 518 554 518 554 483 521 c 128,-1,4
 448 488 448 488 448 422 c 0,5,6
 448 349 448 349 461.5 287 c 128,-1,7
 475 225 475 225 488 167 c 128,-1,8
 501 109 501 109 501 45 c 0,9,10
 501 -21 501 -21 470 -83 c 128,-1,11
 439 -145 439 -145 372 -188 c 128,-1,12
 305 -231 305 -231 199 -240 c 2,13,-1
 79 -249 l 1,14,-1
 68 -150 l 1,15,-1
 145 -141 l 2,16,17
 237 -129 237 -129 270 -78 c 128,-1,18
 303 -27 303 -27 303 48 c 0,19,20
 303 126 303 126 288.5 210.5 c 128,-1,21
 274 295 274 295 274 383 c 0,22,23
 274 480 274 480 331 543 c 128,-1,24
 388 606 388 606 516 628 c 1,25,-1
 516 589 l 1,26,27
 388 612 388 612 331 675 c 128,-1,28
 274 738 274 738 274 833 c 0,29,30
 274 922 274 922 288.5 1006.5 c 128,-1,31
 303 1091 303 1091 303 1169 c 0,32,33
 303 1243 303 1243 270 1294.5 c 128,-1,34
 237 1346 237 1346 145 1358 c 2,35,-1
 68 1367 l 1,36,-1
 79 1466 l 1,37,-1
 199 1456 l 2,38,39
 305 1448 305 1448 372 1405 c 128,-1,40
 439 1362 439 1362 470 1300.5 c 128,-1,41
 501 1239 501 1239 501 1173 c 0,42,43
 501 1109 501 1109 488 1050 c 128,-1,44
 475 991 475 991 461.5 929 c 128,-1,45
 448 867 448 867 448 794 c 0,46,47
 448 729 448 729 483 696.5 c 128,-1,48
 518 664 518 664 594 662 c 2,49,-1
 673 660 l 1,0,-1
EndSplineSet
Substitution2: "'case' Case-Sensitive Forms in Latin lookup 9 subtable" braceright.case
EndChar

StartChar: asterisk
Encoding: 42 42 529
Width: 909
GlyphClass: 1
Flags: W
LayerCount: 2
Fore
SplineSet
630 763 m 1,0,-1
 540 726 l 1,1,-1
 431 957 l 1,2,-1
 223 807 l 1,3,-1
 162 881 l 1,4,-1
 347 1057 l 1,5,-1
 140 1208 l 1,6,-1
 192 1289 l 1,7,-1
 416 1167 l 1,8,-1
 495 1410 l 1,9,-1
 589 1386 l 1,10,-1
 542 1136 l 1,11,-1
 798 1135 l 1,12,-1
 804 1038 l 1,13,-1
 552 1006 l 1,14,-1
 630 763 l 1,0,-1
EndSplineSet
EndChar

StartChar: dagger
Encoding: 8224 8224 530
Width: 799
GlyphClass: 1
Flags: W
LayerCount: 2
Fore
SplineSet
400 1246 m 1,0,-1
 684 1274 l 1,1,-1
 684 1122 l 1,2,-1
 400 1149 l 1,3,-1
 115 1122 l 1,4,-1
 115 1274 l 1,5,-1
 400 1246 l 1,0,-1
345 1199 m 1,6,-1
 309 1448 l 1,7,-1
 491 1448 l 1,8,-1
 454 1199 l 1,9,-1
 490 931 l 1,10,-1
 438 700 l 1,11,-1
 360 700 l 1,12,-1
 309 931 l 1,13,-1
 345 1199 l 1,6,-1
EndSplineSet
EndChar

StartChar: daggerdbl
Encoding: 8225 8225 531
Width: 832
GlyphClass: 1
Flags: W
LayerCount: 2
Fore
SplineSet
417 1246 m 1,0,-1
 701 1274 l 1,1,-1
 701 1135 l 1,2,-1
 417 1146 l 1,3,-1
 132 1135 l 1,4,-1
 132 1274 l 1,5,-1
 417 1246 l 1,0,-1
485 1074 m 1,6,-1
 471 949 l 1,7,-1
 508 700 l 1,8,-1
 325 700 l 1,9,-1
 362 949 l 1,10,-1
 348 1074 l 1,11,-1
 362 1199 l 1,12,-1
 325 1448 l 1,13,-1
 508 1448 l 1,14,-1
 471 1199 l 1,15,-1
 485 1074 l 1,6,-1
417 902 m 1,16,-1
 132 874 l 1,17,-1
 132 1013 l 1,18,-1
 417 1002 l 1,19,-1
 701 1013 l 1,20,-1
 701 874 l 1,21,-1
 417 902 l 1,16,-1
EndSplineSet
EndChar

StartChar: section
Encoding: 167 167 532
Width: 1215
GlyphClass: 1
Flags: W
LayerCount: 2
Fore
SplineSet
549 -251 m 0,0,1
 404 -251 404 -251 322.5 -229.5 c 128,-1,2
 241 -208 241 -208 207.5 -170.5 c 128,-1,3
 174 -133 174 -133 174 -85 c 0,4,5
 174 -39 174 -39 211.5 -9 c 128,-1,6
 249 21 249 21 297 21 c 0,7,8
 314 21 314 21 337.5 -2.5 c 128,-1,9
 361 -26 361 -26 394.5 -56.5 c 128,-1,10
 428 -87 428 -87 474.5 -110.5 c 128,-1,11
 521 -134 521 -134 584 -134 c 0,12,13
 710 -134 710 -134 771 -93.5 c 128,-1,14
 832 -53 832 -53 832 18 c 0,15,16
 832 79 832 79 792.5 115 c 128,-1,17
 753 151 753 151 687.5 172.5 c 128,-1,18
 622 194 622 194 543.5 209.5 c 128,-1,19
 465 225 465 225 386.5 245.5 c 128,-1,20
 308 266 308 266 242.5 299.5 c 128,-1,21
 177 333 177 333 137.5 389 c 128,-1,22
 98 445 98 445 98 535 c 0,23,24
 98 681 98 681 203 767 c 128,-1,25
 308 853 308 853 526 863 c 1,26,-1
 595 814 l 1,27,28
 428 806 428 806 352.5 744 c 128,-1,29
 277 682 277 682 277 591 c 0,30,31
 277 522 277 522 316.5 483.5 c 128,-1,32
 356 445 356 445 421.5 423 c 128,-1,33
 487 401 487 401 565 386 c 128,-1,34
 643 371 643 371 720.5 352.5 c 128,-1,35
 798 334 798 334 863.5 301 c 128,-1,36
 929 268 929 268 968.5 210 c 128,-1,37
 1008 152 1008 152 1008 58 c 0,38,39
 1008 -30 1008 -30 960.5 -100 c 128,-1,40
 913 -170 913 -170 811.5 -210.5 c 128,-1,41
 710 -251 710 -251 549 -251 c 0,0,1
938 579 m 0,42,43
 938 647 938 647 898 686 c 128,-1,44
 858 725 858 725 793 746.5 c 128,-1,45
 728 768 728 768 650 783 c 128,-1,46
 572 798 572 798 494 816 c 128,-1,47
 416 834 416 834 351 867 c 128,-1,48
 286 900 286 900 246 957.5 c 128,-1,49
 206 1015 206 1015 206 1109 c 0,50,51
 206 1198 206 1198 254.5 1267 c 128,-1,52
 303 1336 303 1336 405 1376 c 128,-1,53
 507 1416 507 1416 670 1416 c 0,54,55
 816 1416 816 1416 897 1394.5 c 128,-1,56
 978 1373 978 1373 1011.5 1335.5 c 128,-1,57
 1045 1298 1045 1298 1045 1250 c 0,58,59
 1045 1204 1045 1204 1008 1174 c 128,-1,60
 971 1144 971 1144 922 1144 c 0,61,62
 905 1144 905 1144 882 1167.5 c 128,-1,63
 859 1191 859 1191 825.5 1221.5 c 128,-1,64
 792 1252 792 1252 745.5 1275 c 128,-1,65
 699 1298 699 1298 635 1298 c 0,66,67
 506 1298 506 1298 444.5 1258 c 128,-1,68
 383 1218 383 1218 383 1146 c 0,69,70
 383 1087 383 1087 423 1051.5 c 128,-1,71
 463 1016 463 1016 528 995.5 c 128,-1,72
 593 975 593 975 671.5 959.5 c 128,-1,73
 750 944 750 944 828 924 c 128,-1,74
 906 904 906 904 971.5 870.5 c 128,-1,75
 1037 837 1037 837 1077 780.5 c 128,-1,76
 1117 724 1117 724 1117 635 c 0,77,78
 1117 483 1117 483 1009 399.5 c 128,-1,79
 901 316 901 316 689 306 c 1,80,-1
 616 355 l 1,81,82
 785 363 785 363 861.5 424.5 c 128,-1,83
 938 486 938 486 938 579 c 0,42,43
EndSplineSet
EndChar

StartChar: paragraph
Encoding: 182 182 533
Width: 1325
GlyphClass: 1
Flags: W
LayerCount: 2
Fore
SplineSet
696 1396 m 1,0,-1
 696 722 l 1,1,-1
 433 722 l 2,2,3
 307 722 307 722 224.5 761 c 128,-1,4
 142 800 142 800 101.5 875 c 128,-1,5
 61 950 61 950 61 1058 c 0,6,7
 61 1164 61 1164 101.5 1239.5 c 128,-1,8
 142 1315 142 1315 231 1355.5 c 128,-1,9
 320 1396 320 1396 466 1396 c 2,10,-1
 696 1396 l 1,0,-1
746 -230 m 1,11,-1
 624 -230 l 1,12,-1
 624 1396 l 1,13,-1
 971 1396 l 1,14,-1
 971 1285 l 1,15,-1
 746 1285 l 1,16,-1
 746 -230 l 1,11,-1
1046 -230 m 1,17,-1
 924 -230 l 1,18,-1
 924 1396 l 1,19,-1
 1239 1396 l 1,20,-1
 1239 1318 l 1,21,-1
 1046 1287 l 1,22,-1
 1046 -230 l 1,17,-1
EndSplineSet
EndChar

StartChar: at
Encoding: 64 64 534
Width: 1875
GlyphClass: 1
Flags: W
LayerCount: 2
Fore
SplineSet
1326 197 m 0,0,1
 1213 197 1213 197 1151.5 244.5 c 128,-1,2
 1090 292 1090 292 1090 381 c 0,3,4
 1090 406 1090 406 1095.5 435 c 128,-1,5
 1101 464 1101 464 1111 495 c 2,6,-1
 1130 549 l 1,7,-1
 1126 549 l 1,8,9
 1066 448 1066 448 1014 381.5 c 128,-1,10
 962 315 962 315 915.5 275.5 c 128,-1,11
 869 236 869 236 823.5 219.5 c 128,-1,12
 778 203 778 203 730 203 c 0,13,14
 624 203 624 203 569.5 259.5 c 128,-1,15
 515 316 515 316 515 417 c 0,16,17
 515 493 515 493 540.5 575.5 c 128,-1,18
 566 658 566 658 613 737 c 128,-1,19
 660 816 660 816 723 879.5 c 128,-1,20
 786 943 786 943 862.5 980.5 c 128,-1,21
 939 1018 939 1018 1022 1018 c 0,22,23
 1099 1018 1099 1018 1149 975 c 128,-1,24
 1199 932 1199 932 1232 853 c 1,25,-1
 1210 816 l 1,26,27
 1187 864 1187 864 1154 887.5 c 128,-1,28
 1121 911 1121 911 1072 911 c 0,29,30
 1019 911 1019 911 968.5 880 c 128,-1,31
 918 849 918 849 873.5 796.5 c 128,-1,32
 829 744 829 744 795 681.5 c 128,-1,33
 761 619 761 619 741.5 555 c 128,-1,34
 722 491 722 491 722 437 c 0,35,36
 722 386 722 386 746 361.5 c 128,-1,37
 770 337 770 337 819 337 c 0,38,39
 858 337 858 337 904 367 c 128,-1,40
 950 397 950 397 995.5 449.5 c 128,-1,41
 1041 502 1041 502 1080.5 571 c 128,-1,42
 1120 640 1120 640 1147 719 c 2,43,-1
 1199 875 l 1,44,-1
 1263 1003 l 1,45,-1
 1426 1003 l 1,46,-1
 1276 522 l 2,47,48
 1263 483 1263 483 1258.5 455 c 128,-1,49
 1254 427 1254 427 1254 404 c 0,50,51
 1254 348 1254 348 1281.5 325 c 128,-1,52
 1309 302 1309 302 1360 302 c 0,53,54
 1439 302 1439 302 1509 356.5 c 128,-1,55
 1579 411 1579 411 1622 513 c 128,-1,56
 1665 615 1665 615 1665 757 c 256,57,58
 1665 899 1665 899 1623.5 1005.5 c 128,-1,59
 1582 1112 1582 1112 1503 1182.5 c 128,-1,60
 1424 1253 1424 1253 1310.5 1287.5 c 128,-1,61
 1197 1322 1197 1322 1053 1322 c 0,62,63
 864 1322 864 1322 714.5 1264 c 128,-1,64
 565 1206 565 1206 460.5 1098.5 c 128,-1,65
 356 991 356 991 301.5 842 c 128,-1,66
 247 693 247 693 247 512 c 0,67,68
 247 349 247 349 293 228 c 128,-1,69
 339 107 339 107 429.5 27 c 128,-1,70
 520 -53 520 -53 654 -93 c 128,-1,71
 788 -133 788 -133 963 -133 c 0,72,73
 1062 -133 1062 -133 1160.5 -114.5 c 128,-1,74
 1259 -96 1259 -96 1354.5 -58.5 c 128,-1,75
 1450 -21 1450 -21 1541 35 c 1,76,-1
 1595 -58 l 1,77,78
 1500 -118 1500 -118 1398 -160 c 128,-1,79
 1296 -202 1296 -202 1181.5 -223.5 c 128,-1,80
 1067 -245 1067 -245 936 -245 c 0,81,82
 740 -245 740 -245 585.5 -200.5 c 128,-1,83
 431 -156 431 -156 322.5 -65 c 128,-1,84
 214 26 214 26 157.5 167 c 128,-1,85
 101 308 101 308 101 502 c 0,86,87
 101 705 101 705 167.5 875.5 c 128,-1,88
 234 1046 234 1046 359.5 1170 c 128,-1,89
 485 1294 485 1294 662.5 1362 c 128,-1,90
 840 1430 840 1430 1062 1430 c 0,91,92
 1234 1430 1234 1430 1371.5 1388.5 c 128,-1,93
 1509 1347 1509 1347 1605 1266 c 128,-1,94
 1701 1185 1701 1185 1752.5 1065.5 c 128,-1,95
 1804 946 1804 946 1804 790 c 0,96,97
 1804 652 1804 652 1767.5 542.5 c 128,-1,98
 1731 433 1731 433 1666 356 c 128,-1,99
 1601 279 1601 279 1514 238 c 128,-1,100
 1427 197 1427 197 1326 197 c 0,0,1
EndSplineSet
EndChar

StartChar: registered
Encoding: 174 174 535
Width: 1144
GlyphClass: 1
Flags: W
LayerCount: 2
Fore
SplineSet
569 1416 m 0,0,1
 711 1416 711 1416 812 1364.5 c 128,-1,2
 913 1313 913 1313 967 1218 c 128,-1,3
 1021 1123 1021 1123 1021 989 c 0,4,5
 1021 856 1021 856 967 760 c 128,-1,6
 913 664 913 664 812 613 c 128,-1,7
 711 562 711 562 569 562 c 0,8,9
 430 562 430 562 330 613 c 128,-1,10
 230 664 230 664 176.5 760 c 128,-1,11
 123 856 123 856 123 989 c 0,12,13
 123 1123 123 1123 176.5 1218 c 128,-1,14
 230 1313 230 1313 330 1364.5 c 128,-1,15
 430 1416 430 1416 569 1416 c 0,0,1
569 1335 m 0,16,17
 451 1335 451 1335 372 1294 c 128,-1,18
 293 1253 293 1253 253.5 1176 c 128,-1,19
 214 1099 214 1099 214 989 c 0,20,21
 214 880 214 880 253.5 802.5 c 128,-1,22
 293 725 293 725 372 684 c 128,-1,23
 451 643 451 643 569 643 c 0,24,25
 689 643 689 643 769.5 684 c 128,-1,26
 850 725 850 725 890.5 802.5 c 128,-1,27
 931 880 931 880 931 989 c 0,28,29
 931 1099 931 1099 890.5 1176 c 128,-1,30
 850 1253 850 1253 769.5 1294 c 128,-1,31
 689 1335 689 1335 569 1335 c 0,16,17
458 1023 m 1,32,-1
 595 1023 l 2,33,34
 630 1023 630 1023 648.5 1038.5 c 128,-1,35
 667 1054 667 1054 667 1087 c 0,36,37
 667 1119 667 1119 649.5 1134.5 c 128,-1,38
 632 1150 632 1150 583 1150 c 2,39,-1
 456 1150 l 1,40,-1
 451 1215 l 1,41,-1
 620 1215 l 2,42,43
 704 1215 704 1215 740.5 1187 c 128,-1,44
 777 1159 777 1159 777 1105 c 0,45,46
 777 1060 777 1060 748.5 1030.5 c 128,-1,47
 720 1001 720 1001 657 995 c 1,48,-1
 659 999 l 1,49,50
 706 996 706 996 725.5 980.5 c 128,-1,51
 745 965 745 965 751 931 c 2,52,-1
 765 873 l 2,53,54
 771 846 771 846 780.5 838.5 c 128,-1,55
 790 831 790 831 816 831 c 1,56,-1
 816 786 l 1,57,58
 756 782 756 782 723.5 785 c 128,-1,59
 691 788 691 788 676.5 803.5 c 128,-1,60
 662 819 662 819 655 848 c 2,61,-1
 641 919 l 2,62,63
 634 951 634 951 621.5 960 c 128,-1,64
 609 969 609 969 578 969 c 2,65,-1
 461 969 l 1,66,-1
 458 1023 l 1,32,-1
414 1167 m 1,67,-1
 358 1179 l 1,68,-1
 358 1215 l 1,69,-1
 524 1215 l 1,70,-1
 524 835 l 1,71,-1
 575 822 l 1,72,-1
 575 786 l 1,73,-1
 358 786 l 1,74,-1
 358 822 l 1,75,-1
 414 835 l 1,76,-1
 414 1167 l 1,67,-1
EndSplineSet
EndChar

StartChar: copyright
Encoding: 169 169 536
Width: 1700
GlyphClass: 1
Flags: W
LayerCount: 2
Fore
SplineSet
850 1416 m 256,0,1
 1016 1416 1016 1416 1150 1367 c 128,-1,2
 1284 1318 1284 1318 1379 1224.5 c 128,-1,3
 1474 1131 1474 1131 1524.5 998.5 c 128,-1,4
 1575 866 1575 866 1575 698 c 256,5,6
 1575 530 1575 530 1524.5 397.5 c 128,-1,7
 1474 265 1474 265 1379 171.5 c 128,-1,8
 1284 78 1284 78 1150 29 c 128,-1,9
 1016 -20 1016 -20 850 -20 c 256,10,11
 684 -20 684 -20 550 29 c 128,-1,12
 416 78 416 78 321 171.5 c 128,-1,13
 226 265 226 265 175.5 397.5 c 128,-1,14
 125 530 125 530 125 698 c 256,15,16
 125 866 125 866 175.5 998.5 c 128,-1,17
 226 1131 226 1131 321 1224.5 c 128,-1,18
 416 1318 416 1318 550 1367 c 128,-1,19
 684 1416 684 1416 850 1416 c 256,0,1
850 1308 m 0,20,21
 663 1308 663 1308 527 1236 c 128,-1,22
 391 1164 391 1164 317.5 1027.5 c 128,-1,23
 244 891 244 891 244 698 c 0,24,25
 244 504 244 504 317.5 368 c 128,-1,26
 391 232 391 232 527 160 c 128,-1,27
 663 88 663 88 850 88 c 0,28,29
 1038 88 1038 88 1173.5 160 c 128,-1,30
 1309 232 1309 232 1382.5 368 c 128,-1,31
 1456 504 1456 504 1456 698 c 0,32,33
 1456 891 1456 891 1382.5 1027.5 c 128,-1,34
 1309 1164 1309 1164 1173.5 1236 c 128,-1,35
 1038 1308 1038 1308 850 1308 c 0,20,21
924 396 m 0,36,37
 965 396 965 396 1013.5 404.5 c 128,-1,38
 1062 413 1062 413 1105 432 c 1,39,-1
 1035 351 l 1,40,-1
 1121 558 l 1,41,-1
 1183 558 l 1,42,-1
 1150 339 l 1,43,44
 1094 319 1094 319 1029.5 308 c 128,-1,45
 965 297 965 297 897 297 c 0,46,47
 753 297 753 297 653 341 c 128,-1,48
 553 385 553 385 501 474 c 128,-1,49
 449 563 449 563 449 695 c 0,50,51
 449 822 449 822 502 914.5 c 128,-1,52
 555 1007 555 1007 655.5 1058 c 128,-1,53
 756 1109 756 1109 899 1109 c 0,54,55
 960 1109 960 1109 1014.5 1099.5 c 128,-1,56
 1069 1090 1069 1090 1121 1072 c 1,57,-1
 1066 1060 l 1,58,-1
 1120 1128 l 1,59,-1
 1167 1128 l 1,60,-1
 1177 835 l 1,61,-1
 1112 832 l 1,62,-1
 1049 1038 l 1,63,-1
 1110 955 l 1,64,65
 1059 982 1059 982 1012 994 c 128,-1,66
 965 1006 965 1006 903 1006 c 0,67,68
 764 1006 764 1006 689 933 c 128,-1,69
 614 860 614 860 614 704 c 0,70,71
 614 599 614 599 651.5 531 c 128,-1,72
 689 463 689 463 758.5 429.5 c 128,-1,73
 828 396 828 396 924 396 c 0,36,37
EndSplineSet
EndChar

StartChar: trademark
Encoding: 8482 8482 537
Width: 1778
GlyphClass: 1
Flags: W
LayerCount: 2
Fore
SplineSet
335 1379 m 1,0,-1
 476 1379 l 1,1,-1
 476 899 l 1,2,-1
 547 882 l 1,3,-1
 547 837 l 1,4,-1
 264 837 l 1,5,-1
 264 882 l 1,6,-1
 335 899 l 1,7,-1
 335 1379 l 1,0,-1
1572 902 m 1,8,-1
 1644 884 l 1,9,-1
 1644 837 l 1,10,-1
 1364 837 l 1,11,-1
 1364 884 l 1,12,-1
 1430 899 l 1,13,-1
 1400 1323 l 1,14,-1
 1407 1322 l 1,15,-1
 1233 836 l 1,16,-1
 1117 836 l 1,17,-1
 941 1315 l 1,18,-1
 949 1316 l 1,19,-1
 924 900 l 1,20,-1
 989 884 l 1,21,-1
 989 837 l 1,22,-1
 775 837 l 1,23,-1
 775 884 l 1,24,-1
 848 901 l 1,25,-1
 876 1326 l 1,26,-1
 796 1348 l 1,27,-1
 796 1396 l 1,28,-1
 1061 1396 l 1,29,-1
 1215 957 l 1,30,-1
 1197 957 l 1,31,-1
 1349 1396 l 1,32,-1
 1614 1396 l 1,33,-1
 1614 1348 l 1,34,-1
 1542 1330 l 1,35,-1
 1572 902 l 1,8,-1
645 1319 m 1,36,-1
 166 1319 l 1,37,-1
 215 1356 l 1,38,-1
 157 1199 l 1,39,-1
 95 1200 l 1,40,-1
 122 1429 l 1,41,-1
 172 1429 l 1,42,-1
 210 1383 l 1,43,-1
 157 1396 l 1,44,-1
 657 1396 l 1,45,-1
 602 1383 l 1,46,-1
 639 1429 l 1,47,-1
 689 1429 l 1,48,-1
 717 1200 l 1,49,-1
 655 1199 l 1,50,-1
 597 1356 l 1,51,-1
 645 1319 l 1,36,-1
EndSplineSet
EndChar

StartChar: ordfeminine
Encoding: 170 170 538
Width: 970
GlyphClass: 1
Flags: W
LayerCount: 2
Fore
SplineSet
148 499 m 1,0,-1
 148 624 l 1,1,-1
 829 624 l 1,2,-1
 829 499 l 1,3,-1
 148 499 l 1,0,-1
613 1082 m 1,4,5
 520 1066 520 1066 461 1051 c 128,-1,6
 402 1036 402 1036 370 1019.5 c 128,-1,7
 338 1003 338 1003 326 982 c 128,-1,8
 314 961 314 961 314 934 c 0,9,10
 314 890 314 890 342.5 868.5 c 128,-1,11
 371 847 371 847 434 847 c 0,12,13
 501 847 501 847 540.5 882.5 c 128,-1,14
 580 918 580 918 580 971 c 2,15,-1
 580 1194 l 2,16,17
 580 1260 580 1260 548 1292.5 c 128,-1,18
 516 1325 516 1325 436 1325 c 0,19,20
 402 1325 402 1325 368.5 1319 c 128,-1,21
 335 1313 335 1313 295 1300 c 1,22,-1
 358 1356 l 1,23,24
 349 1313 349 1313 340.5 1285 c 128,-1,25
 332 1257 332 1257 319 1238 c 0,26,27
 305 1220 305 1220 287 1211 c 128,-1,28
 269 1202 269 1202 235 1202 c 256,29,30
 201 1202 201 1202 183 1214 c 128,-1,31
 165 1226 165 1226 165 1247 c 0,32,33
 165 1284 165 1284 213.5 1323.5 c 128,-1,34
 262 1363 262 1363 338.5 1389.5 c 128,-1,35
 415 1416 415 1416 499 1416 c 0,36,37
 588 1416 588 1416 638.5 1393.5 c 128,-1,38
 689 1371 689 1371 711 1323.5 c 128,-1,39
 733 1276 733 1276 733 1202 c 2,40,-1
 733 927 l 2,41,42
 733 881 733 881 745 865.5 c 128,-1,43
 757 850 757 850 788 850 c 0,44,45
 802 850 802 850 816 852.5 c 128,-1,46
 830 855 830 855 849 862 c 1,47,-1
 849 788 l 1,48,49
 811 768 811 768 778 759 c 128,-1,50
 745 750 745 750 709 750 c 0,51,52
 644 750 644 750 614.5 790.5 c 128,-1,53
 585 831 585 831 586 927 c 1,54,-1
 598 927 l 1,55,56
 576 832 576 832 519.5 789 c 128,-1,57
 463 746 463 746 373 746 c 0,58,59
 268 746 268 746 213.5 789.5 c 128,-1,60
 159 833 159 833 159 919 c 0,61,62
 159 966 159 966 177 1002.5 c 128,-1,63
 195 1039 195 1039 243 1068.5 c 128,-1,64
 291 1098 291 1098 379.5 1124 c 128,-1,65
 468 1150 468 1150 610 1177 c 1,66,-1
 613 1082 l 1,4,5
EndSplineSet
EndChar

